<?xml version="1.0" standalone="no"?>
<!DOCTYPE svg PUBLIC "-//W3C//DTD SVG 20010904//EN"
 "http://www.w3.org/TR/2001/REC-SVG-20010904/DTD/svg10.dtd">
<svg version="1.0" xmlns="http://www.w3.org/2000/svg"
 width="16.000000pt" height="16.000000pt" viewBox="0 0 16.000000 16.000000"
 preserveAspectRatio="xMidYMid meet">
<metadata>
Created by potrace 1.11, written by Peter Selinger 2001-2013
</metadata>
<g transform="translate(0.000000,16.000000) scale(0.100000,-0.100000)"
fill="#000000" stroke="none">
<path d="M10 104 c0 -40 2 -45 19 -39 11 3 22 1 26 -5 3 -5 16 -10 27 -10 12
0 30 -7 40 -17 10 -9 21 -13 26 -9 4 4 -1 13 -11 20 -21 16 -23 38 -2 30 23
-9 18 16 -9 41 -46 42 -74 39 -78 -8 -1 -15 -7 -26 -13 -24 -5 3 -9 18 -7 36
1 17 -2 31 -8 31 -5 0 -10 -21 -10 -46z m84 10 c15 -6 23 -34 10 -34 -13 0
-44 21 -44 30 0 11 11 13 34 4z"/>
<path d="M125 140 c3 -5 10 -10 16 -10 5 0 9 5 9 10 0 6 -7 10 -16 10 -8 0
-12 -4 -9 -10z"/>
</g>
</svg>
