<?xml version="1.0" standalone="no"?>
<!DOCTYPE svg PUBLIC "-//W3C//DTD SVG 20010904//EN"
 "http://www.w3.org/TR/2001/REC-SVG-20010904/DTD/svg10.dtd">
<svg version="1.0" xmlns="http://www.w3.org/2000/svg"
 width="16.000000pt" height="16.000000pt" viewBox="0 0 16.000000 16.000000"
 preserveAspectRatio="xMidYMid meet">
<metadata>
Created by potrace 1.11, written by Peter Selinger 2001-2013
</metadata>
<g transform="translate(0.000000,16.000000) scale(0.100000,-0.100000)"
fill="#000000" stroke="none">
<path d="M20 140 c-8 -5 -12 -12 -9 -15 4 -3 12 1 19 10 14 17 11 19 -10 5z"/>
<path d="M56 125 c-9 -14 -23 -25 -31 -25 -8 0 -15 -4 -15 -10 0 -5 4 -10 9
-10 13 0 71 50 71 61 0 17 -18 9 -34 -16z"/>
<path d="M10 60 c0 -5 11 -10 24 -10 13 0 30 -10 39 -22 8 -13 19 -19 23 -15
12 11 -42 57 -67 57 -10 0 -19 -4 -19 -10z"/>
</g>
</svg>
