<?xml version="1.0" standalone="no"?>
<!DOCTYPE svg PUBLIC "-//W3C//DTD SVG 20010904//EN"
 "http://www.w3.org/TR/2001/REC-SVG-20010904/DTD/svg10.dtd">
<svg version="1.0" xmlns="http://www.w3.org/2000/svg"
 width="16.000000pt" height="16.000000pt" viewBox="0 0 16.000000 16.000000"
 preserveAspectRatio="xMidYMid meet">
<metadata>
Created by potrace 1.11, written by Peter Selinger 2001-2013
</metadata>
<g transform="translate(0.000000,16.000000) scale(0.100000,-0.100000)"
fill="#000000" stroke="none">
<path d="M15 109 c0 -22 7 -44 14 -48 8 -6 11 -17 6 -31 -5 -17 -4 -21 6 -17
8 2 13 9 12 15 -2 6 6 13 17 16 11 3 29 9 40 12 16 4 20 1 20 -20 0 -14 4 -26
9 -26 5 0 9 20 9 45 -1 25 -4 45 -8 45 -4 0 -19 -9 -34 -21 -23 -18 -29 -19
-43 -7 -14 12 -13 14 13 18 23 4 30 11 32 33 4 30 3 31 -32 17 -17 -6 -26 -6
-26 0 0 6 -8 10 -18 10 -15 0 -18 -8 -17 -41z"/>
</g>
</svg>
