<?xml version="1.0" standalone="no"?>
<!DOCTYPE svg PUBLIC "-//W3C//DTD SVG 20010904//EN"
 "http://www.w3.org/TR/2001/REC-SVG-20010904/DTD/svg10.dtd">
<svg version="1.0" xmlns="http://www.w3.org/2000/svg"
 width="16.000000pt" height="16.000000pt" viewBox="0 0 16.000000 16.000000"
 preserveAspectRatio="xMidYMid meet">
<metadata>
Created by potrace 1.11, written by Peter Selinger 2001-2013
</metadata>
<g transform="translate(0.000000,16.000000) scale(0.100000,-0.100000)"
fill="#000000" stroke="none">
<path d="M15 140 c-3 -5 -1 -10 4 -10 6 0 11 5 11 10 0 6 -2 10 -4 10 -3 0 -8
-4 -11 -10z"/>
<path d="M40 135 c0 -8 -7 -15 -15 -15 -8 0 -15 -7 -15 -15 0 -21 13 -19 38 8
26 27 28 37 7 37 -8 0 -15 -7 -15 -15z"/>
<path d="M90 142 c0 -4 5 -13 11 -19 8 -8 7 -17 -3 -32 -11 -18 -10 -24 14
-48 15 -15 31 -23 35 -19 4 5 -2 15 -14 23 -30 20 -31 58 -2 50 15 -4 19 -2
15 10 -3 8 -6 21 -6 29 0 8 -10 14 -25 14 -14 0 -25 -4 -25 -8z"/>
<path d="M10 55 c0 -8 7 -15 15 -15 8 0 15 -7 15 -15 0 -8 7 -15 15 -15 21 0
19 13 -8 38 -27 26 -37 28 -37 7z"/>
<path d="M15 20 c3 -5 8 -10 11 -10 2 0 4 5 4 10 0 6 -5 10 -11 10 -5 0 -7 -4
-4 -10z"/>
</g>
</svg>
