<?xml version="1.0" standalone="no"?>
<!DOCTYPE svg PUBLIC "-//W3C//DTD SVG 20010904//EN"
 "http://www.w3.org/TR/2001/REC-SVG-20010904/DTD/svg10.dtd">
<svg version="1.0" xmlns="http://www.w3.org/2000/svg"
 width="16.000000pt" height="16.000000pt" viewBox="0 0 16.000000 16.000000"
 preserveAspectRatio="xMidYMid meet">
<metadata>
Created by potrace 1.11, written by Peter Selinger 2001-2013
</metadata>
<g transform="translate(0.000000,16.000000) scale(0.100000,-0.100000)"
fill="#000000" stroke="none">
<path d="M15 140 c-3 -5 2 -10 12 -10 17 -1 17 -1 1 -11 -30 -17 -20 -29 25
-29 33 0 49 6 65 23 12 13 22 26 22 30 0 14 -48 7 -54 -8 -3 -8 -12 -15 -20
-15 -10 0 -13 6 -10 15 7 17 -31 22 -41 5z"/>
<path d="M10 59 c0 -6 7 -8 16 -5 9 3 24 -4 38 -19 26 -28 56 -33 56 -10 0 8
7 15 15 15 8 0 15 7 15 15 0 8 -4 15 -9 15 -5 0 -14 -7 -21 -15 -7 -8 -18 -15
-25 -15 -7 0 -18 7 -25 15 -14 17 -60 20 -60 4z"/>
<path d="M130 19 c0 -5 5 -7 10 -4 6 3 10 8 10 11 0 2 -4 4 -10 4 -5 0 -10 -5
-10 -11z"/>
</g>
</svg>
