<?xml version="1.0" standalone="no"?>
<!DOCTYPE svg PUBLIC "-//W3C//DTD SVG 20010904//EN"
 "http://www.w3.org/TR/2001/REC-SVG-20010904/DTD/svg10.dtd">
<svg version="1.0" xmlns="http://www.w3.org/2000/svg"
 width="16.000000pt" height="16.000000pt" viewBox="0 0 16.000000 16.000000"
 preserveAspectRatio="xMidYMid meet">
<metadata>
Created by potrace 1.11, written by Peter Selinger 2001-2013
</metadata>
<g transform="translate(0.000000,16.000000) scale(0.100000,-0.100000)"
fill="#000000" stroke="none">
<path d="M20 142 c0 -5 9 -17 20 -27 19 -17 21 -17 40 0 11 10 20 22 20 27 0
13 -28 9 -34 -4 -5 -10 -7 -10 -12 0 -6 13 -34 17 -34 4z"/>
<path d="M10 65 c0 -18 4 -23 15 -19 8 4 15 1 15 -5 0 -6 -5 -10 -11 -8 -6 1
-14 -4 -16 -10 -3 -8 5 -13 21 -13 21 0 26 5 26 23 0 22 -27 57 -43 57 -4 0
-7 -11 -7 -25z"/>
</g>
</svg>
