<?xml version="1.0" standalone="no"?>
<!DOCTYPE svg PUBLIC "-//W3C//DTD SVG 20010904//EN"
 "http://www.w3.org/TR/2001/REC-SVG-20010904/DTD/svg10.dtd">
<svg version="1.0" xmlns="http://www.w3.org/2000/svg"
 width="16.000000pt" height="16.000000pt" viewBox="0 0 16.000000 16.000000"
 preserveAspectRatio="xMidYMid meet">
<metadata>
Created by potrace 1.11, written by Peter Selinger 2001-2013
</metadata>
<g transform="translate(0.000000,16.000000) scale(0.100000,-0.100000)"
fill="#000000" stroke="none">
<path d="M10 140 c0 -5 5 -10 10 -10 6 0 10 5 10 10 0 6 -4 10 -10 10 -5 0
-10 -4 -10 -10z"/>
<path d="M53 138 c7 -19 -12 -48 -30 -48 -13 0 -14 -3 -5 -12 9 -9 16 -7 32 7
21 19 28 65 9 65 -6 0 -9 -6 -6 -12z"/>
<path d="M110 105 l-23 -25 23 -25 c13 -14 27 -25 32 -25 4 0 8 23 8 50 0 28
-4 50 -8 50 -5 0 -19 -11 -32 -25z m22 -37 c-9 -9 -12 -7 -12 12 0 19 3 21 12
12 9 -9 9 -15 0 -24z"/>
</g>
</svg>
