<?xml version="1.0" standalone="no"?>
<!DOCTYPE svg PUBLIC "-//W3C//DTD SVG 20010904//EN"
 "http://www.w3.org/TR/2001/REC-SVG-20010904/DTD/svg10.dtd">
<svg version="1.0" xmlns="http://www.w3.org/2000/svg"
 width="16.000000pt" height="16.000000pt" viewBox="0 0 16.000000 16.000000"
 preserveAspectRatio="xMidYMid meet">
<metadata>
Created by potrace 1.11, written by Peter Selinger 2001-2013
</metadata>
<g transform="translate(0.000000,16.000000) scale(0.100000,-0.100000)"
fill="#000000" stroke="none">
<path d="M21 128 c-12 -20 -11 -24 17 -49 26 -23 29 -29 16 -40 -26 -21 -15
-29 41 -29 l55 0 0 51 c0 40 -3 50 -14 46 -9 -4 -16 3 -20 19 -9 33 -24 31
-18 -3 3 -15 14 -35 25 -43 27 -23 15 -60 -20 -60 -18 0 -24 4 -19 15 3 8 9
22 12 30 4 11 -1 15 -19 15 -35 0 -54 26 -39 51 7 10 9 19 4 19 -4 0 -13 -10
-21 -22z"/>
</g>
</svg>
