<?xml version="1.0" standalone="no"?>
<!DOCTYPE svg PUBLIC "-//W3C//DTD SVG 20010904//EN"
 "http://www.w3.org/TR/2001/REC-SVG-20010904/DTD/svg10.dtd">
<svg version="1.0" xmlns="http://www.w3.org/2000/svg"
 width="16.000000pt" height="16.000000pt" viewBox="0 0 16.000000 16.000000"
 preserveAspectRatio="xMidYMid meet">
<metadata>
Created by potrace 1.11, written by Peter Selinger 2001-2013
</metadata>
<g transform="translate(0.000000,16.000000) scale(0.100000,-0.100000)"
fill="#000000" stroke="none">
<path d="M10 90 c0 -27 4 -50 8 -50 5 0 19 11 32 25 l23 25 -23 25 c-13 14
-27 25 -32 25 -4 0 -8 -22 -8 -50z m30 -2 c0 -16 -3 -19 -11 -11 -6 6 -8 16
-5 22 11 17 16 13 16 -11z"/>
<path d="M105 76 c-34 -15 -71 -53 -62 -62 4 -4 20 7 36 25 16 17 38 31 50 31
12 0 21 5 21 10 0 13 -8 12 -45 -4z"/>
<path d="M103 33 c-7 -2 -13 -9 -13 -15 0 -6 6 -6 15 2 10 9 15 9 15 1 0 -6 7
-11 15 -11 8 0 15 7 15 15 0 15 -22 19 -47 8z"/>
</g>
</svg>
