<?xml version="1.0" standalone="no"?>
<!DOCTYPE svg PUBLIC "-//W3C//DTD SVG 20010904//EN"
 "http://www.w3.org/TR/2001/REC-SVG-20010904/DTD/svg10.dtd">
<svg version="1.0" xmlns="http://www.w3.org/2000/svg"
 width="16.000000pt" height="16.000000pt" viewBox="0 0 16.000000 16.000000"
 preserveAspectRatio="xMidYMid meet">
<metadata>
Created by potrace 1.11, written by Peter Selinger 2001-2013
</metadata>
<g transform="translate(0.000000,16.000000) scale(0.100000,-0.100000)"
fill="#000000" stroke="none">
<path d="M24 113 c-11 -53 -11 -58 4 -56 6 2 12 -2 12 -7 0 -6 -7 -10 -15 -10
-8 0 -15 -6 -15 -13 0 -9 14 -13 40 -12 25 0 40 5 40 13 0 11 19 16 48 13 6
-1 12 5 12 14 0 17 -11 20 -26 5 -13 -13 -74 -1 -69 14 2 6 6 26 9 44 5 27 2
32 -13 32 -14 0 -21 -10 -27 -37z"/>
<path d="M100 142 c0 -14 39 -46 47 -38 4 4 2 15 -3 24 -12 19 -44 29 -44 14z"/>
<path d="M130 19 c0 -5 5 -7 10 -4 6 3 10 8 10 11 0 2 -4 4 -10 4 -5 0 -10 -5
-10 -11z"/>
</g>
</svg>
