<?xml version="1.0" standalone="no"?>
<!DOCTYPE svg PUBLIC "-//W3C//DTD SVG 20010904//EN"
 "http://www.w3.org/TR/2001/REC-SVG-20010904/DTD/svg10.dtd">
<svg version="1.0" xmlns="http://www.w3.org/2000/svg"
 width="16.000000pt" height="16.000000pt" viewBox="0 0 16.000000 16.000000"
 preserveAspectRatio="xMidYMid meet">
<metadata>
Created by potrace 1.11, written by Peter Selinger 2001-2013
</metadata>
<g transform="translate(0.000000,16.000000) scale(0.100000,-0.100000)"
fill="#000000" stroke="none">
<path d="M40 142 c0 -5 9 -17 20 -27 16 -15 22 -15 35 -5 12 10 18 10 30 0 19
-16 30 -7 21 17 -6 14 -9 15 -15 4 -6 -10 -10 -10 -16 -2 -3 7 -15 9 -26 6
-11 -4 -19 -2 -19 4 0 6 -7 11 -15 11 -8 0 -15 -4 -15 -8z"/>
<path d="M80 45 c-13 -14 -20 -28 -17 -32 4 -3 17 3 28 16 13 14 27 20 40 16
13 -4 19 -2 19 9 0 25 -44 19 -70 -9z"/>
<path d="M120 20 c-12 -8 -11 -10 8 -10 12 0 22 5 22 10 0 13 -11 13 -30 0z"/>
</g>
</svg>
