<?xml version="1.0" standalone="no"?>
<!DOCTYPE svg PUBLIC "-//W3C//DTD SVG 20010904//EN"
 "http://www.w3.org/TR/2001/REC-SVG-20010904/DTD/svg10.dtd">
<svg version="1.0" xmlns="http://www.w3.org/2000/svg"
 width="16.000000pt" height="16.000000pt" viewBox="0 0 16.000000 16.000000"
 preserveAspectRatio="xMidYMid meet">
<metadata>
Created by potrace 1.11, written by Peter Selinger 2001-2013
</metadata>
<g transform="translate(0.000000,16.000000) scale(0.100000,-0.100000)"
fill="#000000" stroke="none">
<path d="M27 76 c-24 -18 -17 -60 11 -64 12 -2 22 1 22 7 0 6 -7 11 -15 11 -8
0 -15 4 -15 10 0 13 32 0 47 -19 10 -14 13 -14 31 2 15 14 21 15 25 5 3 -9 7
-8 12 5 10 24 -1 33 -20 17 -13 -11 -20 -9 -43 13 -32 31 -31 31 -55 13z"/>
</g>
</svg>
