<?xml version="1.0" standalone="no"?>
<!DOCTYPE svg PUBLIC "-//W3C//DTD SVG 20010904//EN"
 "http://www.w3.org/TR/2001/REC-SVG-20010904/DTD/svg10.dtd">
<svg version="1.0" xmlns="http://www.w3.org/2000/svg"
 width="16.000000pt" height="16.000000pt" viewBox="0 0 16.000000 16.000000"
 preserveAspectRatio="xMidYMid meet">
<metadata>
Created by potrace 1.11, written by Peter Selinger 2001-2013
</metadata>
<g transform="translate(0.000000,16.000000) scale(0.100000,-0.100000)"
fill="#000000" stroke="none">
<path d="M90 141 c0 -13 24 -31 42 -31 11 0 18 7 18 18 0 14 -8 19 -30 20 -16
0 -30 -3 -30 -7z"/>
<path d="M10 95 c0 -20 5 -25 25 -25 25 0 35 -23 15 -35 -15 -9 -12 -25 4 -25
8 0 14 11 14 26 0 39 16 50 41 25 29 -29 41 -26 41 10 0 30 -1 31 -34 26 -24
-4 -39 -1 -47 9 -6 8 -22 14 -35 14 -19 0 -24 -5 -24 -25z"/>
<path d="M130 19 c0 -5 5 -7 10 -4 6 3 10 8 10 11 0 2 -4 4 -10 4 -5 0 -10 -5
-10 -11z"/>
</g>
</svg>
