<?xml version="1.0" standalone="no"?>
<!DOCTYPE svg PUBLIC "-//W3C//DTD SVG 20010904//EN"
 "http://www.w3.org/TR/2001/REC-SVG-20010904/DTD/svg10.dtd">
<svg version="1.0" xmlns="http://www.w3.org/2000/svg"
 width="16.000000pt" height="16.000000pt" viewBox="0 0 16.000000 16.000000"
 preserveAspectRatio="xMidYMid meet">
<metadata>
Created by potrace 1.11, written by Peter Selinger 2001-2013
</metadata>
<g transform="translate(0.000000,16.000000) scale(0.100000,-0.100000)"
fill="#000000" stroke="none">
<path d="M60 143 c0 -4 12 -20 27 -35 26 -27 63 -38 63 -18 0 6 -9 10 -20 10
-11 0 -27 11 -36 25 -15 24 -34 33 -34 18z"/>
<path d="M10 55 c0 -8 7 -15 15 -15 8 0 15 -7 15 -15 0 -8 7 -15 15 -15 21 0
19 13 -8 38 -27 26 -37 28 -37 7z"/>
<path d="M117 52 c-24 -26 -21 -42 8 -42 29 0 34 16 8 23 -17 4 -17 5 0 6 9 0
17 8 17 16 0 20 -13 19 -33 -3z"/>
<path d="M15 20 c3 -5 8 -10 11 -10 2 0 4 5 4 10 0 6 -5 10 -11 10 -5 0 -7 -4
-4 -10z"/>
</g>
</svg>
