<?xml version="1.0" standalone="no"?>
<!DOCTYPE svg PUBLIC "-//W3C//DTD SVG 20010904//EN"
 "http://www.w3.org/TR/2001/REC-SVG-20010904/DTD/svg10.dtd">
<svg version="1.0" xmlns="http://www.w3.org/2000/svg"
 width="16.000000pt" height="16.000000pt" viewBox="0 0 16.000000 16.000000"
 preserveAspectRatio="xMidYMid meet">
<metadata>
Created by potrace 1.11, written by Peter Selinger 2001-2013
</metadata>
<g transform="translate(0.000000,16.000000) scale(0.100000,-0.100000)"
fill="#000000" stroke="none">
<path d="M57 132 c-22 -25 -21 -34 6 -60 29 -27 49 -28 72 -2 10 11 13 20 7
20 -6 0 -14 -5 -17 -10 -9 -15 -41 -12 -56 6 -10 13 -10 19 0 36 16 26 9 33
-12 10z"/>
<path d="M92 139 c2 -6 8 -10 13 -10 5 0 11 4 13 10 2 6 -4 11 -13 11 -9 0
-15 -5 -13 -11z"/>
<path d="M117 116 c-16 -12 -15 -13 8 -13 15 0 25 5 25 13 0 17 -10 17 -33 0z"/>
</g>
</svg>
