<?xml version="1.0" standalone="no"?>
<!DOCTYPE svg PUBLIC "-//W3C//DTD SVG 20010904//EN"
 "http://www.w3.org/TR/2001/REC-SVG-20010904/DTD/svg10.dtd">
<svg version="1.0" xmlns="http://www.w3.org/2000/svg"
 width="16.000000pt" height="16.000000pt" viewBox="0 0 16.000000 16.000000"
 preserveAspectRatio="xMidYMid meet">
<metadata>
Created by potrace 1.11, written by Peter Selinger 2001-2013
</metadata>
<g transform="translate(0.000000,16.000000) scale(0.100000,-0.100000)"
fill="#000000" stroke="none">
<path d="M15 140 c-3 -5 -1 -10 4 -10 6 0 11 5 11 10 0 6 -2 10 -4 10 -3 0 -8
-4 -11 -10z"/>
<path d="M40 135 c0 -8 -7 -15 -15 -15 -8 0 -15 -9 -15 -20 0 -25 6 -25 53 0
20 11 47 22 59 23 12 2 24 9 26 15 5 15 -14 16 -23 2 -3 -5 -17 -10 -31 -10
-13 0 -24 5 -24 10 0 6 -7 10 -15 10 -8 0 -15 -7 -15 -15z"/>
<path d="M112 89 c-24 -9 -22 -29 4 -29 8 0 14 -7 14 -15 0 -10 -10 -15 -29
-15 -17 0 -32 -4 -35 -8 -6 -10 44 -8 67 2 11 5 17 19 17 42 0 36 -2 38 -38
23z"/>
<path d="M10 26 c0 -9 5 -16 10 -16 6 0 10 4 10 9 0 6 -4 13 -10 16 -5 3 -10
-1 -10 -9z"/>
</g>
</svg>
