<?xml version="1.0" standalone="no"?>
<!DOCTYPE svg PUBLIC "-//W3C//DTD SVG 20010904//EN"
 "http://www.w3.org/TR/2001/REC-SVG-20010904/DTD/svg10.dtd">
<svg version="1.0" xmlns="http://www.w3.org/2000/svg"
 width="16.000000pt" height="16.000000pt" viewBox="0 0 16.000000 16.000000"
 preserveAspectRatio="xMidYMid meet">
<metadata>
Created by potrace 1.11, written by Peter Selinger 2001-2013
</metadata>
<g transform="translate(0.000000,16.000000) scale(0.100000,-0.100000)"
fill="#000000" stroke="none">
<path d="M32 87 c-30 -32 -28 -46 3 -17 l25 23 25 -23 c14 -13 25 -32 25 -42
0 -10 5 -18 11 -18 16 0 0 42 -29 73 -31 33 -33 33 -60 4z"/>
<path d="M33 35 c-17 -19 -16 -25 2 -25 8 0 15 8 15 18 1 16 1 16 14 -1 18
-23 29 -22 16 3 -12 23 -30 25 -47 5z"/>
</g>
</svg>
