<?xml version="1.0" standalone="no"?>
<!DOCTYPE svg PUBLIC "-//W3C//DTD SVG 20010904//EN"
 "http://www.w3.org/TR/2001/REC-SVG-20010904/DTD/svg10.dtd">
<svg version="1.0" xmlns="http://www.w3.org/2000/svg"
 width="16.000000pt" height="16.000000pt" viewBox="0 0 16.000000 16.000000"
 preserveAspectRatio="xMidYMid meet">
<metadata>
Created by potrace 1.11, written by Peter Selinger 2001-2013
</metadata>
<g transform="translate(0.000000,16.000000) scale(0.100000,-0.100000)"
fill="#000000" stroke="none">
<path d="M79 141 c12 -8 12 -13 -2 -35 -19 -28 -23 -81 -6 -91 16 -10 24 4 11
17 -20 20 -14 46 18 75 38 34 38 43 -2 43 -24 0 -29 -3 -19 -9z"/>
<path d="M15 101 c0 -21 3 -37 8 -34 9 5 6 73 -3 73 -3 0 -6 -18 -5 -39z"/>
<path d="M10 32 c0 -12 19 -26 26 -19 2 2 -2 10 -11 17 -9 8 -15 8 -15 2z"/>
</g>
</svg>
