<?xml version="1.0" standalone="no"?>
<!DOCTYPE svg PUBLIC "-//W3C//DTD SVG 20010904//EN"
 "http://www.w3.org/TR/2001/REC-SVG-20010904/DTD/svg10.dtd">
<svg version="1.0" xmlns="http://www.w3.org/2000/svg"
 width="16.000000pt" height="16.000000pt" viewBox="0 0 16.000000 16.000000"
 preserveAspectRatio="xMidYMid meet">
<metadata>
Created by potrace 1.11, written by Peter Selinger 2001-2013
</metadata>
<g transform="translate(0.000000,16.000000) scale(0.100000,-0.100000)"
fill="#000000" stroke="none">
<path d="M50 141 c0 -5 10 -18 23 -28 24 -20 25 -54 1 -74 -11 -9 -18 -8 -34
6 -23 21 -39 12 -24 -13 6 -9 25 -18 41 -20 27 -3 31 1 36 28 4 17 18 42 33
55 24 22 25 26 11 40 -19 18 -33 19 -41 3 -5 -10 -7 -10 -12 0 -7 14 -34 17
-34 3z"/>
<path d="M127 41 c-9 -17 -11 -31 -6 -31 10 0 32 50 25 57 -2 2 -11 -10 -19
-26z"/>
</g>
</svg>
