<?xml version="1.0" standalone="no"?>
<!DOCTYPE svg PUBLIC "-//W3C//DTD SVG 20010904//EN"
 "http://www.w3.org/TR/2001/REC-SVG-20010904/DTD/svg10.dtd">
<svg version="1.0" xmlns="http://www.w3.org/2000/svg"
 width="16.000000pt" height="16.000000pt" viewBox="0 0 16.000000 16.000000"
 preserveAspectRatio="xMidYMid meet">
<metadata>
Created by potrace 1.11, written by Peter Selinger 2001-2013
</metadata>
<g transform="translate(0.000000,16.000000) scale(0.100000,-0.100000)"
fill="#000000" stroke="none">
<path d="M22 138 c-14 -14 -16 -38 -4 -38 10 0 42 33 42 43 0 11 -25 8 -38 -5z"/>
<path d="M76 131 c-22 -24 -12 -41 37 -66 38 -19 37 -19 37 10 0 18 -5 25 -20
25 -11 0 -20 5 -20 11 0 6 9 8 21 4 17 -6 20 -3 17 12 -5 26 -50 29 -72 4z"/>
</g>
</svg>
