<?xml version="1.0" standalone="no"?>
<!DOCTYPE svg PUBLIC "-//W3C//DTD SVG 20010904//EN"
 "http://www.w3.org/TR/2001/REC-SVG-20010904/DTD/svg10.dtd">
<svg version="1.0" xmlns="http://www.w3.org/2000/svg"
 width="16.000000pt" height="16.000000pt" viewBox="0 0 16.000000 16.000000"
 preserveAspectRatio="xMidYMid meet">
<metadata>
Created by potrace 1.11, written by Peter Selinger 2001-2013
</metadata>
<g transform="translate(0.000000,16.000000) scale(0.100000,-0.100000)"
fill="#000000" stroke="none">
<path d="M56 120 c4 -16 2 -36 -4 -42 -15 -19 -12 -68 4 -68 17 0 18 12 2 28
-9 9 -8 16 5 30 12 13 15 28 11 50 -4 18 -10 32 -15 32 -5 0 -6 -13 -3 -30z"/>
<path d="M12 110 c0 -17 3 -28 9 -25 10 7 9 55 -2 55 -3 0 -6 -14 -7 -30z"/>
<path d="M112 107 c-12 -13 -22 -28 -22 -33 0 -16 49 -58 57 -50 5 5 -2 15
-14 23 -28 19 -29 39 -3 53 11 6 20 15 20 20 0 17 -15 11 -38 -13z"/>
<path d="M15 20 c3 -5 8 -10 11 -10 2 0 4 5 4 10 0 6 -5 10 -11 10 -5 0 -7 -4
-4 -10z"/>
</g>
</svg>
