<?xml version="1.0" standalone="no"?>
<!DOCTYPE svg PUBLIC "-//W3C//DTD SVG 20010904//EN"
 "http://www.w3.org/TR/2001/REC-SVG-20010904/DTD/svg10.dtd">
<svg version="1.0" xmlns="http://www.w3.org/2000/svg"
 width="16.000000pt" height="16.000000pt" viewBox="0 0 16.000000 16.000000"
 preserveAspectRatio="xMidYMid meet">
<metadata>
Created by potrace 1.11, written by Peter Selinger 2001-2013
</metadata>
<g transform="translate(0.000000,16.000000) scale(0.100000,-0.100000)"
fill="#000000" stroke="none">
<path d="M22 138 c-14 -14 -16 -38 -4 -38 10 0 42 33 42 43 0 11 -25 8 -38 -5z"/>
<path d="M31 79 c-13 -11 -21 -22 -18 -25 3 -4 13 1 22 10 9 9 22 16 29 16 18
0 46 -33 46 -53 0 -9 5 -17 10 -17 17 0 11 22 -16 57 -29 38 -40 40 -73 12z"/>
<path d="M28 43 c-10 -2 -18 -11 -18 -19 0 -18 14 -18 30 1 16 19 30 19 30 0
0 -8 5 -15 10 -15 14 0 13 13 -2 28 -12 12 -20 13 -50 5z"/>
</g>
</svg>
