<?xml version="1.0" standalone="no"?>
<!DOCTYPE svg PUBLIC "-//W3C//DTD SVG 20010904//EN"
 "http://www.w3.org/TR/2001/REC-SVG-20010904/DTD/svg10.dtd">
<svg version="1.0" xmlns="http://www.w3.org/2000/svg"
 width="16.000000pt" height="16.000000pt" viewBox="0 0 16.000000 16.000000"
 preserveAspectRatio="xMidYMid meet">
<metadata>
Created by potrace 1.11, written by Peter Selinger 2001-2013
</metadata>
<g transform="translate(0.000000,16.000000) scale(0.100000,-0.100000)"
fill="#000000" stroke="none">
<path d="M112 127 c-26 -28 -27 -35 -6 -59 14 -14 14 -20 4 -33 -16 -19 -7
-30 17 -21 10 4 13 10 8 14 -6 4 -11 14 -12 22 -1 8 -5 25 -8 37 -5 16 -1 24
14 32 12 7 21 16 21 21 0 17 -15 11 -38 -13z"/>
</g>
</svg>
