<?xml version="1.0" standalone="no"?>
<!DOCTYPE svg PUBLIC "-//W3C//DTD SVG 20010904//EN"
 "http://www.w3.org/TR/2001/REC-SVG-20010904/DTD/svg10.dtd">
<svg version="1.0" xmlns="http://www.w3.org/2000/svg"
 width="16.000000pt" height="16.000000pt" viewBox="0 0 16.000000 16.000000"
 preserveAspectRatio="xMidYMid meet">
<metadata>
Created by potrace 1.11, written by Peter Selinger 2001-2013
</metadata>
<g transform="translate(0.000000,16.000000) scale(0.100000,-0.100000)"
fill="#000000" stroke="none">
<path d="M10 129 c0 -21 35 -58 56 -59 6 0 18 8 26 18 21 23 32 62 19 62 -6 0
-11 -8 -11 -19 0 -10 -7 -24 -15 -31 -13 -11 -19 -9 -36 8 -16 18 -17 22 -4
22 8 0 15 5 15 10 0 6 -11 10 -25 10 -19 0 -25 -5 -25 -21z"/>
<path d="M115 40 c-21 -23 -12 -39 13 -24 19 12 29 44 14 44 -5 0 -17 -9 -27
-20z"/>
</g>
</svg>
