<?xml version="1.0" standalone="no"?>
<!DOCTYPE svg PUBLIC "-//W3C//DTD SVG 20010904//EN"
 "http://www.w3.org/TR/2001/REC-SVG-20010904/DTD/svg10.dtd">
<svg version="1.0" xmlns="http://www.w3.org/2000/svg"
 width="16.000000pt" height="16.000000pt" viewBox="0 0 16.000000 16.000000"
 preserveAspectRatio="xMidYMid meet">
<metadata>
Created by potrace 1.11, written by Peter Selinger 2001-2013
</metadata>
<g transform="translate(0.000000,16.000000) scale(0.100000,-0.100000)"
fill="#000000" stroke="none">
<path d="M80 141 c0 -11 48 -51 61 -51 5 0 9 7 9 15 0 8 -7 15 -15 15 -9 0
-18 7 -21 15 -7 16 -34 21 -34 6z"/>
<path d="M130 140 c0 -5 5 -10 10 -10 6 0 10 5 10 10 0 6 -4 10 -10 10 -5 0
-10 -4 -10 -10z"/>
<path d="M10 66 c0 -8 7 -16 15 -20 8 -3 15 -12 15 -21 0 -8 7 -15 15 -15 20
0 19 12 -6 44 -22 29 -39 34 -39 12z"/>
<path d="M10 20 c0 -5 5 -10 10 -10 6 0 10 5 10 10 0 6 -4 10 -10 10 -5 0 -10
-4 -10 -10z"/>
</g>
</svg>
