<?xml version="1.0" standalone="no"?>
<!DOCTYPE svg PUBLIC "-//W3C//DTD SVG 20010904//EN"
 "http://www.w3.org/TR/2001/REC-SVG-20010904/DTD/svg10.dtd">
<svg version="1.0" xmlns="http://www.w3.org/2000/svg"
 width="16.000000pt" height="16.000000pt" viewBox="0 0 16.000000 16.000000"
 preserveAspectRatio="xMidYMid meet">
<metadata>
Created by potrace 1.11, written by Peter Selinger 2001-2013
</metadata>
<g transform="translate(0.000000,16.000000) scale(0.100000,-0.100000)"
fill="#000000" stroke="none">
<path d="M44 135 c-4 -8 -12 -15 -20 -15 -8 0 -14 -5 -14 -11 0 -6 9 -8 20 -4
11 3 20 2 20 -4 0 -5 3 -17 7 -27 5 -14 2 -16 -20 -10 -22 5 -27 3 -27 -11 0
-10 9 -24 21 -31 18 -12 24 -11 45 9 27 26 31 51 9 69 -8 7 -15 21 -15 31 0
23 -18 25 -26 4z"/>
<path d="M90 142 c0 -10 43 -52 53 -52 4 0 7 7 7 15 0 8 -7 15 -15 15 -8 0
-15 7 -15 15 0 8 -7 15 -15 15 -8 0 -15 -4 -15 -8z"/>
<path d="M130 140 c0 -5 5 -10 11 -10 5 0 7 5 4 10 -3 6 -8 10 -11 10 -2 0 -4
-4 -4 -10z"/>
</g>
</svg>
