<?xml version="1.0" standalone="no"?>
<!DOCTYPE svg PUBLIC "-//W3C//DTD SVG 20010904//EN"
 "http://www.w3.org/TR/2001/REC-SVG-20010904/DTD/svg10.dtd">
<svg version="1.0" xmlns="http://www.w3.org/2000/svg"
 width="16.000000pt" height="16.000000pt" viewBox="0 0 16.000000 16.000000"
 preserveAspectRatio="xMidYMid meet">
<metadata>
Created by potrace 1.11, written by Peter Selinger 2001-2013
</metadata>
<g transform="translate(0.000000,16.000000) scale(0.100000,-0.100000)"
fill="#000000" stroke="none">
<path d="M10 106 c0 -26 6 -48 14 -56 8 -6 12 -18 9 -26 -4 -11 5 -14 41 -14
44 0 59 11 35 26 -6 4 -9 19 -5 36 9 44 -18 78 -60 78 -33 0 -34 -1 -34 -44z
m50 -6 c0 -11 -4 -20 -10 -20 -5 0 -10 9 -10 20 0 11 5 20 10 20 6 0 10 -9 10
-20z m26 -37 c-1 -40 -16 -52 -35 -29 -10 12 -9 20 6 40 25 34 30 32 29 -11z"/>
</g>
</svg>
