<?xml version="1.0" standalone="no"?>
<!DOCTYPE svg PUBLIC "-//W3C//DTD SVG 20010904//EN"
 "http://www.w3.org/TR/2001/REC-SVG-20010904/DTD/svg10.dtd">
<svg version="1.0" xmlns="http://www.w3.org/2000/svg"
 width="16.000000pt" height="16.000000pt" viewBox="0 0 16.000000 16.000000"
 preserveAspectRatio="xMidYMid meet">
<metadata>
Created by potrace 1.11, written by Peter Selinger 2001-2013
</metadata>
<g transform="translate(0.000000,16.000000) scale(0.100000,-0.100000)"
fill="#000000" stroke="none">
<path d="M94 135 c-4 -8 -3 -22 0 -30 4 -10 -2 -19 -17 -24 -28 -11 -73 -59
-63 -68 4 -4 18 7 32 25 14 18 34 32 45 32 10 0 20 6 21 13 0 6 2 17 3 22 2 6
3 14 4 19 0 5 8 3 16 -4 13 -10 15 -9 15 9 0 16 -6 21 -25 21 -14 0 -28 -7
-31 -15z"/>
<path d="M130 51 c0 -23 4 -41 10 -41 11 0 10 69 -2 76 -4 3 -8 -13 -8 -35z"/>
<path d="M69 30 c-7 -5 -10 -12 -6 -17 5 -4 12 -1 17 7 7 10 10 11 10 3 0 -7
5 -13 10 -13 6 0 10 4 10 9 0 14 -25 20 -41 11z"/>
</g>
</svg>
