<?xml version="1.0" standalone="no"?>
<!DOCTYPE svg PUBLIC "-//W3C//DTD SVG 20010904//EN"
 "http://www.w3.org/TR/2001/REC-SVG-20010904/DTD/svg10.dtd">
<svg version="1.0" xmlns="http://www.w3.org/2000/svg"
 width="16.000000pt" height="16.000000pt" viewBox="0 0 16.000000 16.000000"
 preserveAspectRatio="xMidYMid meet">
<metadata>
Created by potrace 1.11, written by Peter Selinger 2001-2013
</metadata>
<g transform="translate(0.000000,16.000000) scale(0.100000,-0.100000)"
fill="#000000" stroke="none">
<path d="M10 140 c0 -5 4 -10 9 -10 6 0 13 5 16 10 3 6 -1 10 -9 10 -9 0 -16
-4 -16 -10z"/>
<path d="M118 143 c7 -3 16 -2 19 1 4 3 -2 6 -13 5 -11 0 -14 -3 -6 -6z"/>
<path d="M42 74 c-19 -19 -31 -38 -28 -41 8 -9 56 37 56 53 0 10 6 11 22 5 28
-10 35 -31 10 -31 -18 0 -52 -28 -52 -43 0 -11 38 -8 46 4 3 6 17 8 30 5 21
-6 24 -3 24 24 0 25 -6 32 -36 45 -20 8 -37 15 -38 15 0 0 -16 -16 -34 -36z"/>
</g>
</svg>
