<?xml version="1.0" standalone="no"?>
<!DOCTYPE svg PUBLIC "-//W3C//DTD SVG 20010904//EN"
 "http://www.w3.org/TR/2001/REC-SVG-20010904/DTD/svg10.dtd">
<svg version="1.0" xmlns="http://www.w3.org/2000/svg"
 width="16.000000pt" height="16.000000pt" viewBox="0 0 16.000000 16.000000"
 preserveAspectRatio="xMidYMid meet">
<metadata>
Created by potrace 1.11, written by Peter Selinger 2001-2013
</metadata>
<g transform="translate(0.000000,16.000000) scale(0.100000,-0.100000)"
fill="#000000" stroke="none">
<path d="M10 139 c0 -6 9 -7 21 -4 16 5 20 3 17 -6 -3 -8 -12 -13 -22 -11 -9
2 -16 -4 -16 -13 0 -19 34 -12 62 13 27 23 22 30 -22 30 -22 0 -40 -4 -40 -9z"/>
<path d="M112 138 c-18 -18 -14 -63 6 -81 23 -21 32 -21 32 -2 0 8 -7 15 -15
15 -10 0 -15 10 -15 30 0 21 5 30 16 30 8 0 12 5 9 10 -8 13 -18 13 -33 -2z"/>
<path d="M134 109 c-3 -6 -2 -15 3 -20 5 -5 9 -1 9 11 0 23 -2 24 -12 9z"/>
</g>
</svg>
