<?xml version="1.0" standalone="no"?>
<!DOCTYPE svg PUBLIC "-//W3C//DTD SVG 20010904//EN"
 "http://www.w3.org/TR/2001/REC-SVG-20010904/DTD/svg10.dtd">
<svg version="1.0" xmlns="http://www.w3.org/2000/svg"
 width="16.000000pt" height="16.000000pt" viewBox="0 0 16.000000 16.000000"
 preserveAspectRatio="xMidYMid meet">
<metadata>
Created by potrace 1.11, written by Peter Selinger 2001-2013
</metadata>
<g transform="translate(0.000000,16.000000) scale(0.100000,-0.100000)"
fill="#000000" stroke="none">
<path d="M30 125 c-26 -28 -17 -34 12 -8 17 15 19 15 38 -2 25 -23 25 -37 0
-60 -13 -12 -28 -15 -47 -11 -27 6 -27 6 -9 -9 28 -21 38 -19 70 14 30 31 29
38 -7 79 -26 28 -28 28 -57 -3z"/>
<path d="M100 142 c0 -14 39 -46 47 -38 4 4 2 15 -3 24 -12 19 -44 29 -44 14z"/>
<path d="M115 40 c-21 -23 -12 -39 13 -24 19 12 29 44 14 44 -5 0 -17 -9 -27
-20z"/>
</g>
</svg>
