<?xml version="1.0" standalone="no"?>
<!DOCTYPE svg PUBLIC "-//W3C//DTD SVG 20010904//EN"
 "http://www.w3.org/TR/2001/REC-SVG-20010904/DTD/svg10.dtd">
<svg version="1.0" xmlns="http://www.w3.org/2000/svg"
 width="16.000000pt" height="16.000000pt" viewBox="0 0 16.000000 16.000000"
 preserveAspectRatio="xMidYMid meet">
<metadata>
Created by potrace 1.11, written by Peter Selinger 2001-2013
</metadata>
<g transform="translate(0.000000,16.000000) scale(0.100000,-0.100000)"
fill="#000000" stroke="none">
<path d="M10 135 c0 -16 21 -35 39 -35 8 0 23 8 33 17 19 17 19 16 13 -8 -5
-18 0 -30 19 -48 14 -14 29 -21 33 -17 4 4 -3 15 -16 25 -20 15 -23 24 -18 49
l6 31 -54 -1 c-33 -1 -55 -6 -55 -13z"/>
</g>
</svg>
