<?xml version="1.0" standalone="no"?>
<!DOCTYPE svg PUBLIC "-//W3C//DTD SVG 20010904//EN"
 "http://www.w3.org/TR/2001/REC-SVG-20010904/DTD/svg10.dtd">
<svg version="1.0" xmlns="http://www.w3.org/2000/svg"
 width="16.000000pt" height="16.000000pt" viewBox="0 0 16.000000 16.000000"
 preserveAspectRatio="xMidYMid meet">
<metadata>
Created by potrace 1.11, written by Peter Selinger 2001-2013
</metadata>
<g transform="translate(0.000000,16.000000) scale(0.100000,-0.100000)"
fill="#000000" stroke="none">
<path d="M126 91 c-9 -14 -77 -24 -89 -12 -14 14 -30 14 -25 0 2 -6 6 -9 9 -7
3 2 17 -5 32 -15 24 -15 33 -16 63 -7 23 8 34 18 34 31 0 20 -15 26 -24 10z"/>
<path d="M10 29 c0 -10 88 -24 97 -15 10 10 1 13 -49 18 -27 3 -48 2 -48 -3z"/>
<path d="M127 33 c-12 -11 -8 -23 8 -23 8 0 15 7 15 15 0 16 -12 20 -23 8z"/>
</g>
</svg>
