<?xml version="1.0" standalone="no"?>
<!DOCTYPE svg PUBLIC "-//W3C//DTD SVG 20010904//EN"
 "http://www.w3.org/TR/2001/REC-SVG-20010904/DTD/svg10.dtd">
<svg version="1.0" xmlns="http://www.w3.org/2000/svg"
 width="16.000000pt" height="16.000000pt" viewBox="0 0 16.000000 16.000000"
 preserveAspectRatio="xMidYMid meet">
<metadata>
Created by potrace 1.11, written by Peter Selinger 2001-2013
</metadata>
<g transform="translate(0.000000,16.000000) scale(0.100000,-0.100000)"
fill="#000000" stroke="none">
<path d="M66 135 c-6 -17 -36 -21 -36 -5 0 6 -4 10 -10 10 -5 0 -10 -9 -10
-21 0 -16 4 -19 20 -14 28 9 26 -18 -2 -38 -13 -8 -20 -18 -15 -23 7 -7 107
84 107 99 0 14 -48 7 -54 -8z"/>
<path d="M112 47 c-26 -27 -28 -37 -7 -37 8 0 15 7 15 15 0 8 7 15 15 15 8 0
15 7 15 15 0 21 -13 19 -38 -8z"/>
<path d="M130 19 c0 -5 5 -7 10 -4 6 3 10 8 10 11 0 2 -4 4 -10 4 -5 0 -10 -5
-10 -11z"/>
</g>
</svg>
