<?xml version="1.0" standalone="no"?>
<!DOCTYPE svg PUBLIC "-//W3C//DTD SVG 20010904//EN"
 "http://www.w3.org/TR/2001/REC-SVG-20010904/DTD/svg10.dtd">
<svg version="1.0" xmlns="http://www.w3.org/2000/svg"
 width="16.000000pt" height="16.000000pt" viewBox="0 0 16.000000 16.000000"
 preserveAspectRatio="xMidYMid meet">
<metadata>
Created by potrace 1.11, written by Peter Selinger 2001-2013
</metadata>
<g transform="translate(0.000000,16.000000) scale(0.100000,-0.100000)"
fill="#000000" stroke="none">
<path d="M34 129 c-17 -19 -17 -21 2 -46 31 -42 47 -48 83 -32 28 13 38 37 12
31 -6 -1 -11 2 -11 8 0 5 6 10 14 10 7 0 14 10 14 23 0 21 -5 24 -48 25 -36 1
-52 -4 -66 -19z m76 -41 c0 -15 -41 -8 -47 8 -9 24 19 37 35 17 6 -9 12 -20
12 -25z"/>
</g>
</svg>
