<?xml version="1.0" standalone="no"?>
<!DOCTYPE svg PUBLIC "-//W3C//DTD SVG 20010904//EN"
 "http://www.w3.org/TR/2001/REC-SVG-20010904/DTD/svg10.dtd">
<svg version="1.0" xmlns="http://www.w3.org/2000/svg"
 width="16.000000pt" height="16.000000pt" viewBox="0 0 16.000000 16.000000"
 preserveAspectRatio="xMidYMid meet">
<metadata>
Created by potrace 1.11, written by Peter Selinger 2001-2013
</metadata>
<g transform="translate(0.000000,16.000000) scale(0.100000,-0.100000)"
fill="#000000" stroke="none">
<path d="M53 138 c5 -18 49 -16 55 2 5 13 3 13 -13 0 -14 -11 -19 -12 -22 -2
-3 6 -9 12 -15 12 -5 0 -8 -6 -5 -12z"/>
<path d="M10 132 c0 -4 6 -14 12 -20 10 -10 10 -17 0 -32 -7 -11 -8 -20 -3
-20 17 0 23 19 16 50 -6 26 -25 43 -25 22z"/>
<path d="M130 90 c0 -5 5 -10 10 -10 6 0 10 5 10 10 0 6 -4 10 -10 10 -5 0
-10 -4 -10 -10z"/>
<path d="M46 55 c-22 -19 -36 -38 -32 -42 3 -4 25 11 48 33 27 26 38 32 33 19
-15 -41 -17 -55 -7 -55 6 0 12 10 14 22 2 12 9 23 17 26 10 3 12 -2 7 -22 -3
-14 -2 -26 3 -26 5 0 12 12 15 26 5 19 2 30 -11 40 -27 20 -44 16 -87 -21z"/>
</g>
</svg>
