<?xml version="1.0" standalone="no"?>
<!DOCTYPE svg PUBLIC "-//W3C//DTD SVG 20010904//EN"
 "http://www.w3.org/TR/2001/REC-SVG-20010904/DTD/svg10.dtd">
<svg version="1.0" xmlns="http://www.w3.org/2000/svg"
 width="16.000000pt" height="16.000000pt" viewBox="0 0 16.000000 16.000000"
 preserveAspectRatio="xMidYMid meet">
<metadata>
Created by potrace 1.11, written by Peter Selinger 2001-2013
</metadata>
<g transform="translate(0.000000,16.000000) scale(0.100000,-0.100000)"
fill="#000000" stroke="none">
<path d="M15 140 c-3 -5 -1 -10 4 -10 6 0 11 5 11 10 0 6 -2 10 -4 10 -3 0 -8
-4 -11 -10z"/>
<path d="M42 123 c0 -16 7 -41 15 -56 22 -43 10 -56 -20 -24 l-26 28 8 -28 c6
-24 13 -28 49 -31 23 -2 42 0 42 5 -1 4 -14 24 -30 43 -29 34 -39 60 -21 60 5
0 14 -7 21 -15 15 -18 56 -20 66 -3 5 8 0 9 -16 5 -16 -4 -29 1 -45 19 -29 31
-42 30 -43 -3z"/>
</g>
</svg>
