<?xml version="1.0" standalone="no"?>
<!DOCTYPE svg PUBLIC "-//W3C//DTD SVG 20010904//EN"
 "http://www.w3.org/TR/2001/REC-SVG-20010904/DTD/svg10.dtd">
<svg version="1.0" xmlns="http://www.w3.org/2000/svg"
 width="16.000000pt" height="16.000000pt" viewBox="0 0 16.000000 16.000000"
 preserveAspectRatio="xMidYMid meet">
<metadata>
Created by potrace 1.11, written by Peter Selinger 2001-2013
</metadata>
<g transform="translate(0.000000,16.000000) scale(0.100000,-0.100000)"
fill="#000000" stroke="none">
<path d="M10 141 c0 -5 12 -24 27 -41 23 -28 30 -31 62 -25 l36 7 -29 -31
c-39 -40 -26 -52 14 -13 43 44 40 61 -10 55 -42 -6 -80 15 -80 44 0 7 -4 13
-10 13 -5 0 -10 -4 -10 -9z"/>
<path d="M60 141 c0 -5 7 -12 16 -15 26 -10 74 -7 74 5 0 7 -12 9 -35 5 -22
-4 -35 -3 -35 4 0 5 -4 10 -10 10 -5 0 -10 -4 -10 -9z"/>
<path d="M130 19 c0 -5 5 -7 10 -4 6 3 10 8 10 11 0 2 -4 4 -10 4 -5 0 -10 -5
-10 -11z"/>
</g>
</svg>
