<?xml version="1.0" standalone="no"?>
<!DOCTYPE svg PUBLIC "-//W3C//DTD SVG 20010904//EN"
 "http://www.w3.org/TR/2001/REC-SVG-20010904/DTD/svg10.dtd">
<svg version="1.0" xmlns="http://www.w3.org/2000/svg"
 width="16.000000pt" height="16.000000pt" viewBox="0 0 16.000000 16.000000"
 preserveAspectRatio="xMidYMid meet">
<metadata>
Created by potrace 1.11, written by Peter Selinger 2001-2013
</metadata>
<g transform="translate(0.000000,16.000000) scale(0.100000,-0.100000)"
fill="#000000" stroke="none">
<path d="M32 127 c-26 -27 -28 -50 -7 -67 9 -7 13 -21 10 -31 -4 -13 -1 -19 9
-19 21 0 20 8 -5 49 l-20 34 20 21 c17 16 25 18 39 10 17 -12 18 -22 6 -82 -5
-25 -3 -32 10 -32 19 0 21 11 4 28 -9 9 -8 16 5 30 9 10 17 24 17 30 0 6 7 9
16 5 22 -8 15 26 -9 41 -13 8 -20 8 -26 -3 -6 -9 -11 -10 -15 -2 -11 17 -31
13 -54 -12z"/>
</g>
</svg>
