<?xml version="1.0" standalone="no"?>
<!DOCTYPE svg PUBLIC "-//W3C//DTD SVG 20010904//EN"
 "http://www.w3.org/TR/2001/REC-SVG-20010904/DTD/svg10.dtd">
<svg version="1.0" xmlns="http://www.w3.org/2000/svg"
 width="16.000000pt" height="16.000000pt" viewBox="0 0 16.000000 16.000000"
 preserveAspectRatio="xMidYMid meet">
<metadata>
Created by potrace 1.11, written by Peter Selinger 2001-2013
</metadata>
<g transform="translate(0.000000,16.000000) scale(0.100000,-0.100000)"
fill="#000000" stroke="none">
<path d="M24 125 c-18 -15 -18 -15 8 -9 15 3 36 0 50 -9 40 -26 68 -31 68 -12
0 12 -6 15 -20 10 -13 -4 -30 1 -46 14 -32 25 -35 25 -60 6z"/>
<path d="M10 76 c0 -24 3 -26 28 -20 35 9 41 14 16 15 -18 0 -18 1 1 9 16 7
17 9 3 9 -9 1 -23 4 -32 7 -12 5 -16 0 -16 -20z"/>
<path d="M100 41 c-25 -14 -41 -16 -58 -10 -34 13 -40 11 -18 -6 26 -19 60
-19 76 0 7 9 21 13 31 10 13 -4 19 -1 19 9 0 20 -7 20 -50 -3z"/>
</g>
</svg>
