<?xml version="1.0" standalone="no"?>
<!DOCTYPE svg PUBLIC "-//W3C//DTD SVG 20010904//EN"
 "http://www.w3.org/TR/2001/REC-SVG-20010904/DTD/svg10.dtd">
<svg version="1.0" xmlns="http://www.w3.org/2000/svg"
 width="16.000000pt" height="16.000000pt" viewBox="0 0 16.000000 16.000000"
 preserveAspectRatio="xMidYMid meet">
<metadata>
Created by potrace 1.11, written by Peter Selinger 2001-2013
</metadata>
<g transform="translate(0.000000,16.000000) scale(0.100000,-0.100000)"
fill="#000000" stroke="none">
<path d="M80 139 c0 -5 5 -7 10 -4 6 3 16 3 23 -2 8 -5 2 -9 -18 -13 -28 -5
-30 -9 -36 -55 -3 -28 -5 -52 -3 -54 9 -10 16 10 17 52 2 36 5 43 15 35 9 -8
19 -5 37 12 34 32 31 40 -10 40 -19 0 -35 -5 -35 -11z"/>
<path d="M15 80 c0 -33 3 -60 6 -60 4 0 7 27 7 60 0 33 -3 60 -7 60 -3 0 -6
-27 -6 -60z"/>
</g>
</svg>
