<?xml version="1.0" standalone="no"?>
<!DOCTYPE svg PUBLIC "-//W3C//DTD SVG 20010904//EN"
 "http://www.w3.org/TR/2001/REC-SVG-20010904/DTD/svg10.dtd">
<svg version="1.0" xmlns="http://www.w3.org/2000/svg"
 width="16.000000pt" height="16.000000pt" viewBox="0 0 16.000000 16.000000"
 preserveAspectRatio="xMidYMid meet">
<metadata>
Created by potrace 1.11, written by Peter Selinger 2001-2013
</metadata>
<g transform="translate(0.000000,16.000000) scale(0.100000,-0.100000)"
fill="#000000" stroke="none">
<path d="M10 105 c0 -49 8 -55 33 -27 22 24 21 35 -1 55 -28 25 -32 21 -32
-28z"/>
<path d="M106 59 c-14 -11 -26 -27 -26 -35 0 -21 14 -17 25 8 6 13 16 23 24
23 8 0 16 6 19 13 6 18 -12 15 -42 -9z"/>
<path d="M130 20 c0 -5 5 -10 10 -10 6 0 10 5 10 10 0 6 -4 10 -10 10 -5 0
-10 -4 -10 -10z"/>
</g>
</svg>
