<?xml version="1.0" standalone="no"?>
<!DOCTYPE svg PUBLIC "-//W3C//DTD SVG 20010904//EN"
 "http://www.w3.org/TR/2001/REC-SVG-20010904/DTD/svg10.dtd">
<svg version="1.0" xmlns="http://www.w3.org/2000/svg"
 width="16.000000pt" height="16.000000pt" viewBox="0 0 16.000000 16.000000"
 preserveAspectRatio="xMidYMid meet">
<metadata>
Created by potrace 1.11, written by Peter Selinger 2001-2013
</metadata>
<g transform="translate(0.000000,16.000000) scale(0.100000,-0.100000)"
fill="#000000" stroke="none">
<path d="M10 134 c0 -9 5 -14 12 -12 18 6 21 28 4 28 -9 0 -16 -7 -16 -16z"/>
<path d="M110 131 c0 -17 -5 -20 -29 -15 -36 7 -71 -11 -71 -36 0 -24 13 -26
30 -5 16 19 34 19 50 0 14 -17 60 -20 60 -4 0 6 -6 9 -14 6 -8 -3 -20 1 -26 9
-13 14 -4 19 28 15 21 -3 10 43 -10 47 -13 2 -18 -3 -18 -17z"/>
</g>
</svg>
