<?xml version="1.0" standalone="no"?>
<!DOCTYPE svg PUBLIC "-//W3C//DTD SVG 20010904//EN"
 "http://www.w3.org/TR/2001/REC-SVG-20010904/DTD/svg10.dtd">
<svg version="1.0" xmlns="http://www.w3.org/2000/svg"
 width="16.000000pt" height="16.000000pt" viewBox="0 0 16.000000 16.000000"
 preserveAspectRatio="xMidYMid meet">
<metadata>
Created by potrace 1.11, written by Peter Selinger 2001-2013
</metadata>
<g transform="translate(0.000000,16.000000) scale(0.100000,-0.100000)"
fill="#000000" stroke="none">
<path d="M10 142 c0 -5 11 -19 25 -32 22 -21 28 -22 51 -11 19 8 30 9 38 1 17
-17 26 -12 26 15 0 18 -5 25 -19 25 -11 0 -26 3 -34 6 -12 4 -14 0 -10 -15 7
-28 -32 -29 -47 -1 -11 20 -30 27 -30 12z"/>
<path d="M10 86 c0 -8 6 -17 13 -20 10 -5 10 -7 0 -12 -14 -6 -18 -34 -5 -34
5 0 17 9 27 20 17 19 17 21 0 40 -21 23 -35 26 -35 6z"/>
</g>
</svg>
