<?xml version="1.0" standalone="no"?>
<!DOCTYPE svg PUBLIC "-//W3C//DTD SVG 20010904//EN"
 "http://www.w3.org/TR/2001/REC-SVG-20010904/DTD/svg10.dtd">
<svg version="1.0" xmlns="http://www.w3.org/2000/svg"
 width="8.000000pt" height="8.000000pt" viewBox="0 0 8.000000 8.000000"
 preserveAspectRatio="xMidYMid meet">
<metadata>
Created by potrace 1.11, written by Peter Selinger 2001-2013
</metadata>
<g transform="translate(0.000000,8.000000) scale(0.100000,-0.100000)"
fill="#000000" stroke="none">
<path d="M10 36 c0 -14 5 -26 10 -26 6 0 10 7 10 15 0 8 5 15 10 15 6 0 10 -4
10 -10 0 -5 5 -10 10 -10 6 0 10 7 10 15 0 8 -6 15 -14 15 -8 0 -21 3 -30 6
-12 5 -16 0 -16 -20z"/>
</g>
</svg>
