<?xml version="1.0" standalone="no"?>
<!DOCTYPE svg PUBLIC "-//W3C//DTD SVG 20010904//EN"
 "http://www.w3.org/TR/2001/REC-SVG-20010904/DTD/svg10.dtd">
<svg version="1.0" xmlns="http://www.w3.org/2000/svg"
 width="8.000000pt" height="8.000000pt" viewBox="0 0 8.000000 8.000000"
 preserveAspectRatio="xMidYMid meet">
<metadata>
Created by potrace 1.11, written by Peter Selinger 2001-2013
</metadata>
<g transform="translate(0.000000,8.000000) scale(0.100000,-0.100000)"
fill="#000000" stroke="none">
<path d="M10 60 c0 -5 5 -10 12 -10 9 0 9 -3 0 -12 -19 -19 -14 -28 18 -28 21
0 30 5 30 16 0 10 -6 14 -15 10 -8 -3 -15 -1 -15 4 0 6 5 10 10 10 6 0 10 5
10 10 0 6 -11 10 -25 10 -14 0 -25 -4 -25 -10z"/>
</g>
</svg>
