<?xml version="1.0" standalone="no"?>
<!DOCTYPE svg PUBLIC "-//W3C//DTD SVG 20010904//EN"
 "http://www.w3.org/TR/2001/REC-SVG-20010904/DTD/svg10.dtd">
<svg version="1.0" xmlns="http://www.w3.org/2000/svg"
 width="8.000000pt" height="8.000000pt" viewBox="0 0 8.000000 8.000000"
 preserveAspectRatio="xMidYMid meet">
<metadata>
Created by potrace 1.11, written by Peter Selinger 2001-2013
</metadata>
<g transform="translate(0.000000,8.000000) scale(0.100000,-0.100000)"
fill="#000000" stroke="none">
<path d="M44 55 c3 -8 1 -15 -4 -15 -6 0 -10 5 -10 10 0 6 -4 10 -10 10 -5 0
-10 -11 -10 -25 0 -14 5 -25 10 -25 6 0 10 5 10 12 0 9 3 9 12 0 19 -19 28
-14 28 18 0 21 -5 30 -16 30 -10 0 -14 -6 -10 -15z"/>
</g>
</svg>
