<?xml version="1.0" standalone="no"?>
<!DOCTYPE svg PUBLIC "-//W3C//DTD SVG 20010904//EN"
 "http://www.w3.org/TR/2001/REC-SVG-20010904/DTD/svg10.dtd">
<svg version="1.0" xmlns="http://www.w3.org/2000/svg"
 width="8.000000pt" height="8.000000pt" viewBox="0 0 8.000000 8.000000"
 preserveAspectRatio="xMidYMid meet">
<metadata>
Created by potrace 1.11, written by Peter Selinger 2001-2013
</metadata>
<g transform="translate(0.000000,8.000000) scale(0.100000,-0.100000)"
fill="#000000" stroke="none">
<path d="M10 60 c0 -5 4 -10 9 -10 6 0 13 5 16 10 3 6 -1 10 -9 10 -9 0 -16
-4 -16 -10z"/>
<path d="M45 30 c-4 -6 -11 -8 -16 -5 -5 4 -9 1 -9 -5 0 -7 7 -9 16 -6 9 3 20
6 25 6 5 0 9 5 9 10 0 13 -17 13 -25 0z"/>
</g>
</svg>
