<?xml version="1.0" standalone="no"?>
<!DOCTYPE svg PUBLIC "-//W3C//DTD SVG 20010904//EN"
 "http://www.w3.org/TR/2001/REC-SVG-20010904/DTD/svg10.dtd">
<svg version="1.0" xmlns="http://www.w3.org/2000/svg"
 width="16.000000pt" height="16.000000pt" viewBox="0 0 16.000000 16.000000"
 preserveAspectRatio="xMidYMid meet">
<metadata>
Created by potrace 1.11, written by Peter Selinger 2001-2013
</metadata>
<g transform="translate(0.000000,16.000000) scale(0.100000,-0.100000)"
fill="#000000" stroke="none">
<path d="M50 141 c0 -5 -9 -11 -20 -14 -17 -4 -20 -13 -19 -54 0 -26 3 -42 6
-35 8 19 23 14 23 -8 0 -11 5 -20 10 -20 16 0 12 42 -7 62 -15 17 -15 18 11
18 23 0 26 -3 21 -21 -9 -26 20 -59 52 -59 12 0 23 5 23 11 0 6 -9 8 -20 4
-17 -5 -21 -1 -26 24 -4 16 -15 39 -25 50 -10 11 -16 27 -13 35 3 9 1 16 -5
16 -6 0 -11 -4 -11 -9z"/>
<path d="M100 146 c0 -2 7 -6 15 -10 8 -3 15 -1 15 4 0 6 -7 10 -15 10 -8 0
-15 -2 -15 -4z"/>
<path d="M130 96 c0 -14 4 -26 8 -26 11 0 12 39 1 45 -5 4 -9 -5 -9 -19z"/>
</g>
</svg>
