<?xml version="1.0" standalone="no"?>
<!DOCTYPE svg PUBLIC "-//W3C//DTD SVG 20010904//EN"
 "http://www.w3.org/TR/2001/REC-SVG-20010904/DTD/svg10.dtd">
<svg version="1.0" xmlns="http://www.w3.org/2000/svg"
 width="16.000000pt" height="16.000000pt" viewBox="0 0 16.000000 16.000000"
 preserveAspectRatio="xMidYMid meet">
<metadata>
Created by potrace 1.11, written by Peter Selinger 2001-2013
</metadata>
<g transform="translate(0.000000,16.000000) scale(0.100000,-0.100000)"
fill="#000000" stroke="none">
<path d="M54 139 c-3 -6 0 -15 7 -20 9 -6 4 -8 -16 -6 -25 2 -30 -2 -33 -23
-2 -14 0 -20 5 -14 4 6 22 15 39 18 26 6 32 4 37 -13 6 -26 -16 -44 -53 -43
-17 0 -30 -3 -30 -8 0 -12 54 -20 65 -9 5 5 17 9 27 9 10 0 20 10 24 25 3 14
10 25 15 25 5 0 9 16 9 35 0 35 0 35 -44 35 -25 0 -48 -5 -52 -11z m61 -39 c3
-5 1 -10 -4 -10 -6 0 -11 5 -11 10 0 6 2 10 4 10 3 0 8 -4 11 -10z"/>
</g>
</svg>
