<?xml version="1.0" standalone="no"?>
<!DOCTYPE svg PUBLIC "-//W3C//DTD SVG 20010904//EN"
 "http://www.w3.org/TR/2001/REC-SVG-20010904/DTD/svg10.dtd">
<svg version="1.0" xmlns="http://www.w3.org/2000/svg"
 width="16.000000pt" height="16.000000pt" viewBox="0 0 16.000000 16.000000"
 preserveAspectRatio="xMidYMid meet">
<metadata>
Created by potrace 1.11, written by Peter Selinger 2001-2013
</metadata>
<g transform="translate(0.000000,16.000000) scale(0.100000,-0.100000)"
fill="#000000" stroke="none">
<path d="M63 129 c8 -13 7 -21 -2 -32 -15 -19 5 -57 31 -57 26 0 31 18 13 47
-12 18 -14 28 -6 36 19 19 12 27 -18 25 -24 -2 -27 -5 -18 -19z m27 -70 c0 -6
-4 -7 -10 -4 -5 3 -10 11 -10 16 0 6 5 7 10 4 6 -3 10 -11 10 -16z"/>
<path d="M121 116 c-9 -10 -9 -20 0 -40 17 -37 28 -32 27 14 0 42 -8 49 -27
26z"/>
<path d="M10 69 c0 -8 11 -26 25 -39 32 -30 32 -14 0 25 -17 20 -25 25 -25 14z"/>
</g>
</svg>
