<?xml version="1.0" standalone="no"?>
<!DOCTYPE svg PUBLIC "-//W3C//DTD SVG 20010904//EN"
 "http://www.w3.org/TR/2001/REC-SVG-20010904/DTD/svg10.dtd">
<svg version="1.0" xmlns="http://www.w3.org/2000/svg"
 width="16.000000pt" height="16.000000pt" viewBox="0 0 16.000000 16.000000"
 preserveAspectRatio="xMidYMid meet">
<metadata>
Created by potrace 1.11, written by Peter Selinger 2001-2013
</metadata>
<g transform="translate(0.000000,16.000000) scale(0.100000,-0.100000)"
fill="#000000" stroke="none">
<path d="M50 139 c0 -11 32 -20 51 -14 31 10 21 23 -16 22 -19 -1 -35 -4 -35
-8z"/>
<path d="M130 140 c0 -5 5 -10 11 -10 5 0 7 5 4 10 -3 6 -8 10 -11 10 -2 0 -4
-4 -4 -10z"/>
<path d="M125 112 c-12 -8 -14 -102 -2 -102 8 0 11 23 8 58 -1 12 3 22 9 22 5
0 10 7 10 15 0 16 -9 19 -25 7z"/>
<path d="M10 81 c0 -6 7 -11 15 -11 8 0 15 -9 15 -20 0 -11 -7 -20 -15 -20 -8
0 -15 -5 -15 -11 0 -6 16 -9 38 -7 34 3 37 6 40 36 3 28 0 32 -22 32 -13 0
-31 3 -40 6 -9 3 -16 1 -16 -5z m67 -33 c-3 -8 -6 -5 -6 6 -1 11 2 17 5 13 3
-3 4 -12 1 -19z"/>
</g>
</svg>
