<?xml version="1.0" standalone="no"?>
<!DOCTYPE svg PUBLIC "-//W3C//DTD SVG 20010904//EN"
 "http://www.w3.org/TR/2001/REC-SVG-20010904/DTD/svg10.dtd">
<svg version="1.0" xmlns="http://www.w3.org/2000/svg"
 width="16.000000pt" height="16.000000pt" viewBox="0 0 16.000000 16.000000"
 preserveAspectRatio="xMidYMid meet">
<metadata>
Created by potrace 1.11, written by Peter Selinger 2001-2013
</metadata>
<g transform="translate(0.000000,16.000000) scale(0.100000,-0.100000)"
fill="#000000" stroke="none">
<path d="M21 137 c-17 -17 -13 -33 14 -51 31 -20 48 -12 42 20 -5 29 6 31 33
4 24 -24 25 -34 5 -54 -28 -28 -55 -29 -81 -5 -13 12 -24 18 -24 12 0 -6 7
-13 15 -17 8 -3 15 -12 15 -21 0 -9 9 -15 25 -15 14 0 25 3 25 8 0 4 10 12 23
17 31 14 35 65 7 90 -24 22 -82 29 -99 12z m49 -48 c0 -5 -7 -6 -15 -3 -8 4
-15 13 -15 21 0 13 3 13 15 3 8 -7 15 -16 15 -21z"/>
</g>
</svg>
