<?xml version="1.0" standalone="no"?>
<!DOCTYPE svg PUBLIC "-//W3C//DTD SVG 20010904//EN"
 "http://www.w3.org/TR/2001/REC-SVG-20010904/DTD/svg10.dtd">
<svg version="1.0" xmlns="http://www.w3.org/2000/svg"
 width="16.000000pt" height="16.000000pt" viewBox="0 0 16.000000 16.000000"
 preserveAspectRatio="xMidYMid meet">
<metadata>
Created by potrace 1.11, written by Peter Selinger 2001-2013
</metadata>
<g transform="translate(0.000000,16.000000) scale(0.100000,-0.100000)"
fill="#000000" stroke="none">
<path d="M56 135 c-8 -8 -22 -15 -30 -15 -9 0 -16 -7 -16 -16 0 -9 3 -14 8
-12 4 2 24 12 45 21 37 17 49 37 23 37 -8 0 -21 -7 -30 -15z"/>
<path d="M86 90 c-26 -24 -47 -37 -51 -30 -12 19 -25 10 -23 -16 3 -30 26 -44
39 -23 6 10 9 10 9 2 0 -7 5 -13 11 -13 6 0 8 8 4 19 -6 21 38 71 62 71 7 0
13 7 13 15 0 24 -18 17 -64 -25z"/>
<path d="M117 35 c-10 -14 -14 -25 -9 -25 6 0 17 11 26 25 21 32 7 32 -17 0z"/>
</g>
</svg>
