<?xml version="1.0" standalone="no"?>
<!DOCTYPE svg PUBLIC "-//W3C//DTD SVG 20010904//EN"
 "http://www.w3.org/TR/2001/REC-SVG-20010904/DTD/svg10.dtd">
<svg version="1.0" xmlns="http://www.w3.org/2000/svg"
 width="16.000000pt" height="16.000000pt" viewBox="0 0 16.000000 16.000000"
 preserveAspectRatio="xMidYMid meet">
<metadata>
Created by potrace 1.11, written by Peter Selinger 2001-2013
</metadata>
<g transform="translate(0.000000,16.000000) scale(0.100000,-0.100000)"
fill="#000000" stroke="none">
<path d="M62 108 c2 -23 8 -43 14 -45 6 -2 8 10 6 32 -3 21 0 35 7 35 6 0 11
5 11 10 0 6 -9 10 -21 10 -18 0 -20 -5 -17 -42z"/>
<path d="M115 120 c-8 -16 -15 -37 -15 -46 0 -16 1 -16 13 1 8 10 18 15 24 12
6 -4 10 8 11 28 2 43 -12 45 -33 5z"/>
<path d="M10 31 c0 -12 6 -21 15 -21 8 0 15 4 15 9 0 5 -7 14 -15 21 -13 10
-15 9 -15 -9z"/>
<path d="M102 40 c-32 -7 -67 -30 -47 -30 22 0 85 21 90 30 7 11 4 11 -43 0z"/>
</g>
</svg>
