<?xml version="1.0" standalone="no"?>
<!DOCTYPE svg PUBLIC "-//W3C//DTD SVG 20010904//EN"
 "http://www.w3.org/TR/2001/REC-SVG-20010904/DTD/svg10.dtd">
<svg version="1.0" xmlns="http://www.w3.org/2000/svg"
 width="16.000000pt" height="16.000000pt" viewBox="0 0 16.000000 16.000000"
 preserveAspectRatio="xMidYMid meet">
<metadata>
Created by potrace 1.11, written by Peter Selinger 2001-2013
</metadata>
<g transform="translate(0.000000,16.000000) scale(0.100000,-0.100000)"
fill="#000000" stroke="none">
<path d="M10 138 c0 -5 9 -8 20 -8 15 0 20 -7 20 -27 0 -21 -3 -24 -12 -15
-21 21 -26 13 -25 -30 l2 -43 68 -3 67 -3 0 46 c0 42 -11 58 -25 35 -3 -5 -17
-10 -31 -10 -17 0 -24 5 -24 19 0 11 5 23 10 26 21 13 8 22 -30 21 -22 0 -40
-4 -40 -8z m120 -98 c0 -4 -13 -7 -30 -8 -33 -1 -43 24 -12 30 17 4 42 -8 42
-22z"/>
<path d="M110 141 c0 -12 29 -35 36 -28 11 10 -5 37 -21 37 -8 0 -15 -4 -15
-9z"/>
</g>
</svg>
