<?xml version="1.0" standalone="no"?>
<!DOCTYPE svg PUBLIC "-//W3C//DTD SVG 20010904//EN"
 "http://www.w3.org/TR/2001/REC-SVG-20010904/DTD/svg10.dtd">
<svg version="1.0" xmlns="http://www.w3.org/2000/svg"
 width="16.000000pt" height="16.000000pt" viewBox="0 0 16.000000 16.000000"
 preserveAspectRatio="xMidYMid meet">
<metadata>
Created by potrace 1.11, written by Peter Selinger 2001-2013
</metadata>
<g transform="translate(0.000000,16.000000) scale(0.100000,-0.100000)"
fill="#000000" stroke="none">
<path d="M20 136 c0 -5 3 -6 7 -3 3 4 12 2 20 -5 11 -9 17 -8 29 3 12 13 10
15 -21 15 -19 0 -35 -4 -35 -10z"/>
<path d="M130 125 c0 -8 5 -15 10 -15 6 0 10 7 10 15 0 8 -4 15 -10 15 -5 0
-10 -7 -10 -15z"/>
<path d="M111 97 c-6 -6 -11 -17 -11 -25 0 -10 -11 -12 -46 -8 -44 5 -45 4
-42 -22 2 -17 10 -28 21 -30 15 -3 18 0 12 17 -7 22 -3 24 33 15 12 -4 22 -13
22 -20 0 -8 10 -14 24 -14 21 0 24 5 24 44 1 46 -15 65 -37 43z"/>
<path d="M65 90 c-3 -5 -1 -10 4 -10 6 0 11 5 11 10 0 6 -2 10 -4 10 -3 0 -8
-4 -11 -10z"/>
</g>
</svg>
