<?xml version="1.0" standalone="no"?>
<!DOCTYPE svg PUBLIC "-//W3C//DTD SVG 20010904//EN"
 "http://www.w3.org/TR/2001/REC-SVG-20010904/DTD/svg10.dtd">
<svg version="1.0" xmlns="http://www.w3.org/2000/svg"
 width="16.000000pt" height="16.000000pt" viewBox="0 0 16.000000 16.000000"
 preserveAspectRatio="xMidYMid meet">
<metadata>
Created by potrace 1.11, written by Peter Selinger 2001-2013
</metadata>
<g transform="translate(0.000000,16.000000) scale(0.100000,-0.100000)"
fill="#000000" stroke="none">
<path d="M10 141 c0 -6 6 -11 13 -11 18 0 41 -50 29 -62 -12 -12 8 -58 26 -58
15 0 15 5 0 30 -10 15 -10 22 -1 31 10 10 17 6 33 -14 12 -15 26 -27 31 -27
14 0 11 47 -3 54 -10 5 -10 7 0 12 14 7 17 44 3 44 -5 0 -13 -9 -16 -21 -8
-23 -15 -20 -19 8 -2 14 -13 19 -49 21 -28 2 -47 -1 -47 -7z m80 -21 c0 -5 -7
-10 -16 -10 -8 0 -12 5 -9 10 3 6 10 10 16 10 5 0 9 -4 9 -10z"/>
<path d="M11 78 c-1 -14 5 -29 12 -31 10 -4 10 -6 0 -6 -15 -1 -18 -31 -3 -31
19 0 21 27 6 61 -14 33 -14 33 -15 7z"/>
</g>
</svg>
