<?xml version="1.0" standalone="no"?>
<!DOCTYPE svg PUBLIC "-//W3C//DTD SVG 20010904//EN"
 "http://www.w3.org/TR/2001/REC-SVG-20010904/DTD/svg10.dtd">
<svg version="1.0" xmlns="http://www.w3.org/2000/svg"
 width="16.000000pt" height="16.000000pt" viewBox="0 0 16.000000 16.000000"
 preserveAspectRatio="xMidYMid meet">
<metadata>
Created by potrace 1.11, written by Peter Selinger 2001-2013
</metadata>
<g transform="translate(0.000000,16.000000) scale(0.100000,-0.100000)"
fill="#000000" stroke="none">
<path d="M126 125 c8 -13 13 -28 10 -34 -3 -5 -2 -20 3 -33 8 -19 10 -14 10
28 1 39 -3 53 -15 58 -25 9 -26 8 -8 -19z"/>
<path d="M32 104 c-23 -17 -30 -44 -11 -44 6 0 13 9 16 19 4 17 49 38 60 28 2
-3 1 -16 -2 -30 -7 -26 -41 -42 -69 -31 -11 4 -16 1 -16 -10 0 -22 28 -32 51
-18 11 7 20 8 24 2 8 -13 55 -13 55 -1 0 5 -5 11 -11 13 -6 2 -14 22 -18 43
-5 33 -10 40 -31 42 -14 1 -35 -5 -48 -13z"/>
</g>
</svg>
