<?xml version="1.0" standalone="no"?>
<!DOCTYPE svg PUBLIC "-//W3C//DTD SVG 20010904//EN"
 "http://www.w3.org/TR/2001/REC-SVG-20010904/DTD/svg10.dtd">
<svg version="1.0" xmlns="http://www.w3.org/2000/svg"
 width="16.000000pt" height="16.000000pt" viewBox="0 0 16.000000 16.000000"
 preserveAspectRatio="xMidYMid meet">
<metadata>
Created by potrace 1.11, written by Peter Selinger 2001-2013
</metadata>
<g transform="translate(0.000000,16.000000) scale(0.100000,-0.100000)"
fill="#000000" stroke="none">
<path d="M70 137 c0 -8 14 -30 31 -48 21 -23 29 -40 26 -56 -3 -15 0 -22 7
-20 7 2 11 30 11 68 l0 64 -37 3 c-28 2 -38 -1 -38 -11z"/>
<path d="M22 117 c-17 -20 -13 -107 4 -107 8 0 14 7 14 15 0 8 7 15 15 15 9 0
12 -6 9 -15 -4 -8 -1 -15 6 -15 8 0 10 7 5 22 -4 13 -8 39 -9 58 -1 37 -24 52
-44 27z"/>
</g>
</svg>
