<?xml version="1.0" standalone="no"?>
<!DOCTYPE svg PUBLIC "-//W3C//DTD SVG 20010904//EN"
 "http://www.w3.org/TR/2001/REC-SVG-20010904/DTD/svg10.dtd">
<svg version="1.0" xmlns="http://www.w3.org/2000/svg"
 width="16.000000pt" height="16.000000pt" viewBox="0 0 16.000000 16.000000"
 preserveAspectRatio="xMidYMid meet">
<metadata>
Created by potrace 1.11, written by Peter Selinger 2001-2013
</metadata>
<g transform="translate(0.000000,16.000000) scale(0.100000,-0.100000)"
fill="#000000" stroke="none">
<path d="M55 141 c-14 -6 -2 -9 38 -9 31 -1 57 3 57 8 0 12 -67 12 -95 1z"/>
<path d="M72 98 c-7 -7 -12 -26 -12 -44 0 -18 -6 -35 -12 -37 -7 -3 -1 -6 14
-6 25 -1 26 1 21 41 -5 36 -4 41 11 35 10 -4 20 -7 22 -7 3 0 3 -4 0 -9 -8
-13 11 -61 24 -61 5 0 10 17 10 38 0 32 -5 41 -25 50 -32 15 -38 15 -53 0z"/>
<path d="M12 49 c-1 -31 0 -31 14 -10 8 11 12 26 9 31 -12 19 -22 10 -23 -21z"/>
</g>
</svg>
