<?xml version="1.0" standalone="no"?>
<!DOCTYPE svg PUBLIC "-//W3C//DTD SVG 20010904//EN"
 "http://www.w3.org/TR/2001/REC-SVG-20010904/DTD/svg10.dtd">
<svg version="1.0" xmlns="http://www.w3.org/2000/svg"
 width="16.000000pt" height="16.000000pt" viewBox="0 0 16.000000 16.000000"
 preserveAspectRatio="xMidYMid meet">
<metadata>
Created by potrace 1.11, written by Peter Selinger 2001-2013
</metadata>
<g transform="translate(0.000000,16.000000) scale(0.100000,-0.100000)"
fill="#000000" stroke="none">
<path d="M10 120 c0 -34 34 -60 53 -41 16 16 27 13 27 -7 0 -22 47 -69 57 -58
5 4 0 13 -10 20 -16 12 -67 81 -67 91 0 3 7 5 15 5 9 0 25 -16 36 -35 26 -43
30 -44 19 -5 -5 18 -5 30 1 30 5 0 9 7 9 15 0 8 -7 15 -15 15 -8 0 -15 -5 -15
-12 0 -9 -3 -9 -12 0 -7 7 -31 12 -55 12 -41 0 -43 -1 -43 -30z"/>
<path d="M10 55 c0 -8 7 -15 15 -15 8 0 15 -7 15 -15 0 -8 7 -15 15 -15 21 0
19 13 -8 38 -27 26 -37 28 -37 7z"/>
<path d="M15 20 c3 -5 8 -10 11 -10 2 0 4 5 4 10 0 6 -5 10 -11 10 -5 0 -7 -4
-4 -10z"/>
</g>
</svg>
