<?xml version="1.0" standalone="no"?>
<!DOCTYPE svg PUBLIC "-//W3C//DTD SVG 20010904//EN"
 "http://www.w3.org/TR/2001/REC-SVG-20010904/DTD/svg10.dtd">
<svg version="1.0" xmlns="http://www.w3.org/2000/svg"
 width="16.000000pt" height="16.000000pt" viewBox="0 0 16.000000 16.000000"
 preserveAspectRatio="xMidYMid meet">
<metadata>
Created by potrace 1.11, written by Peter Selinger 2001-2013
</metadata>
<g transform="translate(0.000000,16.000000) scale(0.100000,-0.100000)"
fill="#000000" stroke="none">
<path d="M23 135 c4 -8 2 -17 -4 -20 -5 -4 -9 -29 -8 -56 l2 -49 66 0 c59 0
63 2 42 13 -23 11 -25 17 -22 71 2 43 -1 56 -9 51 -7 -5 -10 -19 -6 -37 5 -27
4 -29 -10 -17 -10 8 -13 21 -9 36 5 20 2 23 -21 23 -19 0 -25 -4 -21 -15z m37
-50 c0 -19 -20 -29 -31 -18 -14 14 0 43 17 36 8 -3 14 -11 14 -18z m17 -41
c-3 -3 -12 -4 -19 -1 -8 3 -5 6 6 6 11 1 17 -2 13 -5z"/>
<path d="M142 115 c0 -16 2 -22 5 -12 2 9 2 23 0 30 -3 6 -5 -1 -5 -18z"/>
</g>
</svg>
