<?xml version="1.0" standalone="no"?>
<!DOCTYPE svg PUBLIC "-//W3C//DTD SVG 20010904//EN"
 "http://www.w3.org/TR/2001/REC-SVG-20010904/DTD/svg10.dtd">
<svg version="1.0" xmlns="http://www.w3.org/2000/svg"
 width="16.000000pt" height="16.000000pt" viewBox="0 0 16.000000 16.000000"
 preserveAspectRatio="xMidYMid meet">
<metadata>
Created by potrace 1.11, written by Peter Selinger 2001-2013
</metadata>
<g transform="translate(0.000000,16.000000) scale(0.100000,-0.100000)"
fill="#000000" stroke="none">
<path d="M20 142 c0 -4 9 -13 19 -19 11 -7 22 -25 25 -40 8 -34 42 -80 52 -70
4 4 -2 17 -14 30 -12 13 -22 32 -22 43 0 11 -10 30 -23 42 -24 23 -37 28 -37
14z"/>
<path d="M80 142 c0 -9 52 -62 61 -62 4 0 7 15 7 34 0 32 -2 34 -34 34 -19 0
-34 -3 -34 -6z"/>
<path d="M18 80 c2 -16 15 -39 28 -51 29 -27 31 -17 4 18 -11 14 -20 32 -20
39 0 7 -4 15 -8 18 -5 3 -6 -8 -4 -24z"/>
</g>
</svg>
