<?xml version="1.0" standalone="no"?>
<!DOCTYPE svg PUBLIC "-//W3C//DTD SVG 20010904//EN"
 "http://www.w3.org/TR/2001/REC-SVG-20010904/DTD/svg10.dtd">
<svg version="1.0" xmlns="http://www.w3.org/2000/svg"
 width="16.000000pt" height="16.000000pt" viewBox="0 0 16.000000 16.000000"
 preserveAspectRatio="xMidYMid meet">
<metadata>
Created by potrace 1.11, written by Peter Selinger 2001-2013
</metadata>
<g transform="translate(0.000000,16.000000) scale(0.100000,-0.100000)"
fill="#000000" stroke="none">
<path d="M10 120 c0 -25 6 -33 38 -46 20 -9 45 -20 54 -25 27 -14 48 -11 48 6
0 8 -5 15 -12 15 -9 0 -9 3 0 12 7 7 12 25 12 40 0 24 -4 28 -30 28 -22 0 -28
-4 -24 -15 4 -8 10 -15 14 -15 5 0 8 -9 7 -20 -1 -17 -7 -20 -32 -18 -27 3
-30 6 -27 36 3 31 -11 45 -21 20 -4 -10 -6 -10 -6 0 -2 26 -21 10 -21 -18z"/>
<path d="M110 20 c0 -5 7 -10 15 -10 8 0 15 5 15 10 0 6 -7 10 -15 10 -8 0
-15 -4 -15 -10z"/>
</g>
</svg>
