<?xml version="1.0" standalone="no"?>
<!DOCTYPE svg PUBLIC "-//W3C//DTD SVG 20010904//EN"
 "http://www.w3.org/TR/2001/REC-SVG-20010904/DTD/svg10.dtd">
<svg version="1.0" xmlns="http://www.w3.org/2000/svg"
 width="16.000000pt" height="16.000000pt" viewBox="0 0 16.000000 16.000000"
 preserveAspectRatio="xMidYMid meet">
<metadata>
Created by potrace 1.11, written by Peter Selinger 2001-2013
</metadata>
<g transform="translate(0.000000,16.000000) scale(0.100000,-0.100000)"
fill="#000000" stroke="none">
<path d="M72 133 c2 -15 -3 -17 -29 -15 -26 3 -33 -1 -33 -14 0 -22 29 -43 60
-44 23 0 23 -1 7 -17 -13 -13 -19 -14 -29 -5 -18 18 -38 14 -38 -8 0 -16 7
-20 35 -20 19 0 50 8 69 17 38 19 49 53 17 53 -14 0 -18 5 -14 20 3 11 0 20
-6 20 -6 0 -11 -9 -11 -20 0 -15 -7 -20 -24 -20 -14 0 -28 5 -31 10 -3 6 3 10
14 10 21 0 46 32 34 44 -12 12 -24 6 -21 -11z"/>
<path d="M125 140 c-7 -12 2 -30 16 -30 12 0 12 27 0 35 -5 3 -12 1 -16 -5z"/>
</g>
</svg>
