<?xml version="1.0" standalone="no"?>
<!DOCTYPE svg PUBLIC "-//W3C//DTD SVG 20010904//EN"
 "http://www.w3.org/TR/2001/REC-SVG-20010904/DTD/svg10.dtd">
<svg version="1.0" xmlns="http://www.w3.org/2000/svg"
 width="16.000000pt" height="16.000000pt" viewBox="0 0 16.000000 16.000000"
 preserveAspectRatio="xMidYMid meet">
<metadata>
Created by potrace 1.11, written by Peter Selinger 2001-2013
</metadata>
<g transform="translate(0.000000,16.000000) scale(0.100000,-0.100000)"
fill="#000000" stroke="none">
<path d="M10 130 c0 -14 9 -16 52 -14 57 3 48 -11 -14 -21 -36 -6 -38 -9 -38
-44 0 -36 2 -38 35 -39 19 -1 37 3 40 8 4 7 13 6 25 0 24 -13 30 -13 30 1 0 5
-4 8 -9 4 -5 -3 -13 -1 -16 5 -4 6 -21 8 -40 4 -36 -6 -42 8 -16 40 17 20 61
21 61 2 0 -17 18 -31 28 -21 3 3 0 10 -8 15 -10 7 -11 10 -2 10 6 0 12 5 12
10 0 6 -7 10 -15 10 -8 0 -15 7 -15 15 0 9 6 12 16 8 12 -4 15 -2 12 8 -3 10
-24 14 -71 15 -57 1 -67 -1 -67 -16z"/>
</g>
</svg>
