<?xml version="1.0" standalone="no"?>
<!DOCTYPE svg PUBLIC "-//W3C//DTD SVG 20010904//EN"
 "http://www.w3.org/TR/2001/REC-SVG-20010904/DTD/svg10.dtd">
<svg version="1.0" xmlns="http://www.w3.org/2000/svg"
 width="16.000000pt" height="16.000000pt" viewBox="0 0 16.000000 16.000000"
 preserveAspectRatio="xMidYMid meet">
<metadata>
Created by potrace 1.11, written by Peter Selinger 2001-2013
</metadata>
<g transform="translate(0.000000,16.000000) scale(0.100000,-0.100000)"
fill="#000000" stroke="none">
<path d="M14 80 c0 -38 4 -70 9 -70 4 0 7 20 7 45 0 59 25 62 34 5 3 -22 11
-40 16 -40 7 0 7 6 0 19 -15 29 -12 51 6 51 12 0 15 -7 12 -25 -3 -14 -1 -25
3 -25 17 0 9 47 -11 65 -16 14 -17 20 -8 26 8 5 24 -2 42 -19 16 -15 25 -20
21 -12 -16 30 -39 50 -56 50 -10 0 -23 -8 -28 -17 -10 -17 -12 -17 -25 0 -7 9
-15 17 -18 17 -3 0 -5 -31 -4 -70z"/>
<path d="M136 31 c-4 -7 -5 -15 -2 -18 9 -9 19 4 14 18 -4 11 -6 11 -12 0z"/>
</g>
</svg>
