<?xml version="1.0" standalone="no"?>
<!DOCTYPE svg PUBLIC "-//W3C//DTD SVG 20010904//EN"
 "http://www.w3.org/TR/2001/REC-SVG-20010904/DTD/svg10.dtd">
<svg version="1.0" xmlns="http://www.w3.org/2000/svg"
 width="16.000000pt" height="16.000000pt" viewBox="0 0 16.000000 16.000000"
 preserveAspectRatio="xMidYMid meet">
<metadata>
Created by potrace 1.11, written by Peter Selinger 2001-2013
</metadata>
<g transform="translate(0.000000,16.000000) scale(0.100000,-0.100000)"
fill="#000000" stroke="none">
<path d="M56 128 c6 -22 6 -22 -13 -5 -25 22 -33 22 -33 -1 0 -31 21 -44 42
-25 20 18 25 53 7 53 -6 0 -8 -9 -3 -22z"/>
<path d="M100 131 c0 -11 -11 -33 -24 -48 -20 -22 -27 -26 -37 -15 -18 17 -29
15 -29 -4 0 -10 6 -14 15 -10 10 3 17 -3 21 -19 3 -14 12 -25 20 -25 16 0 18
12 4 26 -7 7 -4 16 9 28 19 17 20 17 26 -18 4 -21 13 -36 21 -36 8 0 14 5 14
10 0 6 -4 10 -10 10 -5 0 -10 14 -10 30 0 20 5 30 15 30 8 0 15 7 15 15 0 18
-11 19 -29 3 -11 -11 -12 -8 -7 15 4 16 2 27 -4 27 -5 0 -10 -9 -10 -19z"/>
</g>
</svg>
