<?xml version="1.0" standalone="no"?>
<!DOCTYPE svg PUBLIC "-//W3C//DTD SVG 20010904//EN"
 "http://www.w3.org/TR/2001/REC-SVG-20010904/DTD/svg10.dtd">
<svg version="1.0" xmlns="http://www.w3.org/2000/svg"
 width="16.000000pt" height="16.000000pt" viewBox="0 0 16.000000 16.000000"
 preserveAspectRatio="xMidYMid meet">
<metadata>
Created by potrace 1.11, written by Peter Selinger 2001-2013
</metadata>
<g transform="translate(0.000000,16.000000) scale(0.100000,-0.100000)"
fill="#000000" stroke="none">
<path d="M10 140 c0 -5 8 -11 18 -13 16 -4 16 -5 0 -6 -10 0 -18 -8 -18 -17 0
-11 6 -14 21 -9 15 5 19 4 15 -4 -4 -6 -14 -11 -22 -11 -8 0 -14 -5 -14 -10 0
-6 11 -8 26 -4 20 5 25 3 22 -7 -3 -8 -14 -15 -26 -17 -12 -2 -22 -8 -22 -14
0 -6 10 -8 25 -4 14 4 25 2 25 -4 0 -5 9 -10 20 -10 11 0 20 5 20 10 0 6 -8
10 -17 10 -13 0 -14 3 -5 12 9 9 16 6 30 -10 25 -29 42 -28 42 2 0 27 -12 34
-52 32 -32 -2 -34 3 -13 30 15 19 15 19 34 -3 22 -27 31 -29 31 -8 0 9 -7 18
-15 21 -8 4 -15 10 -15 15 0 5 7 9 15 9 8 0 15 4 15 8 0 5 -31 9 -70 9 -38 1
-70 -3 -70 -7z m77 -16 c-3 -3 -12 -4 -19 -1 -8 3 -5 6 6 6 11 1 17 -2 13 -5z"/>
</g>
</svg>
