<?xml version="1.0" standalone="no"?>
<!DOCTYPE svg PUBLIC "-//W3C//DTD SVG 20010904//EN"
 "http://www.w3.org/TR/2001/REC-SVG-20010904/DTD/svg10.dtd">
<svg version="1.0" xmlns="http://www.w3.org/2000/svg"
 width="16.000000pt" height="16.000000pt" viewBox="0 0 16.000000 16.000000"
 preserveAspectRatio="xMidYMid meet">
<metadata>
Created by potrace 1.11, written by Peter Selinger 2001-2013
</metadata>
<g transform="translate(0.000000,16.000000) scale(0.100000,-0.100000)"
fill="#000000" stroke="none">
<path d="M10 142 c0 -19 43 -47 75 -49 22 -1 39 5 51 18 22 24 10 38 -14 16
-10 -10 -21 -14 -24 -11 -4 3 -16 1 -27 -6 -19 -9 -21 -8 -21 15 0 18 -5 25
-20 25 -11 0 -20 -4 -20 -8z"/>
<path d="M10 61 c0 -5 6 -12 13 -15 10 -5 10 -7 0 -12 -19 -9 -16 -24 5 -24
26 0 33 10 22 30 -10 19 -40 35 -40 21z"/>
<path d="M70 50 c0 -5 4 -10 10 -10 5 0 7 -7 4 -15 -7 -17 4 -19 26 -5 10 6
11 10 3 10 -7 0 -13 7 -13 15 0 8 -7 15 -15 15 -8 0 -15 -4 -15 -10z"/>
<path d="M130 19 c0 -5 5 -7 10 -4 6 3 10 8 10 11 0 2 -4 4 -10 4 -5 0 -10 -5
-10 -11z"/>
</g>
</svg>
