<?xml version="1.0" standalone="no"?>
<!DOCTYPE svg PUBLIC "-//W3C//DTD SVG 20010904//EN"
 "http://www.w3.org/TR/2001/REC-SVG-20010904/DTD/svg10.dtd">
<svg version="1.0" xmlns="http://www.w3.org/2000/svg"
 width="16.000000pt" height="16.000000pt" viewBox="0 0 16.000000 16.000000"
 preserveAspectRatio="xMidYMid meet">
<metadata>
Created by potrace 1.11, written by Peter Selinger 2001-2013
</metadata>
<g transform="translate(0.000000,16.000000) scale(0.100000,-0.100000)"
fill="#000000" stroke="none">
<path d="M10 133 c0 -7 5 -13 11 -13 8 0 7 -5 -2 -16 -12 -14 -9 -16 21 -12
57 5 51 -28 -7 -36 -23 -4 -31 -46 -9 -46 9 0 16 7 16 15 0 8 4 15 10 15 5 0
7 -7 3 -16 -4 -12 -2 -15 8 -12 8 3 13 11 11 17 -1 6 2 11 8 11 5 0 10 10 11
23 1 21 1 21 10 -3 6 -18 7 -12 3 23 -6 51 5 60 28 25 15 -22 15 -22 10 10 -3
25 -9 32 -27 32 -14 0 -25 -7 -28 -20 -3 -11 -11 -20 -18 -20 -10 0 -10 3 -1
12 20 20 14 26 -23 25 -22 -1 -35 -6 -35 -14z"/>
<path d="M130 19 c0 -5 5 -7 10 -4 6 3 10 8 10 11 0 2 -4 4 -10 4 -5 0 -10 -5
-10 -11z"/>
</g>
</svg>
