<?xml version="1.0" standalone="no"?>
<!DOCTYPE svg PUBLIC "-//W3C//DTD SVG 20010904//EN"
 "http://www.w3.org/TR/2001/REC-SVG-20010904/DTD/svg10.dtd">
<svg version="1.0" xmlns="http://www.w3.org/2000/svg"
 width="16.000000pt" height="16.000000pt" viewBox="0 0 16.000000 16.000000"
 preserveAspectRatio="xMidYMid meet">
<metadata>
Created by potrace 1.11, written by Peter Selinger 2001-2013
</metadata>
<g transform="translate(0.000000,16.000000) scale(0.100000,-0.100000)"
fill="#000000" stroke="none">
<path d="M28 143 c-11 -3 -15 -13 -14 -36 2 -18 4 -47 5 -64 0 -18 5 -33 11
-33 5 0 7 13 4 29 -4 17 -1 32 6 36 16 10 21 2 22 -34 1 -20 6 -31 15 -31 23
0 68 53 71 82 2 29 0 30 -87 12 -22 -5 -23 -3 -11 11 9 11 22 14 38 10 27 -7
62 2 62 16 0 9 -89 11 -122 2z m80 -71 c9 -7 8 -13 -8 -27 -11 -10 -20 -13
-20 -7 0 6 -3 17 -6 26 -7 17 12 21 34 8z"/>
<path d="M130 19 c0 -5 5 -7 10 -4 6 3 10 8 10 11 0 2 -4 4 -10 4 -5 0 -10 -5
-10 -11z"/>
</g>
</svg>
