<?xml version="1.0" standalone="no"?>
<!DOCTYPE svg PUBLIC "-//W3C//DTD SVG 20010904//EN"
 "http://www.w3.org/TR/2001/REC-SVG-20010904/DTD/svg10.dtd">
<svg version="1.0" xmlns="http://www.w3.org/2000/svg"
 width="16.000000pt" height="16.000000pt" viewBox="0 0 16.000000 16.000000"
 preserveAspectRatio="xMidYMid meet">
<metadata>
Created by potrace 1.11, written by Peter Selinger 2001-2013
</metadata>
<g transform="translate(0.000000,16.000000) scale(0.100000,-0.100000)"
fill="#000000" stroke="none">
<path d="M19 138 c0 -7 -3 -35 -5 -62 -5 -53 3 -66 44 -66 25 0 28 10 10 29
-11 11 -10 13 5 7 10 -3 23 -6 28 -6 4 0 6 -7 3 -15 -8 -21 9 -19 29 3 22 24
22 62 1 62 -12 0 -14 7 -9 30 4 19 3 30 -4 30 -6 0 -11 -9 -11 -19 0 -26 -11
-32 -46 -22 -19 5 -28 13 -26 24 2 10 -2 17 -8 17 -5 0 -10 -6 -11 -12z m58
-44 c-3 -3 -12 -4 -19 -1 -8 3 -5 6 6 6 11 1 17 -2 13 -5z m33 -25 c0 -5 -7
-9 -15 -9 -15 0 -20 12 -9 23 8 8 24 -1 24 -14z"/>
</g>
</svg>
