<?xml version="1.0" standalone="no"?>
<!DOCTYPE svg PUBLIC "-//W3C//DTD SVG 20010904//EN"
 "http://www.w3.org/TR/2001/REC-SVG-20010904/DTD/svg10.dtd">
<svg version="1.0" xmlns="http://www.w3.org/2000/svg"
 width="16.000000pt" height="16.000000pt" viewBox="0 0 16.000000 16.000000"
 preserveAspectRatio="xMidYMid meet">
<metadata>
Created by potrace 1.11, written by Peter Selinger 2001-2013
</metadata>
<g transform="translate(0.000000,16.000000) scale(0.100000,-0.100000)"
fill="#000000" stroke="none">
<path d="M50 141 c0 -15 30 -41 46 -41 8 0 14 4 14 9 0 5 3 16 6 25 4 11 1 16
-11 16 -11 0 -15 -5 -11 -15 3 -9 0 -15 -9 -15 -9 0 -12 6 -9 15 4 9 0 15 -10
15 -9 0 -16 -4 -16 -9z"/>
<path d="M10 126 c0 -8 6 -17 13 -19 10 -4 10 -6 0 -6 -7 -1 -13 -10 -13 -22
0 -15 5 -19 15 -15 8 3 15 1 15 -4 0 -6 -7 -10 -15 -10 -8 0 -15 -9 -15 -20 0
-11 5 -20 10 -20 6 0 10 7 10 15 0 8 5 15 10 15 6 0 10 -7 10 -15 0 -8 5 -15
10 -15 6 0 10 8 10 17 0 15 2 14 15 -3 9 -12 14 -14 15 -6 0 8 -13 27 -30 43
-16 16 -29 33 -30 37 -2 34 -30 60 -30 28z"/>
<path d="M130 25 c-8 -9 -8 -15 -2 -15 12 0 26 19 19 26 -2 2 -10 -2 -17 -11z"/>
</g>
</svg>
