<?xml version="1.0" standalone="no"?>
<!DOCTYPE svg PUBLIC "-//W3C//DTD SVG 20010904//EN"
 "http://www.w3.org/TR/2001/REC-SVG-20010904/DTD/svg10.dtd">
<svg version="1.0" xmlns="http://www.w3.org/2000/svg"
 width="16.000000pt" height="16.000000pt" viewBox="0 0 16.000000 16.000000"
 preserveAspectRatio="xMidYMid meet">
<metadata>
Created by potrace 1.11, written by Peter Selinger 2001-2013
</metadata>
<g transform="translate(0.000000,16.000000) scale(0.100000,-0.100000)"
fill="#000000" stroke="none">
<path d="M12 109 c0 -29 4 -39 13 -35 14 5 29 -20 20 -34 -3 -5 -12 -7 -20 -3
-8 3 -15 1 -15 -5 0 -11 23 -22 46 -22 11 0 13 6 9 20 -6 20 9 50 25 50 12 0
19 -39 9 -46 -5 -3 -9 -10 -9 -15 0 -15 53 -6 58 10 3 10 0 12 -12 8 -10 -4
-16 -1 -16 8 0 8 7 15 15 15 8 0 15 5 15 10 0 6 -4 10 -10 10 -6 0 -6 9 0 26
13 32 12 34 -2 34 -6 0 -8 -3 -5 -6 9 -9 -11 -44 -25 -44 -6 0 -8 11 -4 30 3
17 1 30 -4 30 -6 0 -10 -6 -10 -14 0 -7 -7 -20 -17 -27 -15 -13 -16 -11 -9 14
5 21 3 27 -9 27 -9 0 -15 -7 -13 -16 2 -10 -3 -19 -11 -22 -9 -3 -11 1 -6 17
3 12 2 21 -4 21 -5 0 -9 -18 -9 -41z"/>
</g>
</svg>
