<?xml version="1.0" standalone="no"?>
<!DOCTYPE svg PUBLIC "-//W3C//DTD SVG 20010904//EN"
 "http://www.w3.org/TR/2001/REC-SVG-20010904/DTD/svg10.dtd">
<svg version="1.0" xmlns="http://www.w3.org/2000/svg"
 width="16.000000pt" height="16.000000pt" viewBox="0 0 16.000000 16.000000"
 preserveAspectRatio="xMidYMid meet">
<metadata>
Created by potrace 1.11, written by Peter Selinger 2001-2013
</metadata>
<g transform="translate(0.000000,16.000000) scale(0.100000,-0.100000)"
fill="#000000" stroke="none">
<path d="M18 133 c-10 -104 2 -169 16 -85 5 33 9 38 33 37 26 0 28 -3 25 -38
-2 -22 1 -37 7 -37 6 0 11 13 11 29 0 41 9 61 26 54 9 -3 14 1 14 12 0 12 -5
15 -21 10 -15 -5 -22 -2 -26 14 -7 28 -43 28 -43 0 0 -12 -5 -19 -12 -16 -7 2
-12 11 -10 21 2 9 -2 16 -8 16 -5 0 -11 -8 -12 -17z m72 -18 c0 -8 -4 -15 -10
-15 -5 0 -10 7 -10 15 0 8 5 15 10 15 6 0 10 -7 10 -15z"/>
<path d="M130 140 c0 -5 5 -10 10 -10 6 0 10 5 10 10 0 6 -4 10 -10 10 -5 0
-10 -4 -10 -10z"/>
<path d="M120 25 c0 -8 7 -15 15 -15 8 0 15 7 15 15 0 8 -7 15 -15 15 -8 0
-15 -7 -15 -15z"/>
</g>
</svg>
