<?xml version="1.0" standalone="no"?>
<!DOCTYPE svg PUBLIC "-//W3C//DTD SVG 20010904//EN"
 "http://www.w3.org/TR/2001/REC-SVG-20010904/DTD/svg10.dtd">
<svg version="1.0" xmlns="http://www.w3.org/2000/svg"
 width="16.000000pt" height="16.000000pt" viewBox="0 0 16.000000 16.000000"
 preserveAspectRatio="xMidYMid meet">
<metadata>
Created by potrace 1.11, written by Peter Selinger 2001-2013
</metadata>
<g transform="translate(0.000000,16.000000) scale(0.100000,-0.100000)"
fill="#000000" stroke="none">
<path d="M10 141 c0 -5 10 -12 23 -16 l22 -8 -22 -4 c-28 -5 -30 -23 -4 -23
23 0 35 -15 25 -32 -5 -8 -11 -5 -20 7 -18 24 -27 13 -20 -22 7 -28 9 -29 69
-29 l62 0 -40 11 c-22 7 -40 17 -39 23 1 7 2 17 3 22 2 13 61 13 61 -1 0 -5 5
-7 10 -4 6 3 10 24 10 46 0 35 -3 39 -25 39 -26 0 -35 -15 -13 -22 15 -5 1
-28 -17 -28 -7 0 -22 11 -33 25 -19 24 -52 34 -52 16z"/>
</g>
</svg>
