<?xml version="1.0" standalone="no"?>
<!DOCTYPE svg PUBLIC "-//W3C//DTD SVG 20010904//EN"
 "http://www.w3.org/TR/2001/REC-SVG-20010904/DTD/svg10.dtd">
<svg version="1.0" xmlns="http://www.w3.org/2000/svg"
 width="16.000000pt" height="16.000000pt" viewBox="0 0 16.000000 16.000000"
 preserveAspectRatio="xMidYMid meet">
<metadata>
Created by potrace 1.11, written by Peter Selinger 2001-2013
</metadata>
<g transform="translate(0.000000,16.000000) scale(0.100000,-0.100000)"
fill="#000000" stroke="none">
<path d="M10 140 c0 -5 7 -13 16 -18 16 -9 16 -12 0 -42 -20 -41 -20 -56 0
-64 30 -11 39 -6 58 34 18 36 21 39 36 25 25 -22 28 -19 27 27 l-2 42 -67 2
c-38 1 -68 -2 -68 -6z m60 -66 c0 -13 -21 -44 -30 -44 -14 0 -12 24 2 38 13
13 28 16 28 6z"/>
<path d="M98 39 c-29 -16 -21 -30 14 -26 21 2 34 10 36 20 4 19 -23 22 -50 6z"/>
</g>
</svg>
