<?xml version="1.0" standalone="no"?>
<!DOCTYPE svg PUBLIC "-//W3C//DTD SVG 20010904//EN"
 "http://www.w3.org/TR/2001/REC-SVG-20010904/DTD/svg10.dtd">
<svg version="1.0" xmlns="http://www.w3.org/2000/svg"
 width="16.000000pt" height="16.000000pt" viewBox="0 0 16.000000 16.000000"
 preserveAspectRatio="xMidYMid meet">
<metadata>
Created by potrace 1.11, written by Peter Selinger 2001-2013
</metadata>
<g transform="translate(0.000000,16.000000) scale(0.100000,-0.100000)"
fill="#000000" stroke="none">
<path d="M46 138 c3 -4 18 -8 34 -8 33 0 66 -39 56 -65 -8 -23 -26 -18 -26 8
0 18 -2 19 -10 7 -9 -13 -10 -13 -11 0 0 9 -4 7 -11 -7 -12 -25 -28 -29 -46
-11 -6 6 -15 8 -19 3 -5 -4 -2 -10 5 -12 6 -3 12 -13 12 -24 0 -12 7 -19 20
-19 11 0 20 6 20 13 0 7 9 13 20 13 11 0 20 -6 20 -13 0 -7 9 -13 20 -13 17 0
20 7 20 48 0 58 -27 90 -77 89 -18 0 -30 -4 -27 -9z"/>
</g>
</svg>
