<?xml version="1.0" standalone="no"?>
<!DOCTYPE svg PUBLIC "-//W3C//DTD SVG 20010904//EN"
 "http://www.w3.org/TR/2001/REC-SVG-20010904/DTD/svg10.dtd">
<svg version="1.0" xmlns="http://www.w3.org/2000/svg"
 width="16.000000pt" height="16.000000pt" viewBox="0 0 16.000000 16.000000"
 preserveAspectRatio="xMidYMid meet">
<metadata>
Created by potrace 1.11, written by Peter Selinger 2001-2013
</metadata>
<g transform="translate(0.000000,16.000000) scale(0.100000,-0.100000)"
fill="#000000" stroke="none">
<path d="M50 143 c1 -19 18 -28 58 -28 33 0 42 4 42 18 0 20 -8 21 -44 7 -17
-6 -26 -6 -26 0 0 6 -7 10 -15 10 -8 0 -15 -3 -15 -7z"/>
<path d="M19 120 c-1 -3 -2 -17 -3 -33 -2 -23 0 -25 12 -13 11 10 12 18 3 32
-6 11 -11 17 -12 14z"/>
<path d="M72 84 c-14 -10 -22 -25 -22 -45 0 -26 3 -29 30 -29 20 0 30 5 30 15
0 8 4 15 10 15 5 0 7 -7 4 -15 -4 -10 0 -15 10 -15 22 0 17 38 -9 68 -23 26
-24 26 -53 6z m38 -2 c0 -14 -39 -46 -47 -39 -3 4 2 16 12 27 19 21 35 26 35
12z"/>
</g>
</svg>
