<?xml version="1.0" standalone="no"?>
<!DOCTYPE svg PUBLIC "-//W3C//DTD SVG 20010904//EN"
 "http://www.w3.org/TR/2001/REC-SVG-20010904/DTD/svg10.dtd">
<svg version="1.0" xmlns="http://www.w3.org/2000/svg"
 width="16.000000pt" height="16.000000pt" viewBox="0 0 16.000000 16.000000"
 preserveAspectRatio="xMidYMid meet">
<metadata>
Created by potrace 1.11, written by Peter Selinger 2001-2013
</metadata>
<g transform="translate(0.000000,16.000000) scale(0.100000,-0.100000)"
fill="#000000" stroke="none">
<path d="M20 140 c0 -6 7 -10 15 -10 8 0 18 0 22 -1 4 0 9 3 10 8 2 5 -8 10
-22 11 -14 1 -25 -3 -25 -8z"/>
<path d="M133 134 c3 -3 1 -18 -4 -32 -6 -15 -7 -43 -4 -62 7 -34 7 -34 17
-10 6 16 6 26 -1 28 -6 2 -6 15 0 35 12 41 11 47 -3 47 -6 0 -9 -3 -5 -6z"/>
<path d="M10 88 c0 -4 6 -8 13 -8 8 0 7 -3 -3 -10 -8 -5 -11 -12 -7 -16 4 -4
12 -3 19 4 8 8 17 8 31 0 20 -10 40 5 34 27 -4 12 -87 15 -87 3z m80 -8 c0 -5
-4 -10 -10 -10 -5 0 -10 5 -10 10 0 6 5 10 10 10 6 0 10 -4 10 -10z"/>
<path d="M20 18 c0 -5 20 -8 45 -8 25 0 45 5 45 10 0 6 -19 10 -45 8 -25 -2
-45 -6 -45 -10z"/>
</g>
</svg>
