<?xml version="1.0" standalone="no"?>
<!DOCTYPE svg PUBLIC "-//W3C//DTD SVG 20010904//EN"
 "http://www.w3.org/TR/2001/REC-SVG-20010904/DTD/svg10.dtd">
<svg version="1.0" xmlns="http://www.w3.org/2000/svg"
 width="16.000000pt" height="16.000000pt" viewBox="0 0 16.000000 16.000000"
 preserveAspectRatio="xMidYMid meet">
<metadata>
Created by potrace 1.11, written by Peter Selinger 2001-2013
</metadata>
<g transform="translate(0.000000,16.000000) scale(0.100000,-0.100000)"
fill="#000000" stroke="none">
<path d="M10 136 c0 -7 9 -16 20 -19 12 -3 20 -14 20 -26 0 -17 6 -21 29 -21
35 0 46 13 32 37 -9 16 -10 16 -11 2 0 -9 -7 -20 -16 -23 -26 -10 -28 0 -4 24
28 28 13 48 -20 28 -18 -10 -24 -10 -27 0 -6 16 -23 15 -23 -2z"/>
<path d="M130 45 c0 -19 4 -35 9 -35 5 0 9 16 9 35 0 19 -4 35 -9 35 -5 0 -9
-16 -9 -35z"/>
<path d="M60 21 c0 -5 11 -8 25 -8 14 0 25 3 25 8 0 5 -11 9 -25 9 -14 0 -25
-4 -25 -9z"/>
</g>
</svg>
