<?xml version="1.0" standalone="no"?>
<!DOCTYPE svg PUBLIC "-//W3C//DTD SVG 20010904//EN"
 "http://www.w3.org/TR/2001/REC-SVG-20010904/DTD/svg10.dtd">
<svg version="1.0" xmlns="http://www.w3.org/2000/svg"
 width="16.000000pt" height="16.000000pt" viewBox="0 0 16.000000 16.000000"
 preserveAspectRatio="xMidYMid meet">
<metadata>
Created by potrace 1.11, written by Peter Selinger 2001-2013
</metadata>
<g transform="translate(0.000000,16.000000) scale(0.100000,-0.100000)"
fill="#000000" stroke="none">
<path d="M13 134 c-3 -9 0 -20 7 -24 8 -5 9 -9 1 -14 -15 -10 -14 -29 1 -24
19 7 29 78 11 78 -7 0 -16 -7 -20 -16z"/>
<path d="M125 130 c4 -14 2 -20 -9 -20 -8 0 -16 -12 -19 -27 -8 -45 -6 -73 4
-73 5 0 9 9 9 21 0 16 4 19 20 14 17 -5 20 -2 20 27 0 43 -10 78 -22 78 -5 0
-6 -9 -3 -20z"/>
<path d="M17 43 c-7 -11 10 -40 18 -31 4 4 3 14 -3 24 -5 9 -12 12 -15 7z"/>
</g>
</svg>
