<?xml version="1.0" standalone="no"?>
<!DOCTYPE svg PUBLIC "-//W3C//DTD SVG 20010904//EN"
 "http://www.w3.org/TR/2001/REC-SVG-20010904/DTD/svg10.dtd">
<svg version="1.0" xmlns="http://www.w3.org/2000/svg"
 width="16.000000pt" height="16.000000pt" viewBox="0 0 16.000000 16.000000"
 preserveAspectRatio="xMidYMid meet">
<metadata>
Created by potrace 1.11, written by Peter Selinger 2001-2013
</metadata>
<g transform="translate(0.000000,16.000000) scale(0.100000,-0.100000)"
fill="#000000" stroke="none">
<path d="M10 135 c0 -9 6 -12 15 -9 19 8 19 24 0 24 -8 0 -15 -7 -15 -15z"/>
<path d="M53 123 c-7 -15 -13 -32 -13 -39 0 -6 -7 -14 -15 -18 -16 -6 -21 -46
-5 -46 5 0 7 7 4 15 -9 21 10 19 31 -5 10 -11 29 -20 42 -20 33 0 24 24 -10
28 -36 4 -43 35 -18 71 24 34 26 41 9 41 -7 0 -19 -12 -25 -27z"/>
<path d="M105 133 c4 -10 10 -31 14 -47 11 -52 32 -44 28 11 -2 42 -6 48 -26
51 -20 3 -22 1 -16 -15z"/>
</g>
</svg>
