<?xml version="1.0" standalone="no"?>
<!DOCTYPE svg PUBLIC "-//W3C//DTD SVG 20010904//EN"
 "http://www.w3.org/TR/2001/REC-SVG-20010904/DTD/svg10.dtd">
<svg version="1.0" xmlns="http://www.w3.org/2000/svg"
 width="16.000000pt" height="16.000000pt" viewBox="0 0 16.000000 16.000000"
 preserveAspectRatio="xMidYMid meet">
<metadata>
Created by potrace 1.11, written by Peter Selinger 2001-2013
</metadata>
<g transform="translate(0.000000,16.000000) scale(0.100000,-0.100000)"
fill="#000000" stroke="none">
<path d="M54 134 c7 -22 -12 -57 -21 -36 -7 17 -23 15 -23 -3 0 -8 7 -15 15
-15 10 0 15 -11 15 -35 0 -19 4 -35 9 -35 5 0 8 15 6 33 -4 56 17 80 29 32 7
-29 24 -33 33 -7 4 9 12 21 20 25 15 9 18 47 3 47 -5 0 -10 -4 -10 -10 0 -5
-13 -10 -30 -10 -17 0 -29 5 -27 11 1 6 -4 14 -12 16 -9 4 -11 0 -7 -13z m66
-28 c0 -11 -19 -15 -25 -6 -3 5 1 10 9 10 9 0 16 -2 16 -4z"/>
</g>
</svg>
