<?xml version="1.0" standalone="no"?>
<!DOCTYPE svg PUBLIC "-//W3C//DTD SVG 20010904//EN"
 "http://www.w3.org/TR/2001/REC-SVG-20010904/DTD/svg10.dtd">
<svg version="1.0" xmlns="http://www.w3.org/2000/svg"
 width="16.000000pt" height="16.000000pt" viewBox="0 0 16.000000 16.000000"
 preserveAspectRatio="xMidYMid meet">
<metadata>
Created by potrace 1.11, written by Peter Selinger 2001-2013
</metadata>
<g transform="translate(0.000000,16.000000) scale(0.100000,-0.100000)"
fill="#000000" stroke="none">
<path d="M30 125 c0 -14 -4 -25 -10 -25 -5 0 -10 -6 -10 -12 1 -17 40 31 40
48 0 8 -4 14 -10 14 -5 0 -10 -11 -10 -25z"/>
<path d="M97 144 c-9 -9 4 -35 14 -28 5 3 9 2 8 -3 -4 -22 2 -70 11 -83 15
-23 23 -4 8 20 -10 18 -10 24 0 27 6 3 12 20 12 39 0 29 -3 34 -23 34 -13 0
-26 -3 -30 -6z"/>
<path d="M48 58 c-2 -13 -9 -23 -17 -23 -8 0 -16 -5 -18 -11 -2 -6 10 -10 30
-10 32 1 34 2 26 29 -5 16 -4 25 2 22 5 -4 9 -1 9 4 0 21 -29 11 -32 -11z"/>
</g>
</svg>
