<?xml version="1.0" standalone="no"?>
<!DOCTYPE svg PUBLIC "-//W3C//DTD SVG 20010904//EN"
 "http://www.w3.org/TR/2001/REC-SVG-20010904/DTD/svg10.dtd">
<svg version="1.0" xmlns="http://www.w3.org/2000/svg"
 width="16.000000pt" height="16.000000pt" viewBox="0 0 16.000000 16.000000"
 preserveAspectRatio="xMidYMid meet">
<metadata>
Created by potrace 1.11, written by Peter Selinger 2001-2013
</metadata>
<g transform="translate(0.000000,16.000000) scale(0.100000,-0.100000)"
fill="#000000" stroke="none">
<path d="M27 132 c-16 -18 -20 -112 -4 -112 5 0 6 4 3 9 -10 15 20 45 39 38
12 -5 15 -14 11 -32 -5 -19 -2 -25 9 -25 11 0 14 6 9 24 -3 13 -1 33 5 45 6
11 9 32 5 46 -5 19 -13 25 -34 25 -15 0 -34 -8 -43 -18z m43 -32 c0 -11 -4
-20 -9 -20 -14 0 -23 18 -16 30 10 17 25 11 25 -10z"/>
<path d="M110 141 c0 -12 29 -35 36 -28 11 10 -5 37 -21 37 -8 0 -15 -4 -15
-9z"/>
<path d="M120 35 c-7 -9 -10 -18 -7 -21 10 -11 37 5 37 21 0 19 -14 19 -30 0z"/>
</g>
</svg>
