<?xml version="1.0" standalone="no"?>
<!DOCTYPE svg PUBLIC "-//W3C//DTD SVG 20010904//EN"
 "http://www.w3.org/TR/2001/REC-SVG-20010904/DTD/svg10.dtd">
<svg version="1.0" xmlns="http://www.w3.org/2000/svg"
 width="16.000000pt" height="16.000000pt" viewBox="0 0 16.000000 16.000000"
 preserveAspectRatio="xMidYMid meet">
<metadata>
Created by potrace 1.11, written by Peter Selinger 2001-2013
</metadata>
<g transform="translate(0.000000,16.000000) scale(0.100000,-0.100000)"
fill="#000000" stroke="none">
<path d="M10 134 c0 -9 5 -14 12 -12 18 6 21 28 4 28 -9 0 -16 -7 -16 -16z"/>
<path d="M98 113 c-3 -38 -3 -38 -44 -37 -41 1 -42 0 -42 -33 0 -22 5 -33 14
-33 8 0 14 4 14 9 0 16 45 20 67 6 26 -17 33 -19 33 -6 0 5 -9 11 -20 14 -11
3 -20 11 -20 17 0 8 9 10 25 6 14 -4 25 -2 25 4 0 5 -4 10 -9 10 -4 0 -8 17
-7 37 1 28 -3 38 -16 41 -13 2 -17 -5 -20 -35z"/>
<path d="M40 105 c0 -16 27 -32 37 -21 7 7 -16 36 -28 36 -5 0 -9 -7 -9 -15z"/>
</g>
</svg>
