<?xml version="1.0" standalone="no"?>
<!DOCTYPE svg PUBLIC "-//W3C//DTD SVG 20010904//EN"
 "http://www.w3.org/TR/2001/REC-SVG-20010904/DTD/svg10.dtd">
<svg version="1.0" xmlns="http://www.w3.org/2000/svg"
 width="16.000000pt" height="16.000000pt" viewBox="0 0 16.000000 16.000000"
 preserveAspectRatio="xMidYMid meet">
<metadata>
Created by potrace 1.11, written by Peter Selinger 2001-2013
</metadata>
<g transform="translate(0.000000,16.000000) scale(0.100000,-0.100000)"
fill="#000000" stroke="none">
<path d="M46 125 c-4 -14 -13 -25 -21 -25 -8 0 -15 -7 -15 -16 0 -10 6 -14 15
-10 21 8 19 -24 -2 -40 -10 -7 -15 -16 -11 -19 14 -14 35 4 41 34 6 27 11 31
39 32 18 1 38 1 43 0 6 0 12 13 13 29 3 35 -8 39 -26 10 -7 -11 -23 -20 -37
-20 -28 0 -34 15 -10 24 21 8 19 26 -4 26 -12 0 -21 -9 -25 -25z"/>
<path d="M106 35 c-11 -8 -16 -18 -11 -22 4 -5 10 -2 12 5 3 6 11 12 18 12 8
0 17 5 20 10 9 15 -17 11 -39 -5z"/>
</g>
</svg>
