<?xml version="1.0" standalone="no"?>
<!DOCTYPE svg PUBLIC "-//W3C//DTD SVG 20010904//EN"
 "http://www.w3.org/TR/2001/REC-SVG-20010904/DTD/svg10.dtd">
<svg version="1.0" xmlns="http://www.w3.org/2000/svg"
 width="16.000000pt" height="16.000000pt" viewBox="0 0 16.000000 16.000000"
 preserveAspectRatio="xMidYMid meet">
<metadata>
Created by potrace 1.11, written by Peter Selinger 2001-2013
</metadata>
<g transform="translate(0.000000,16.000000) scale(0.100000,-0.100000)"
fill="#000000" stroke="none">
<path d="M10 140 c0 -5 9 -10 20 -10 26 0 26 -20 0 -27 -11 -3 -20 -10 -20
-15 0 -5 8 -7 19 -3 25 8 45 -19 37 -50 -5 -20 -3 -25 13 -25 20 0 37 42 25
62 -5 7 1 9 20 4 15 -4 26 -2 26 4 0 5 -10 11 -22 12 -49 3 -53 4 -50 18 2 8
8 17 13 18 5 2 9 8 9 13 0 14 -27 11 -34 -3 -5 -10 -7 -10 -12 0 -7 14 -44 16
-44 2z"/>
<path d="M18 33 c7 -3 16 -2 19 1 4 3 -2 6 -13 5 -11 0 -14 -3 -6 -6z"/>
</g>
</svg>
