<?xml version="1.0" standalone="no"?>
<!DOCTYPE svg PUBLIC "-//W3C//DTD SVG 20010904//EN"
 "http://www.w3.org/TR/2001/REC-SVG-20010904/DTD/svg10.dtd">
<svg version="1.0" xmlns="http://www.w3.org/2000/svg"
 width="16.000000pt" height="16.000000pt" viewBox="0 0 16.000000 16.000000"
 preserveAspectRatio="xMidYMid meet">
<metadata>
Created by potrace 1.11, written by Peter Selinger 2001-2013
</metadata>
<g transform="translate(0.000000,16.000000) scale(0.100000,-0.100000)"
fill="#000000" stroke="none">
<path d="M15 140 c-3 -6 5 -10 19 -10 14 0 28 5 31 10 3 6 -5 10 -19 10 -14 0
-28 -4 -31 -10z"/>
<path d="M109 123 c-1 -15 -1 -36 0 -45 1 -10 -1 -18 -4 -18 -10 0 -69 43 -73
52 -6 14 -22 9 -22 -7 0 -8 5 -15 11 -15 8 0 8 -4 0 -14 -9 -11 -7 -15 10 -19
24 -7 20 -34 -5 -29 -9 2 -16 -2 -16 -8 0 -6 12 -10 27 -8 23 2 28 8 26 28 -2
25 -2 25 10 -3 14 -34 29 -30 41 11 5 18 15 32 22 32 8 0 14 5 14 11 0 6 -7 9
-15 5 -9 -3 -15 0 -15 9 0 9 6 12 16 8 12 -4 15 -1 12 13 -2 10 -11 20 -21 22
-13 3 -17 -4 -18 -25z"/>
<path d="M122 34 c1 -9 9 -19 16 -22 9 -3 13 2 10 14 -1 9 -9 19 -16 22 -9 3
-13 -2 -10 -14z"/>
</g>
</svg>
