<?xml version="1.0" standalone="no"?>
<!DOCTYPE svg PUBLIC "-//W3C//DTD SVG 20010904//EN"
 "http://www.w3.org/TR/2001/REC-SVG-20010904/DTD/svg10.dtd">
<svg version="1.0" xmlns="http://www.w3.org/2000/svg"
 width="16.000000pt" height="16.000000pt" viewBox="0 0 16.000000 16.000000"
 preserveAspectRatio="xMidYMid meet">
<metadata>
Created by potrace 1.11, written by Peter Selinger 2001-2013
</metadata>
<g transform="translate(0.000000,16.000000) scale(0.100000,-0.100000)"
fill="#000000" stroke="none">
<path d="M33 134 c-3 -8 -2 -25 1 -39 5 -18 2 -25 -9 -25 -8 0 -15 -8 -15 -19
0 -22 52 -36 80 -21 25 14 30 13 24 -5 -4 -9 0 -15 10 -15 19 0 21 14 3 28 -8
7 -29 9 -52 5 -37 -6 -38 -5 -32 18 4 13 7 34 7 46 0 18 6 22 28 22 76 0 86
15 11 18 -35 1 -52 -3 -56 -13z"/>
<path d="M127 96 c-6 -14 0 -26 13 -26 3 0 6 9 7 20 2 23 -12 27 -20 6z"/>
</g>
</svg>
