<?xml version="1.0" standalone="no"?>
<!DOCTYPE svg PUBLIC "-//W3C//DTD SVG 20010904//EN"
 "http://www.w3.org/TR/2001/REC-SVG-20010904/DTD/svg10.dtd">
<svg version="1.0" xmlns="http://www.w3.org/2000/svg"
 width="16.000000pt" height="16.000000pt" viewBox="0 0 16.000000 16.000000"
 preserveAspectRatio="xMidYMid meet">
<metadata>
Created by potrace 1.11, written by Peter Selinger 2001-2013
</metadata>
<g transform="translate(0.000000,16.000000) scale(0.100000,-0.100000)"
fill="#000000" stroke="none">
<path d="M14 134 c3 -9 6 -18 6 -20 0 -2 5 -4 10 -4 6 0 10 9 10 20 0 12 -7
20 -16 20 -11 0 -14 -5 -10 -16z"/>
<path d="M50 141 c0 -5 5 -13 10 -16 6 -3 10 -13 10 -22 0 -12 -3 -13 -13 -4
-18 14 -52 -9 -44 -30 4 -10 6 -9 6 4 1 15 6 17 32 12 30 -7 30 -6 27 26 -4
29 -28 56 -28 30z"/>
<path d="M90 141 c0 -10 24 -21 46 -21 8 0 14 5 14 11 0 6 -9 8 -20 4 -11 -4
-20 -2 -20 4 0 6 -4 11 -10 11 -5 0 -10 -4 -10 -9z"/>
<path d="M125 79 c-9 -14 3 -59 15 -59 13 0 13 13 -2 28 -8 8 -8 15 2 27 8 9
8 15 2 15 -6 0 -14 -5 -17 -11z"/>
<path d="M70 21 c0 -6 9 -9 20 -8 11 1 20 5 20 9 0 4 -9 8 -20 8 -11 0 -20 -4
-20 -9z"/>
</g>
</svg>
