<?xml version="1.0" standalone="no"?>
<!DOCTYPE svg PUBLIC "-//W3C//DTD SVG 20010904//EN"
 "http://www.w3.org/TR/2001/REC-SVG-20010904/DTD/svg10.dtd">
<svg version="1.0" xmlns="http://www.w3.org/2000/svg"
 width="16.000000pt" height="16.000000pt" viewBox="0 0 16.000000 16.000000"
 preserveAspectRatio="xMidYMid meet">
<metadata>
Created by potrace 1.11, written by Peter Selinger 2001-2013
</metadata>
<g transform="translate(0.000000,16.000000) scale(0.100000,-0.100000)"
fill="#000000" stroke="none">
<path d="M100 140 c20 -13 43 -13 35 0 -3 6 -16 10 -28 10 -18 0 -19 -2 -7
-10z"/>
<path d="M10 97 c0 -6 15 -7 36 -4 25 4 34 2 31 -6 -2 -7 -18 -11 -36 -11 -44
3 -39 -14 7 -18 46 -4 44 -23 -3 -22 -51 2 -43 -12 11 -20 88 -12 89 -11 90
39 1 35 -2 45 -13 41 -7 -3 -13 -2 -13 2 0 5 -25 9 -55 9 -30 0 -55 -4 -55
-10z m97 -49 c-3 -7 -5 -2 -5 12 0 14 2 19 5 13 2 -7 2 -19 0 -25z"/>
</g>
</svg>
