<?xml version="1.0" standalone="no"?>
<!DOCTYPE svg PUBLIC "-//W3C//DTD SVG 20010904//EN"
 "http://www.w3.org/TR/2001/REC-SVG-20010904/DTD/svg10.dtd">
<svg version="1.0" xmlns="http://www.w3.org/2000/svg"
 width="16.000000pt" height="16.000000pt" viewBox="0 0 16.000000 16.000000"
 preserveAspectRatio="xMidYMid meet">
<metadata>
Created by potrace 1.11, written by Peter Selinger 2001-2013
</metadata>
<g transform="translate(0.000000,16.000000) scale(0.100000,-0.100000)"
fill="#000000" stroke="none">
<path d="M23 135 c-15 -16 -17 -93 -4 -113 11 -18 67 -10 63 10 -1 9 5 21 13
28 12 10 18 10 30 0 9 -7 19 -10 22 -6 4 4 1 11 -6 15 -9 6 -10 11 -2 15 15
10 14 36 -2 36 -17 0 -77 -62 -77 -80 0 -11 -3 -11 -12 -2 -9 9 -7 17 9 34 25
26 41 78 25 78 -6 0 -12 -12 -14 -27 -4 -34 -38 -46 -38 -14 0 12 5 21 10 21
6 0 10 5 10 10 0 14 -13 12 -27 -5z"/>
<path d="M100 142 c0 -14 11 -21 26 -15 8 3 11 9 8 14 -7 11 -34 12 -34 1z"/>
</g>
</svg>
