<?xml version="1.0" standalone="no"?>
<!DOCTYPE svg PUBLIC "-//W3C//DTD SVG 20010904//EN"
 "http://www.w3.org/TR/2001/REC-SVG-20010904/DTD/svg10.dtd">
<svg version="1.0" xmlns="http://www.w3.org/2000/svg"
 width="16.000000pt" height="16.000000pt" viewBox="0 0 16.000000 16.000000"
 preserveAspectRatio="xMidYMid meet">
<metadata>
Created by potrace 1.11, written by Peter Selinger 2001-2013
</metadata>
<g transform="translate(0.000000,16.000000) scale(0.100000,-0.100000)"
fill="#000000" stroke="none">
<path d="M40 140 c0 -5 -7 -7 -15 -4 -9 4 -15 0 -15 -10 0 -19 9 -20 33 -2 19
15 22 26 7 26 -5 0 -10 -4 -10 -10z"/>
<path d="M115 134 c18 -13 35 -11 35 5 0 5 -12 9 -27 9 -25 0 -25 -1 -8 -14z"/>
<path d="M100 45 c0 -25 4 -30 25 -31 22 -2 25 2 25 31 0 29 -3 33 -25 31 -21
-1 -25 -6 -25 -31z"/>
<path d="M18 40 c2 -16 9 -30 14 -30 5 0 6 10 3 23 -11 35 -22 40 -17 7z"/>
</g>
</svg>
