<?xml version="1.0" standalone="no"?>
<!DOCTYPE svg PUBLIC "-//W3C//DTD SVG 20010904//EN"
 "http://www.w3.org/TR/2001/REC-SVG-20010904/DTD/svg10.dtd">
<svg version="1.0" xmlns="http://www.w3.org/2000/svg"
 width="16.000000pt" height="16.000000pt" viewBox="0 0 16.000000 16.000000"
 preserveAspectRatio="xMidYMid meet">
<metadata>
Created by potrace 1.11, written by Peter Selinger 2001-2013
</metadata>
<g transform="translate(0.000000,16.000000) scale(0.100000,-0.100000)"
fill="#000000" stroke="none">
<path d="M22 118 c-18 -51 -16 -96 6 -100 9 -2 23 3 30 12 8 8 11 10 8 3 -9
-17 15 -28 25 -12 6 11 11 11 21 1 14 -14 28 -16 28 -4 0 4 -10 12 -22 17 -33
15 -33 32 1 40 17 4 31 11 31 17 0 6 -10 8 -25 4 -32 -8 -75 3 -75 19 0 9 15
12 50 10 28 -1 50 2 50 6 0 5 -10 9 -22 9 -13 0 -39 3 -58 6 -33 5 -36 4 -48
-28z m48 -53 c-7 -8 -16 -15 -21 -15 -5 0 -9 7 -9 15 0 9 9 15 21 15 18 0 19
-2 9 -15z"/>
<path d="M125 60 c3 -5 10 -10 16 -10 5 0 9 5 9 10 0 6 -7 10 -16 10 -8 0 -12
-4 -9 -10z"/>
</g>
</svg>
