<?xml version="1.0" standalone="no"?>
<!DOCTYPE svg PUBLIC "-//W3C//DTD SVG 20010904//EN"
 "http://www.w3.org/TR/2001/REC-SVG-20010904/DTD/svg10.dtd">
<svg version="1.0" xmlns="http://www.w3.org/2000/svg"
 width="16.000000pt" height="16.000000pt" viewBox="0 0 16.000000 16.000000"
 preserveAspectRatio="xMidYMid meet">
<metadata>
Created by potrace 1.11, written by Peter Selinger 2001-2013
</metadata>
<g transform="translate(0.000000,16.000000) scale(0.100000,-0.100000)"
fill="#000000" stroke="none">
<path d="M70 144 c0 -8 71 -36 77 -30 3 3 -12 12 -32 20 -41 18 -45 18 -45 10z"/>
<path d="M14 98 c2 -24 4 -53 4 -65 2 -25 22 -32 22 -8 0 8 7 15 15 15 8 0 15
-7 15 -16 0 -13 3 -14 14 -5 10 8 16 9 21 1 3 -5 14 -10 25 -10 14 0 18 7 17
34 -1 36 -17 40 -17 5 0 -12 -5 -19 -12 -16 -7 2 -13 15 -13 28 -1 25 -15 28
-64 13 -21 -6 -22 -5 -14 11 11 19 6 55 -8 55 -4 0 -7 -19 -5 -42z m66 -38
c-24 -15 -37 -11 -16 5 11 8 22 12 25 9 3 -3 -1 -9 -9 -14z"/>
</g>
</svg>
