<?xml version="1.0" standalone="no"?>
<!DOCTYPE svg PUBLIC "-//W3C//DTD SVG 20010904//EN"
 "http://www.w3.org/TR/2001/REC-SVG-20010904/DTD/svg10.dtd">
<svg version="1.0" xmlns="http://www.w3.org/2000/svg"
 width="16.000000pt" height="16.000000pt" viewBox="0 0 16.000000 16.000000"
 preserveAspectRatio="xMidYMid meet">
<metadata>
Created by potrace 1.11, written by Peter Selinger 2001-2013
</metadata>
<g transform="translate(0.000000,16.000000) scale(0.100000,-0.100000)"
fill="#000000" stroke="none">
<path d="M20 138 c0 -6 3 -8 7 -5 11 12 33 -14 33 -40 0 -13 -11 -34 -25 -47
-26 -25 -31 -36 -15 -36 5 0 20 16 33 35 23 34 24 34 41 16 9 -10 14 -25 10
-35 -3 -9 -1 -16 5 -16 6 0 11 9 11 20 0 11 7 20 15 20 21 0 19 13 -5 28 -27
16 -26 35 1 27 17 -6 20 -3 17 16 -2 12 -9 25 -17 27 -10 3 -12 0 -8 -12 4
-10 1 -16 -8 -16 -8 0 -15 7 -15 15 0 8 -4 15 -10 15 -5 0 -10 -7 -10 -16 0
-14 -2 -14 -22 0 -27 19 -38 20 -38 4z"/>
<path d="M14 90 c0 -11 4 -20 8 -20 4 0 8 9 8 20 0 11 -4 20 -8 20 -4 0 -8 -9
-8 -20z"/>
</g>
</svg>
