<?xml version="1.0" standalone="no"?>
<!DOCTYPE svg PUBLIC "-//W3C//DTD SVG 20010904//EN"
 "http://www.w3.org/TR/2001/REC-SVG-20010904/DTD/svg10.dtd">
<svg version="1.0" xmlns="http://www.w3.org/2000/svg"
 width="16.000000pt" height="16.000000pt" viewBox="0 0 16.000000 16.000000"
 preserveAspectRatio="xMidYMid meet">
<metadata>
Created by potrace 1.11, written by Peter Selinger 2001-2013
</metadata>
<g transform="translate(0.000000,16.000000) scale(0.100000,-0.100000)"
fill="#000000" stroke="none">
<path d="M13 136 c2 -6 14 -10 25 -8 14 2 25 -3 29 -15 4 -10 16 -25 27 -34
21 -17 14 -44 -9 -35 -16 6 -41 -21 -30 -32 4 -4 10 -1 12 6 5 14 33 16 33 2
0 -5 11 -10 25 -10 27 0 35 24 10 34 -19 7 -19 26 0 26 8 0 15 9 15 20 0 11
-4 20 -9 20 -5 0 -7 9 -4 20 5 19 1 21 -61 19 -44 -1 -65 -6 -63 -13z"/>
<path d="M10 20 c0 -5 5 -10 10 -10 6 0 10 5 10 10 0 6 -4 10 -10 10 -5 0 -10
-4 -10 -10z"/>
</g>
</svg>
