<?xml version="1.0" standalone="no"?>
<!DOCTYPE svg PUBLIC "-//W3C//DTD SVG 20010904//EN"
 "http://www.w3.org/TR/2001/REC-SVG-20010904/DTD/svg10.dtd">
<svg version="1.0" xmlns="http://www.w3.org/2000/svg"
 width="16.000000pt" height="16.000000pt" viewBox="0 0 16.000000 16.000000"
 preserveAspectRatio="xMidYMid meet">
<metadata>
Created by potrace 1.11, written by Peter Selinger 2001-2013
</metadata>
<g transform="translate(0.000000,16.000000) scale(0.100000,-0.100000)"
fill="#000000" stroke="none">
<path d="M10 132 c0 -10 5 -23 12 -30 8 -8 8 -15 -3 -28 -11 -13 -11 -18 -2
-21 7 -3 13 -13 13 -24 0 -12 7 -19 18 -19 26 0 25 93 -1 98 -13 3 -16 9 -12
23 4 13 2 19 -9 19 -9 0 -16 -8 -16 -18z m47 -54 c-3 -8 -6 -5 -6 6 -1 11 2
17 5 13 3 -3 4 -12 1 -19z"/>
<path d="M124 134 c3 -9 6 -20 6 -25 0 -21 16 -7 18 16 1 17 -3 25 -14 25 -11
0 -14 -5 -10 -16z"/>
<path d="M80 20 c0 -5 5 -10 10 -10 6 0 10 5 10 10 0 6 -4 10 -10 10 -5 0 -10
-4 -10 -10z"/>
</g>
</svg>
