<?xml version="1.0" standalone="no"?>
<!DOCTYPE svg PUBLIC "-//W3C//DTD SVG 20010904//EN"
 "http://www.w3.org/TR/2001/REC-SVG-20010904/DTD/svg10.dtd">
<svg version="1.0" xmlns="http://www.w3.org/2000/svg"
 width="16.000000pt" height="16.000000pt" viewBox="0 0 16.000000 16.000000"
 preserveAspectRatio="xMidYMid meet">
<metadata>
Created by potrace 1.11, written by Peter Selinger 2001-2013
</metadata>
<g transform="translate(0.000000,16.000000) scale(0.100000,-0.100000)"
fill="#000000" stroke="none">
<path d="M90 141 c0 -5 7 -14 15 -21 8 -7 15 -22 15 -34 0 -32 11 -66 21 -66
5 0 9 7 9 15 0 8 -5 15 -11 15 -6 0 -8 11 -5 28 4 18 0 34 -13 50 -20 23 -31
28 -31 13z"/>
<path d="M10 95 c0 -12 6 -15 23 -11 l22 6 -22 -11 c-13 -7 -23 -20 -23 -31 0
-22 8 -22 34 -3 29 22 39 18 32 -10 -4 -14 -2 -25 4 -25 17 0 11 49 -9 69 -28
28 -61 36 -61 16z"/>
</g>
</svg>
