<?xml version="1.0" standalone="no"?>
<!DOCTYPE svg PUBLIC "-//W3C//DTD SVG 20010904//EN"
 "http://www.w3.org/TR/2001/REC-SVG-20010904/DTD/svg10.dtd">
<svg version="1.0" xmlns="http://www.w3.org/2000/svg"
 width="16.000000pt" height="16.000000pt" viewBox="0 0 16.000000 16.000000"
 preserveAspectRatio="xMidYMid meet">
<metadata>
Created by potrace 1.11, written by Peter Selinger 2001-2013
</metadata>
<g transform="translate(0.000000,16.000000) scale(0.100000,-0.100000)"
fill="#000000" stroke="none">
<path d="M33 136 c-18 -8 -23 -19 -23 -48 0 -33 3 -38 24 -38 13 0 29 7 36 15
16 19 50 20 50 1 0 -7 -7 -19 -15 -26 -19 -16 -19 -30 0 -30 8 0 15 7 15 15 0
8 7 15 16 15 19 0 16 44 -3 46 -7 1 -17 2 -23 3 -5 0 -10 8 -10 17 0 12 6 15
25 10 14 -4 25 -2 25 4 0 5 -9 10 -20 10 -11 0 -20 5 -20 10 0 13 -49 11 -77
-4z m47 -25 c0 -10 -24 -21 -43 -21 -7 0 -3 7 7 15 22 17 36 19 36 6z"/>
<path d="M130 19 c0 -5 5 -7 10 -4 6 3 10 8 10 11 0 2 -4 4 -10 4 -5 0 -10 -5
-10 -11z"/>
</g>
</svg>
