<?xml version="1.0" standalone="no"?>
<!DOCTYPE svg PUBLIC "-//W3C//DTD SVG 20010904//EN"
 "http://www.w3.org/TR/2001/REC-SVG-20010904/DTD/svg10.dtd">
<svg version="1.0" xmlns="http://www.w3.org/2000/svg"
 width="16.000000pt" height="16.000000pt" viewBox="0 0 16.000000 16.000000"
 preserveAspectRatio="xMidYMid meet">
<metadata>
Created by potrace 1.11, written by Peter Selinger 2001-2013
</metadata>
<g transform="translate(0.000000,16.000000) scale(0.100000,-0.100000)"
fill="#000000" stroke="none">
<path d="M15 140 c-3 -5 -1 -10 4 -10 6 0 11 5 11 10 0 6 -2 10 -4 10 -3 0 -8
-4 -11 -10z"/>
<path d="M66 135 c-11 -8 -28 -15 -38 -15 -10 0 -18 -7 -18 -15 0 -19 9 -19
32 2 14 13 21 14 30 5 9 -9 9 -12 -2 -12 -19 -1 -60 -35 -60 -49 0 -14 3 -14
34 0 26 12 76 5 76 -11 0 -6 -10 -5 -25 2 -19 8 -28 8 -40 -2 -25 -21 -17 -26
40 -28 51 -1 55 0 55 22 0 13 -10 31 -22 39 l-23 16 23 0 c24 1 31 21 7 21 -8
0 -20 9 -27 20 -15 24 -17 24 -42 5z"/>
<path d="M110 140 c0 -5 7 -10 15 -10 8 0 15 5 15 10 0 6 -7 10 -15 10 -8 0
-15 -4 -15 -10z"/>
</g>
</svg>
