<?xml version="1.0" standalone="no"?>
<!DOCTYPE svg PUBLIC "-//W3C//DTD SVG 20010904//EN"
 "http://www.w3.org/TR/2001/REC-SVG-20010904/DTD/svg10.dtd">
<svg version="1.0" xmlns="http://www.w3.org/2000/svg"
 width="16.000000pt" height="16.000000pt" viewBox="0 0 16.000000 16.000000"
 preserveAspectRatio="xMidYMid meet">
<metadata>
Created by potrace 1.11, written by Peter Selinger 2001-2013
</metadata>
<g transform="translate(0.000000,16.000000) scale(0.100000,-0.100000)"
fill="#000000" stroke="none">
<path d="M32 108 c-17 -8 -22 -19 -20 -37 4 -31 31 -31 62 -1 16 16 17 22 6
34 -14 18 -17 19 -48 4z m25 -35 c-21 -22 -32 -11 -15 16 8 13 16 17 22 11 7
-7 4 -16 -7 -27z"/>
<path d="M110 55 c-18 -19 -31 -37 -28 -41 7 -6 67 55 68 69 0 12 -5 9 -40
-28z"/>
</g>
</svg>
