<?xml version="1.0" standalone="no"?>
<!DOCTYPE svg PUBLIC "-//W3C//DTD SVG 20010904//EN"
 "http://www.w3.org/TR/2001/REC-SVG-20010904/DTD/svg10.dtd">
<svg version="1.0" xmlns="http://www.w3.org/2000/svg"
 width="16.000000pt" height="16.000000pt" viewBox="0 0 16.000000 16.000000"
 preserveAspectRatio="xMidYMid meet">
<metadata>
Created by potrace 1.11, written by Peter Selinger 2001-2013
</metadata>
<g transform="translate(0.000000,16.000000) scale(0.100000,-0.100000)"
fill="#000000" stroke="none">
<path d="M10 125 c0 -20 5 -25 26 -25 15 0 23 -4 19 -10 -4 -6 -15 -8 -25 -5
-15 5 -18 -1 -18 -35 -1 -39 0 -40 34 -40 38 0 41 6 19 37 -18 26 -7 37 48 47
20 4 37 12 37 18 0 5 -6 8 -14 5 -20 -8 -28 4 -15 20 9 10 5 13 -20 13 -21 0
-31 -5 -31 -15 0 -8 -9 -15 -20 -15 -13 0 -18 5 -14 15 4 9 0 15 -10 15 -10 0
-16 -9 -16 -25z"/>
<path d="M125 82 c-13 -9 -16 -72 -4 -72 5 0 9 9 9 20 0 11 5 20 10 20 6 0 10
9 10 20 0 21 -8 25 -25 12z"/>
</g>
</svg>
