<?xml version="1.0" standalone="no"?>
<!DOCTYPE svg PUBLIC "-//W3C//DTD SVG 20010904//EN"
 "http://www.w3.org/TR/2001/REC-SVG-20010904/DTD/svg10.dtd">
<svg version="1.0" xmlns="http://www.w3.org/2000/svg"
 width="16.000000pt" height="16.000000pt" viewBox="0 0 16.000000 16.000000"
 preserveAspectRatio="xMidYMid meet">
<metadata>
Created by potrace 1.11, written by Peter Selinger 2001-2013
</metadata>
<g transform="translate(0.000000,16.000000) scale(0.100000,-0.100000)"
fill="#000000" stroke="none">
<path d="M20 139 c0 -5 4 -8 9 -4 5 3 12 1 16 -5 3 -5 12 -10 18 -10 7 0 3 7
-7 15 -23 18 -36 19 -36 4z"/>
<path d="M77 118 c6 -33 2 -34 -49 -13 -11 4 -18 3 -18 -4 0 -6 8 -11 19 -11
29 0 47 -28 33 -51 -15 -24 -15 -32 0 -27 7 3 15 15 18 29 6 24 50 42 50 20 0
-25 16 -8 18 19 2 29 -10 40 -23 20 -3 -5 -13 -10 -21 -10 -13 0 -13 3 0 22
22 31 20 38 -9 38 -22 0 -24 -3 -18 -32z"/>
</g>
</svg>
