<?xml version="1.0" standalone="no"?>
<!DOCTYPE svg PUBLIC "-//W3C//DTD SVG 20010904//EN"
 "http://www.w3.org/TR/2001/REC-SVG-20010904/DTD/svg10.dtd">
<svg version="1.0" xmlns="http://www.w3.org/2000/svg"
 width="16.000000pt" height="16.000000pt" viewBox="0 0 16.000000 16.000000"
 preserveAspectRatio="xMidYMid meet">
<metadata>
Created by potrace 1.11, written by Peter Selinger 2001-2013
</metadata>
<g transform="translate(0.000000,16.000000) scale(0.100000,-0.100000)"
fill="#000000" stroke="none">
<path d="M13 135 c-3 -9 -3 -19 1 -22 7 -7 36 16 36 28 0 15 -30 10 -37 -6z"/>
<path d="M60 147 c0 -10 32 -67 41 -72 5 -4 9 -19 9 -36 0 -18 5 -29 14 -29 8
0 14 10 14 25 0 14 -4 25 -8 25 -13 0 -44 54 -43 73 1 9 -5 17 -13 17 -8 0
-14 -2 -14 -3z"/>
<path d="M100 143 c0 -12 38 -48 45 -41 3 2 -6 15 -20 28 -14 13 -25 19 -25
13z"/>
<path d="M10 35 c0 -8 5 -15 10 -15 6 0 10 5 10 12 0 6 6 3 14 -8 16 -21 32
-14 23 11 -8 20 -57 20 -57 0z"/>
</g>
</svg>
