<?xml version="1.0" standalone="no"?>
<!DOCTYPE svg PUBLIC "-//W3C//DTD SVG 20010904//EN"
 "http://www.w3.org/TR/2001/REC-SVG-20010904/DTD/svg10.dtd">
<svg version="1.0" xmlns="http://www.w3.org/2000/svg"
 width="16.000000pt" height="16.000000pt" viewBox="0 0 16.000000 16.000000"
 preserveAspectRatio="xMidYMid meet">
<metadata>
Created by potrace 1.11, written by Peter Selinger 2001-2013
</metadata>
<g transform="translate(0.000000,16.000000) scale(0.100000,-0.100000)"
fill="#000000" stroke="none">
<path d="M50 138 c0 -11 47 -10 55 1 3 5 -8 9 -25 9 -16 -1 -30 -5 -30 -10z"/>
<path d="M125 140 c3 -5 10 -10 16 -10 5 0 9 5 9 10 0 6 -7 10 -16 10 -8 0
-12 -4 -9 -10z"/>
<path d="M10 126 c0 -8 7 -16 15 -20 8 -3 15 -10 15 -15 0 -6 -7 -8 -15 -5 -9
4 -15 0 -15 -9 0 -9 10 -17 23 -19 16 -2 21 -9 20 -26 -2 -14 3 -22 13 -22 11
0 14 6 10 18 -5 15 -4 15 8 -2 11 -13 22 -17 41 -12 31 8 28 32 -3 28 -11 -2
-23 2 -27 8 -3 6 -10 8 -15 5 -5 -3 -19 15 -31 40 -21 44 -39 59 -39 31z"/>
<path d="M10 20 c0 -5 5 -10 10 -10 6 0 10 5 10 10 0 6 -4 10 -10 10 -5 0 -10
-4 -10 -10z"/>
</g>
</svg>
