<?xml version="1.0" standalone="no"?>
<!DOCTYPE svg PUBLIC "-//W3C//DTD SVG 20010904//EN"
 "http://www.w3.org/TR/2001/REC-SVG-20010904/DTD/svg10.dtd">
<svg version="1.0" xmlns="http://www.w3.org/2000/svg"
 width="16.000000pt" height="16.000000pt" viewBox="0 0 16.000000 16.000000"
 preserveAspectRatio="xMidYMid meet">
<metadata>
Created by potrace 1.11, written by Peter Selinger 2001-2013
</metadata>
<g transform="translate(0.000000,16.000000) scale(0.100000,-0.100000)"
fill="#000000" stroke="none">
<path d="M63 136 c3 -7 -1 -23 -9 -34 -8 -12 -10 -23 -5 -26 15 -10 6 -39 -15
-47 -17 -6 -15 -8 10 -14 20 -5 31 -4 37 6 6 10 9 11 9 2 0 -7 4 -13 8 -13 5
0 8 17 8 37 -1 47 17 55 25 13 11 -52 17 -44 15 22 -2 52 -5 64 -20 66 -14 3
-17 -1 -11 -17 4 -12 2 -21 -4 -21 -6 0 -11 9 -11 20 0 14 -7 20 -21 20 -14 0
-19 -5 -16 -14z m27 -67 c0 -6 -4 -7 -10 -4 -5 3 -10 11 -10 16 0 6 5 7 10 4
6 -3 10 -11 10 -16z"/>
<path d="M10 81 c0 -22 4 -31 13 -28 13 4 11 36 -4 52 -5 5 -9 -4 -9 -24z"/>
</g>
</svg>
