<?xml version="1.0" standalone="no"?>
<!DOCTYPE svg PUBLIC "-//W3C//DTD SVG 20010904//EN"
 "http://www.w3.org/TR/2001/REC-SVG-20010904/DTD/svg10.dtd">
<svg version="1.0" xmlns="http://www.w3.org/2000/svg"
 width="16.000000pt" height="16.000000pt" viewBox="0 0 16.000000 16.000000"
 preserveAspectRatio="xMidYMid meet">
<metadata>
Created by potrace 1.11, written by Peter Selinger 2001-2013
</metadata>
<g transform="translate(0.000000,16.000000) scale(0.100000,-0.100000)"
fill="#000000" stroke="none">
<path d="M115 130 c-6 -20 9 -50 25 -50 5 0 8 16 8 35 0 39 -22 49 -33 15z"/>
<path d="M10 107 c0 -7 22 -21 49 -31 27 -9 52 -24 55 -32 5 -12 -3 -15 -42
-12 -38 2 -47 6 -46 21 1 9 -3 17 -8 17 -5 0 -8 -12 -6 -26 3 -25 6 -27 71
-29 37 -2 67 0 67 3 -1 18 -40 53 -84 76 -57 30 -56 30 -56 13z"/>
</g>
</svg>
