<?xml version="1.0" standalone="no"?>
<!DOCTYPE svg PUBLIC "-//W3C//DTD SVG 20010904//EN"
 "http://www.w3.org/TR/2001/REC-SVG-20010904/DTD/svg10.dtd">
<svg version="1.0" xmlns="http://www.w3.org/2000/svg"
 width="16.000000pt" height="16.000000pt" viewBox="0 0 16.000000 16.000000"
 preserveAspectRatio="xMidYMid meet">
<metadata>
Created by potrace 1.11, written by Peter Selinger 2001-2013
</metadata>
<g transform="translate(0.000000,16.000000) scale(0.100000,-0.100000)"
fill="#000000" stroke="none">
<path d="M10 134 c0 -10 6 -14 15 -10 8 3 15 1 15 -3 0 -5 -7 -11 -15 -15 -16
-6 -21 -46 -6 -46 5 0 21 14 35 31 26 30 27 31 46 14 11 -10 20 -14 20 -8 0 5
-13 19 -30 31 -35 26 -80 30 -80 6z"/>
<path d="M120 146 c0 -2 7 -9 15 -16 9 -7 15 -8 15 -2 0 5 -7 12 -15 16 -8 3
-15 4 -15 2z"/>
<path d="M90 73 c-25 -5 -70 -40 -70 -55 0 -13 48 -9 54 5 5 10 7 10 12 0 3
-7 13 -13 21 -13 12 0 13 3 4 14 -9 11 -10 20 -1 35 6 12 9 20 8 20 -2 -1 -14
-4 -28 -6z"/>
</g>
</svg>
