<?xml version="1.0" standalone="no"?>
<!DOCTYPE svg PUBLIC "-//W3C//DTD SVG 20010904//EN"
 "http://www.w3.org/TR/2001/REC-SVG-20010904/DTD/svg10.dtd">
<svg version="1.0" xmlns="http://www.w3.org/2000/svg"
 width="16.000000pt" height="16.000000pt" viewBox="0 0 16.000000 16.000000"
 preserveAspectRatio="xMidYMid meet">
<metadata>
Created by potrace 1.11, written by Peter Selinger 2001-2013
</metadata>
<g transform="translate(0.000000,16.000000) scale(0.100000,-0.100000)"
fill="#000000" stroke="none">
<path d="M10 138 c0 -5 11 -8 25 -8 15 0 25 -6 25 -14 0 -15 -29 -43 -39 -38
-3 2 -7 -2 -10 -9 -2 -8 6 -10 28 -7 24 3 30 1 26 -9 -3 -7 -8 -20 -11 -28 -3
-8 -1 -15 5 -15 6 0 11 6 11 14 0 8 18 30 40 49 42 35 51 63 25 74 -22 8 -30
-4 -16 -20 9 -12 6 -18 -14 -31 -24 -16 -25 -16 -25 3 0 11 5 23 10 26 22 13
8 22 -35 21 -25 -1 -45 -4 -45 -8z"/>
<path d="M130 62 c-18 -6 -30 -22 -30 -41 0 -8 10 -3 26 14 27 29 28 35 4 27z"/>
<path d="M10 26 c0 -9 7 -16 16 -16 17 0 14 22 -4 28 -7 2 -12 -3 -12 -12z"/>
</g>
</svg>
