<?xml version="1.0" standalone="no"?>
<!DOCTYPE svg PUBLIC "-//W3C//DTD SVG 20010904//EN"
 "http://www.w3.org/TR/2001/REC-SVG-20010904/DTD/svg10.dtd">
<svg version="1.0" xmlns="http://www.w3.org/2000/svg"
 width="16.000000pt" height="16.000000pt" viewBox="0 0 16.000000 16.000000"
 preserveAspectRatio="xMidYMid meet">
<metadata>
Created by potrace 1.11, written by Peter Selinger 2001-2013
</metadata>
<g transform="translate(0.000000,16.000000) scale(0.100000,-0.100000)"
fill="#000000" stroke="none">
<path d="M40 135 c0 -9 -7 -18 -15 -21 -21 -8 -21 -84 0 -84 8 0 15 -4 15 -10
0 -5 5 -10 10 -10 6 0 10 8 8 18 -2 14 4 17 34 17 20 0 40 3 44 8 4 4 2 7 -4
7 -7 0 -12 9 -12 21 l0 21 -36 -21 c-20 -12 -38 -20 -41 -18 -2 3 5 20 16 38
26 42 26 49 1 49 -11 0 -20 -7 -20 -15z"/>
<path d="M90 141 c0 -5 7 -14 15 -21 13 -10 15 -9 15 9 0 12 -6 21 -15 21 -8
0 -15 -4 -15 -9z"/>
<path d="M130 140 c0 -5 5 -10 11 -10 5 0 7 5 4 10 -3 6 -8 10 -11 10 -2 0 -4
-4 -4 -10z"/>
</g>
</svg>
