<?xml version="1.0" standalone="no"?>
<!DOCTYPE svg PUBLIC "-//W3C//DTD SVG 20010904//EN"
 "http://www.w3.org/TR/2001/REC-SVG-20010904/DTD/svg10.dtd">
<svg version="1.0" xmlns="http://www.w3.org/2000/svg"
 width="16.000000pt" height="16.000000pt" viewBox="0 0 16.000000 16.000000"
 preserveAspectRatio="xMidYMid meet">
<metadata>
Created by potrace 1.11, written by Peter Selinger 2001-2013
</metadata>
<g transform="translate(0.000000,16.000000) scale(0.100000,-0.100000)"
fill="#000000" stroke="none">
<path d="M17 103 c3 -27 12 -56 21 -65 20 -23 78 -34 97 -18 17 14 22 105 5
95 -5 -3 -7 -12 -4 -20 7 -17 -13 -55 -29 -54 -9 0 -9 2 1 6 6 2 9 10 5 16 -4
6 -6 28 -4 49 1 21 -3 38 -8 38 -6 0 -10 -8 -9 -17 3 -38 -2 -63 -13 -63 -8 0
-10 14 -6 40 3 22 1 40 -4 40 -15 0 -10 -77 6 -90 19 -16 19 -30 1 -30 -23 0
-46 41 -46 82 0 21 -4 38 -9 38 -5 0 -6 -21 -4 -47z"/>
</g>
</svg>
