<?xml version="1.0" standalone="no"?>
<!DOCTYPE svg PUBLIC "-//W3C//DTD SVG 20010904//EN"
 "http://www.w3.org/TR/2001/REC-SVG-20010904/DTD/svg10.dtd">
<svg version="1.0" xmlns="http://www.w3.org/2000/svg"
 width="16.000000pt" height="16.000000pt" viewBox="0 0 16.000000 16.000000"
 preserveAspectRatio="xMidYMid meet">
<metadata>
Created by potrace 1.11, written by Peter Selinger 2001-2013
</metadata>
<g transform="translate(0.000000,16.000000) scale(0.100000,-0.100000)"
fill="#000000" stroke="none">
<path d="M30 141 c0 -5 9 -19 19 -32 17 -21 22 -22 41 -11 11 7 26 10 32 6 7
-5 3 -10 -11 -15 -12 -5 -25 -19 -30 -31 -9 -22 -9 -22 -17 -3 -9 25 -34 55
-46 55 -13 0 -9 -48 5 -53 10 -4 10 -6 0 -6 -7 -1 -13 -8 -13 -16 0 -18 16
-20 24 -2 3 8 8 7 16 -5 13 -22 24 -23 42 -4 8 8 23 15 34 18 15 2 20 13 22
51 2 26 -1 47 -7 47 -5 0 -16 3 -24 6 -9 3 -16 -3 -20 -15 -7 -27 -37 -27 -44
-1 -5 20 -23 28 -23 11z"/>
</g>
</svg>
