<?xml version="1.0" standalone="no"?>
<!DOCTYPE svg PUBLIC "-//W3C//DTD SVG 20010904//EN"
 "http://www.w3.org/TR/2001/REC-SVG-20010904/DTD/svg10.dtd">
<svg version="1.0" xmlns="http://www.w3.org/2000/svg"
 width="16.000000pt" height="16.000000pt" viewBox="0 0 16.000000 16.000000"
 preserveAspectRatio="xMidYMid meet">
<metadata>
Created by potrace 1.11, written by Peter Selinger 2001-2013
</metadata>
<g transform="translate(0.000000,16.000000) scale(0.100000,-0.100000)"
fill="#000000" stroke="none">
<path d="M23 143 c-7 -2 -13 -9 -13 -15 0 -6 7 -8 15 -4 10 3 20 -6 31 -27 9
-18 21 -35 27 -38 5 -4 7 -15 3 -24 -5 -14 -9 -15 -21 -5 -8 7 -15 9 -15 4 0
-4 -5 -3 -12 4 -16 16 -28 15 -28 -2 0 -15 30 -26 73 -26 19 0 27 5 27 18 1
16 1 16 14 0 19 -26 26 -22 26 13 0 26 -3 29 -20 24 -24 -8 -70 34 -70 65 0
19 -12 24 -37 13z"/>
<path d="M110 128 c0 -23 16 -48 31 -48 4 0 6 15 4 33 -3 39 -35 53 -35 15z"/>
</g>
</svg>
