<?xml version="1.0" standalone="no"?>
<!DOCTYPE svg PUBLIC "-//W3C//DTD SVG 20010904//EN"
 "http://www.w3.org/TR/2001/REC-SVG-20010904/DTD/svg10.dtd">
<svg version="1.0" xmlns="http://www.w3.org/2000/svg"
 width="16.000000pt" height="16.000000pt" viewBox="0 0 16.000000 16.000000"
 preserveAspectRatio="xMidYMid meet">
<metadata>
Created by potrace 1.11, written by Peter Selinger 2001-2013
</metadata>
<g transform="translate(0.000000,16.000000) scale(0.100000,-0.100000)"
fill="#000000" stroke="none">
<path d="M10 134 c0 -8 5 -14 11 -14 8 0 8 -4 1 -12 -12 -15 -11 -98 1 -98 5
0 7 17 5 38 -2 28 1 37 12 37 10 0 16 -12 18 -37 3 -30 7 -38 23 -38 13 0 19
7 19 24 0 15 11 32 27 44 16 11 25 24 21 28 -10 9 -36 -13 -61 -51 -17 -26
-18 -27 -14 -6 3 13 1 32 -6 42 -9 14 -9 21 1 31 20 20 14 26 -23 26 -23 0
-35 -5 -35 -14z"/>
<path d="M130 41 c-12 -24 -13 -31 -1 -31 5 0 11 11 13 25 6 30 2 32 -12 6z"/>
</g>
</svg>
