<?xml version="1.0" standalone="no"?>
<!DOCTYPE svg PUBLIC "-//W3C//DTD SVG 20010904//EN"
 "http://www.w3.org/TR/2001/REC-SVG-20010904/DTD/svg10.dtd">
<svg version="1.0" xmlns="http://www.w3.org/2000/svg"
 width="16.000000pt" height="16.000000pt" viewBox="0 0 16.000000 16.000000"
 preserveAspectRatio="xMidYMid meet">
<metadata>
Created by potrace 1.11, written by Peter Selinger 2001-2013
</metadata>
<g transform="translate(0.000000,16.000000) scale(0.100000,-0.100000)"
fill="#000000" stroke="none">
<path d="M52 143 c2 -5 12 -25 23 -45 20 -41 20 -42 -12 -52 -17 -6 -22 -2
-25 15 -6 41 -26 32 -25 -11 1 -34 4 -40 22 -40 12 0 30 9 40 20 23 25 35 25
35 0 0 -11 5 -20 11 -20 8 0 10 14 6 44 -5 34 -3 45 8 50 8 3 15 14 15 24 0
14 -8 19 -30 20 -17 0 -28 -4 -24 -9 3 -5 10 -7 15 -4 5 4 9 -3 9 -15 0 -29
-34 -22 -38 8 -2 12 -10 22 -19 22 -8 0 -13 -3 -11 -7z"/>
</g>
</svg>
