<?xml version="1.0" standalone="no"?>
<!DOCTYPE svg PUBLIC "-//W3C//DTD SVG 20010904//EN"
 "http://www.w3.org/TR/2001/REC-SVG-20010904/DTD/svg10.dtd">
<svg version="1.0" xmlns="http://www.w3.org/2000/svg"
 width="16.000000pt" height="16.000000pt" viewBox="0 0 16.000000 16.000000"
 preserveAspectRatio="xMidYMid meet">
<metadata>
Created by potrace 1.11, written by Peter Selinger 2001-2013
</metadata>
<g transform="translate(0.000000,16.000000) scale(0.100000,-0.100000)"
fill="#000000" stroke="none">
<path d="M23 143 c-20 -8 -16 -43 5 -43 21 0 42 18 42 37 0 13 -24 16 -47 6z"/>
<path d="M83 114 c-3 -8 -1 -20 6 -27 15 -15 14 -27 -2 -27 -14 0 -47 -31 -47
-43 0 -15 26 -6 38 13 7 11 19 20 27 20 8 0 15 9 15 20 0 11 -5 20 -11 20 -5
0 -7 5 -4 10 4 6 15 8 26 5 23 -8 26 10 3 19 -26 10 -44 7 -51 -10z"/>
<path d="M10 65 c0 -17 5 -25 13 -22 6 2 12 12 12 22 0 10 -6 20 -12 23 -8 2
-13 -6 -13 -23z"/>
<path d="M123 40 c-6 -17 -9 -30 -6 -30 9 0 32 34 33 48 0 23 -16 12 -27 -18z"/>
</g>
</svg>
