<?xml version="1.0" standalone="no"?>
<!DOCTYPE svg PUBLIC "-//W3C//DTD SVG 20010904//EN"
 "http://www.w3.org/TR/2001/REC-SVG-20010904/DTD/svg10.dtd">
<svg version="1.0" xmlns="http://www.w3.org/2000/svg"
 width="16.000000pt" height="16.000000pt" viewBox="0 0 16.000000 16.000000"
 preserveAspectRatio="xMidYMid meet">
<metadata>
Created by potrace 1.11, written by Peter Selinger 2001-2013
</metadata>
<g transform="translate(0.000000,16.000000) scale(0.100000,-0.100000)"
fill="#000000" stroke="none">
<path d="M40 135 c0 -9 -7 -26 -16 -39 -10 -16 -12 -26 -5 -31 6 -3 11 -3 11
2 1 4 7 -7 16 -26 l15 -35 15 22 c8 12 13 31 9 41 -3 12 0 21 10 25 9 3 13 10
10 16 -9 15 -25 12 -25 -4 0 -7 -9 -16 -21 -19 -22 -6 -22 1 -4 46 4 10 3 17
-4 17 -6 0 -11 -7 -11 -15z m30 -81 c0 -8 -4 -12 -10 -9 -5 3 -10 10 -10 16 0
5 5 9 10 9 6 0 10 -7 10 -16z"/>
<path d="M130 135 c7 -9 15 -13 17 -11 7 7 -7 26 -19 26 -6 0 -6 -6 2 -15z"/>
<path d="M135 88 c-6 -20 -1 -78 7 -78 4 0 7 20 6 45 -2 46 -6 54 -13 33z"/>
</g>
</svg>
