<?xml version="1.0" standalone="no"?>
<!DOCTYPE svg PUBLIC "-//W3C//DTD SVG 20010904//EN"
 "http://www.w3.org/TR/2001/REC-SVG-20010904/DTD/svg10.dtd">
<svg version="1.0" xmlns="http://www.w3.org/2000/svg"
 width="16.000000pt" height="16.000000pt" viewBox="0 0 16.000000 16.000000"
 preserveAspectRatio="xMidYMid meet">
<metadata>
Created by potrace 1.11, written by Peter Selinger 2001-2013
</metadata>
<g transform="translate(0.000000,16.000000) scale(0.100000,-0.100000)"
fill="#000000" stroke="none">
<path d="M70 133 c0 -9 9 -27 21 -39 l20 -21 -25 -5 c-15 -3 -31 1 -37 8 -22
27 -38 16 -36 -26 1 -30 5 -40 18 -40 10 0 20 6 22 13 4 9 6 9 6 0 1 -15 47
-17 56 -3 3 6 -2 10 -11 10 -16 0 -16 1 1 20 10 11 24 20 32 20 19 0 16 13 -7
28 -11 7 -20 21 -20 32 0 13 -7 20 -20 20 -12 0 -20 -7 -20 -17z"/>
</g>
</svg>
