<?xml version="1.0" standalone="no"?>
<!DOCTYPE svg PUBLIC "-//W3C//DTD SVG 20010904//EN"
 "http://www.w3.org/TR/2001/REC-SVG-20010904/DTD/svg10.dtd">
<svg version="1.0" xmlns="http://www.w3.org/2000/svg"
 width="16.000000pt" height="16.000000pt" viewBox="0 0 16.000000 16.000000"
 preserveAspectRatio="xMidYMid meet">
<metadata>
Created by potrace 1.11, written by Peter Selinger 2001-2013
</metadata>
<g transform="translate(0.000000,16.000000) scale(0.100000,-0.100000)"
fill="#000000" stroke="none">
<path d="M14 125 c-8 -32 1 -43 25 -28 14 9 20 7 30 -8 6 -11 23 -25 36 -31
18 -8 24 -17 19 -30 -3 -12 0 -18 10 -18 12 0 16 11 16 45 0 34 -4 45 -16 45
-8 0 -12 -4 -9 -10 4 -6 -1 -7 -12 -3 -10 4 -22 12 -26 20 -4 7 -19 13 -32 13
-18 0 -23 4 -19 15 4 8 1 15 -5 15 -6 0 -13 -11 -17 -25z"/>
<path d="M107 138 c6 -11 43 -10 43 1 0 5 -11 8 -24 7 -13 0 -22 -4 -19 -8z"/>
<path d="M10 61 c0 -12 4 -21 10 -21 5 0 7 -7 4 -15 -4 -10 0 -15 11 -15 11 0
15 5 11 15 -3 8 -1 15 4 15 6 0 10 -7 10 -15 0 -8 7 -15 16 -15 9 0 13 5 10
13 -3 6 -9 20 -12 30 -4 9 -12 17 -19 17 -8 0 -20 3 -29 6 -12 4 -16 0 -16
-15z"/>
</g>
</svg>
