<?xml version="1.0" standalone="no"?>
<!DOCTYPE svg PUBLIC "-//W3C//DTD SVG 20010904//EN"
 "http://www.w3.org/TR/2001/REC-SVG-20010904/DTD/svg10.dtd">
<svg version="1.0" xmlns="http://www.w3.org/2000/svg"
 width="16.000000pt" height="16.000000pt" viewBox="0 0 16.000000 16.000000"
 preserveAspectRatio="xMidYMid meet">
<metadata>
Created by potrace 1.11, written by Peter Selinger 2001-2013
</metadata>
<g transform="translate(0.000000,16.000000) scale(0.100000,-0.100000)"
fill="#000000" stroke="none">
<path d="M120 144 c0 -5 7 -18 15 -28 12 -16 15 -17 15 -4 0 8 -7 21 -15 28
-8 7 -15 9 -15 4z"/>
<path d="M61 116 c-17 -20 -4 -61 25 -76 13 -8 24 -17 24 -22 0 -4 7 -8 16 -8
10 0 14 6 10 15 -3 8 -1 15 4 15 19 0 10 22 -22 56 -36 38 -41 40 -57 20z m40
-23 c7 -20 7 -28 -3 -34 -15 -9 -43 35 -33 51 11 18 25 11 36 -17z"/>
<path d="M12 55 c-1 -42 0 -45 23 -45 14 0 25 4 25 10 0 5 -5 9 -12 7 -6 -1
-15 13 -18 31 -11 48 -15 47 -18 -3z"/>
</g>
</svg>
