<?xml version="1.0" standalone="no"?>
<!DOCTYPE svg PUBLIC "-//W3C//DTD SVG 20010904//EN"
 "http://www.w3.org/TR/2001/REC-SVG-20010904/DTD/svg10.dtd">
<svg version="1.0" xmlns="http://www.w3.org/2000/svg"
 width="16.000000pt" height="16.000000pt" viewBox="0 0 16.000000 16.000000"
 preserveAspectRatio="xMidYMid meet">
<metadata>
Created by potrace 1.11, written by Peter Selinger 2001-2013
</metadata>
<g transform="translate(0.000000,16.000000) scale(0.100000,-0.100000)"
fill="#000000" stroke="none">
<path d="M10 135 c0 -17 2 -18 24 -9 23 9 20 24 -4 24 -11 0 -20 -7 -20 -15z"/>
<path d="M110 143 c0 -5 5 -14 11 -20 9 -9 6 -19 -12 -42 -28 -35 -39 -38 -39
-13 0 10 -5 23 -12 30 -20 20 -48 15 -48 -9 0 -15 5 -19 16 -15 8 3 12 2 9 -4
-6 -10 24 -59 38 -60 4 0 7 7 7 15 0 8 5 15 10 15 6 0 10 -7 10 -15 0 -8 5
-15 10 -15 6 0 10 8 10 19 0 10 7 24 16 31 21 18 15 84 -8 88 -10 2 -18 0 -18
-5z"/>
</g>
</svg>
