<?xml version="1.0" standalone="no"?>
<!DOCTYPE svg PUBLIC "-//W3C//DTD SVG 20010904//EN"
 "http://www.w3.org/TR/2001/REC-SVG-20010904/DTD/svg10.dtd">
<svg version="1.0" xmlns="http://www.w3.org/2000/svg"
 width="16.000000pt" height="16.000000pt" viewBox="0 0 16.000000 16.000000"
 preserveAspectRatio="xMidYMid meet">
<metadata>
Created by potrace 1.11, written by Peter Selinger 2001-2013
</metadata>
<g transform="translate(0.000000,16.000000) scale(0.100000,-0.100000)"
fill="#000000" stroke="none">
<path d="M53 136 c3 -8 -1 -22 -8 -33 -9 -10 -14 -13 -15 -5 0 17 -20 15 -20
-2 0 -8 6 -17 12 -19 10 -4 10 -6 1 -6 -7 -1 -13 -6 -13 -11 0 -6 8 -10 18 -8
11 2 18 -4 20 -20 2 -14 10 -22 23 -22 23 0 24 8 3 31 -12 13 -13 24 -5 50 l9
34 1 -32 c1 -38 7 -43 44 -36 22 4 27 11 27 34 0 36 -16 38 -24 4 -9 -35 -26
-21 -26 21 0 30 -3 34 -26 34 -18 0 -25 -4 -21 -14z"/>
<path d="M120 140 c0 -5 7 -10 15 -10 8 0 15 5 15 10 0 6 -7 10 -15 10 -8 0
-15 -4 -15 -10z"/>
<path d="M122 38 c-18 -18 -15 -28 8 -28 13 0 20 7 20 20 0 23 -10 26 -28 8z"/>
<path d="M20 20 c0 -5 5 -10 11 -10 5 0 7 5 4 10 -3 6 -8 10 -11 10 -2 0 -4
-4 -4 -10z"/>
</g>
</svg>
