<?xml version="1.0" standalone="no"?>
<!DOCTYPE svg PUBLIC "-//W3C//DTD SVG 20010904//EN"
 "http://www.w3.org/TR/2001/REC-SVG-20010904/DTD/svg10.dtd">
<svg version="1.0" xmlns="http://www.w3.org/2000/svg"
 width="16.000000pt" height="16.000000pt" viewBox="0 0 16.000000 16.000000"
 preserveAspectRatio="xMidYMid meet">
<metadata>
Created by potrace 1.11, written by Peter Selinger 2001-2013
</metadata>
<g transform="translate(0.000000,16.000000) scale(0.100000,-0.100000)"
fill="#000000" stroke="none">
<path d="M10 128 c0 -19 2 -20 10 -8 13 19 13 30 0 30 -5 0 -10 -10 -10 -22z"/>
<path d="M49 147 c-16 -62 6 -107 53 -107 18 0 28 -5 28 -15 0 -8 5 -15 10
-15 18 0 11 35 -10 48 -27 17 -27 62 0 62 11 0 20 7 20 15 0 8 -4 15 -9 15
-12 0 -41 -29 -41 -41 0 -5 -4 -9 -10 -9 -5 0 -10 7 -10 15 0 8 5 15 12 15 18
0 0 13 -22 17 -11 2 -20 2 -21 0z m31 -77 c0 -5 -7 -7 -15 -4 -8 4 -12 10 -9
15 6 11 24 2 24 -11z"/>
<path d="M10 31 c0 -6 6 -11 14 -11 8 0 23 -3 33 -6 12 -5 15 -4 8 3 -15 16
-55 26 -55 14z"/>
</g>
</svg>
