<?xml version="1.0" standalone="no"?>
<!DOCTYPE svg PUBLIC "-//W3C//DTD SVG 20010904//EN"
 "http://www.w3.org/TR/2001/REC-SVG-20010904/DTD/svg10.dtd">
<svg version="1.0" xmlns="http://www.w3.org/2000/svg"
 width="16.000000pt" height="16.000000pt" viewBox="0 0 16.000000 16.000000"
 preserveAspectRatio="xMidYMid meet">
<metadata>
Created by potrace 1.11, written by Peter Selinger 2001-2013
</metadata>
<g transform="translate(0.000000,16.000000) scale(0.100000,-0.100000)"
fill="#000000" stroke="none">
<path d="M50 136 c0 -7 -9 -16 -21 -19 -13 -4 -20 -12 -17 -24 5 -27 55 -29
82 -3 15 13 29 18 40 14 14 -6 17 -2 14 17 -5 36 -45 39 -54 4 -8 -31 -41 -52
-57 -36 -8 8 -5 15 9 26 10 8 25 15 32 15 21 0 13 20 -8 20 -11 0 -20 -6 -20
-14z"/>
<path d="M91 65 c-23 -14 -52 -25 -62 -25 -10 0 -19 -7 -19 -15 0 -9 9 -15 25
-15 15 0 25 6 25 14 0 8 20 22 45 33 25 10 45 21 45 26 0 12 -13 8 -59 -18z"/>
</g>
</svg>
