<?xml version="1.0" standalone="no"?>
<!DOCTYPE svg PUBLIC "-//W3C//DTD SVG 20010904//EN"
 "http://www.w3.org/TR/2001/REC-SVG-20010904/DTD/svg10.dtd">
<svg version="1.0" xmlns="http://www.w3.org/2000/svg"
 width="16.000000pt" height="16.000000pt" viewBox="0 0 16.000000 16.000000"
 preserveAspectRatio="xMidYMid meet">
<metadata>
Created by potrace 1.11, written by Peter Selinger 2001-2013
</metadata>
<g transform="translate(0.000000,16.000000) scale(0.100000,-0.100000)"
fill="#000000" stroke="none">
<path d="M10 120 c0 -23 5 -30 19 -30 11 0 23 5 27 12 5 8 11 6 20 -7 16 -22
44 -13 44 15 0 11 5 20 10 20 6 0 10 5 10 10 0 6 -7 10 -15 10 -9 0 -15 -9
-15 -24 0 -14 -5 -28 -12 -32 -8 -5 -9 2 -5 25 5 24 3 31 -6 28 -6 -2 -11 -10
-10 -16 2 -6 -2 -11 -7 -11 -5 0 -10 7 -10 15 0 9 -9 15 -25 15 -21 0 -25 -5
-25 -30z"/>
<path d="M130 59 c-7 -12 -17 -18 -26 -15 -18 7 -54 -10 -54 -24 0 -6 7 -10
15 -10 8 0 15 5 15 10 0 6 7 10 15 10 8 0 15 -4 15 -10 0 -5 9 -10 19 -10 16
0 19 6 18 35 -1 19 -3 35 -4 35 -1 0 -7 -9 -13 -21z"/>
</g>
</svg>
