<?xml version="1.0" standalone="no"?>
<!DOCTYPE svg PUBLIC "-//W3C//DTD SVG 20010904//EN"
 "http://www.w3.org/TR/2001/REC-SVG-20010904/DTD/svg10.dtd">
<svg version="1.0" xmlns="http://www.w3.org/2000/svg"
 width="16.000000pt" height="16.000000pt" viewBox="0 0 16.000000 16.000000"
 preserveAspectRatio="xMidYMid meet">
<metadata>
Created by potrace 1.11, written by Peter Selinger 2001-2013
</metadata>
<g transform="translate(0.000000,16.000000) scale(0.100000,-0.100000)"
fill="#000000" stroke="none">
<path d="M30 143 c0 -5 7 -17 15 -27 18 -23 10 -39 -16 -31 -11 4 -19 2 -19
-4 0 -6 9 -11 20 -11 11 0 23 -7 27 -15 8 -22 -4 -30 -22 -15 -9 7 -18 10 -21
7 -10 -10 23 -37 46 -37 17 0 20 4 15 21 -5 16 -3 20 6 17 8 -3 13 -12 11 -22
-2 -9 4 -16 13 -16 17 0 20 16 5 25 -6 4 -8 11 -5 16 4 5 -1 9 -9 9 -8 0 -18
5 -22 11 -10 17 17 28 44 18 27 -10 38 -6 27 10 -3 6 -19 11 -35 11 -20 0 -31
6 -35 20 -6 18 -45 30 -45 13z"/>
<path d="M83 137 c2 -7 16 -12 32 -12 16 0 30 5 32 12 3 7 -9 11 -32 11 -23 0
-35 -4 -32 -11z"/>
<path d="M135 20 c-3 -5 -1 -10 4 -10 6 0 11 5 11 10 0 6 -2 10 -4 10 -3 0 -8
-4 -11 -10z"/>
</g>
</svg>
