<?xml version="1.0" standalone="no"?>
<!DOCTYPE svg PUBLIC "-//W3C//DTD SVG 20010904//EN"
 "http://www.w3.org/TR/2001/REC-SVG-20010904/DTD/svg10.dtd">
<svg version="1.0" xmlns="http://www.w3.org/2000/svg"
 width="16.000000pt" height="16.000000pt" viewBox="0 0 16.000000 16.000000"
 preserveAspectRatio="xMidYMid meet">
<metadata>
Created by potrace 1.11, written by Peter Selinger 2001-2013
</metadata>
<g transform="translate(0.000000,16.000000) scale(0.100000,-0.100000)"
fill="#000000" stroke="none">
<path d="M10 134 c0 -11 6 -14 20 -9 16 5 20 2 20 -16 0 -18 -2 -19 -15 -9 -9
7 -18 10 -21 7 -9 -9 4 -25 19 -23 25 4 34 16 29 41 -3 18 -11 25 -28 25 -15
0 -24 -6 -24 -16z"/>
<path d="M116 123 c-8 -28 11 -50 29 -32 6 6 5 13 -4 18 -9 6 -10 11 -2 15 15
10 14 26 -3 26 -8 0 -17 -12 -20 -27z"/>
<path d="M10 32 c0 -12 19 -26 26 -19 2 2 -2 10 -11 17 -9 8 -15 8 -15 2z"/>
<path d="M90 20 c0 -5 11 -10 25 -10 14 0 25 5 25 10 0 6 -11 10 -25 10 -14 0
-25 -4 -25 -10z"/>
</g>
</svg>
