<?xml version="1.0" standalone="no"?>
<!DOCTYPE svg PUBLIC "-//W3C//DTD SVG 20010904//EN"
 "http://www.w3.org/TR/2001/REC-SVG-20010904/DTD/svg10.dtd">
<svg version="1.0" xmlns="http://www.w3.org/2000/svg"
 width="16.000000pt" height="16.000000pt" viewBox="0 0 16.000000 16.000000"
 preserveAspectRatio="xMidYMid meet">
<metadata>
Created by potrace 1.11, written by Peter Selinger 2001-2013
</metadata>
<g transform="translate(0.000000,16.000000) scale(0.100000,-0.100000)"
fill="#000000" stroke="none">
<path d="M16 134 c-5 -14 -4 -15 9 -4 17 14 19 20 6 20 -5 0 -12 -7 -15 -16z"/>
<path d="M101 139 c11 -7 22 -39 14 -39 -2 0 -15 4 -29 9 -32 13 -56 -10 -36
-34 16 -19 37 -19 56 0 8 8 20 12 28 9 9 -3 13 6 14 29 1 31 -1 34 -29 34 -17
0 -25 -3 -18 -8z m-13 -57 c6 -18 -15 -14 -22 4 -4 10 -1 14 6 12 6 -2 14 -10
16 -16z"/>
<path d="M118 49 c-20 -11 -24 -39 -7 -39 6 0 9 7 5 15 -4 10 1 15 14 15 11 0
20 5 20 10 0 13 -10 12 -32 -1z"/>
</g>
</svg>
