<?xml version="1.0" standalone="no"?>
<!DOCTYPE svg PUBLIC "-//W3C//DTD SVG 20010904//EN"
 "http://www.w3.org/TR/2001/REC-SVG-20010904/DTD/svg10.dtd">
<svg version="1.0" xmlns="http://www.w3.org/2000/svg"
 width="16.000000pt" height="16.000000pt" viewBox="0 0 16.000000 16.000000"
 preserveAspectRatio="xMidYMid meet">
<metadata>
Created by potrace 1.11, written by Peter Selinger 2001-2013
</metadata>
<g transform="translate(0.000000,16.000000) scale(0.100000,-0.100000)"
fill="#000000" stroke="none">
<path d="M17 143 c-4 -3 -7 -13 -7 -21 0 -13 3 -13 18 1 12 11 22 13 32 7 20
-13 1 -44 -29 -48 -25 -4 -29 -22 -4 -22 15 0 15 -1 0 -18 -10 -10 -17 -22
-17 -25 0 -17 62 -4 99 20 45 29 54 60 19 65 -12 2 -23 9 -26 17 -3 10 2 12
22 7 15 -4 26 -2 26 4 0 17 -51 24 -61 9 -6 -10 -9 -11 -9 -1 0 12 -51 17 -63
5z m97 -56 c16 -12 16 -14 -2 -31 -17 -15 -23 -15 -41 -5 -19 12 -19 15 -4 31
19 21 24 22 47 5z"/>
<path d="M130 19 c0 -5 5 -7 10 -4 6 3 10 8 10 11 0 2 -4 4 -10 4 -5 0 -10 -5
-10 -11z"/>
</g>
</svg>
