<?xml version="1.0" standalone="no"?>
<!DOCTYPE svg PUBLIC "-//W3C//DTD SVG 20010904//EN"
 "http://www.w3.org/TR/2001/REC-SVG-20010904/DTD/svg10.dtd">
<svg version="1.0" xmlns="http://www.w3.org/2000/svg"
 width="16.000000pt" height="16.000000pt" viewBox="0 0 16.000000 16.000000"
 preserveAspectRatio="xMidYMid meet">
<metadata>
Created by potrace 1.11, written by Peter Selinger 2001-2013
</metadata>
<g transform="translate(0.000000,16.000000) scale(0.100000,-0.100000)"
fill="#000000" stroke="none">
<path d="M31 128 c-13 -37 -20 -108 -10 -108 5 0 8 3 7 7 -6 22 15 102 27 107
19 7 28 -9 17 -31 -14 -27 -22 -93 -11 -93 5 0 9 19 10 43 0 32 2 37 9 22 10
-26 58 -70 66 -62 4 4 -7 20 -25 36 -39 37 -39 55 1 74 28 14 30 17 14 23 -11
4 -22 2 -28 -7 -7 -11 -11 -11 -15 -1 -8 21 -53 14 -62 -10z"/>
<path d="M130 96 c0 -14 4 -27 8 -30 5 -3 9 8 9 24 0 17 -4 30 -9 30 -4 0 -8
-11 -8 -24z"/>
</g>
</svg>
