<?xml version="1.0" standalone="no"?>
<!DOCTYPE svg PUBLIC "-//W3C//DTD SVG 20010904//EN"
 "http://www.w3.org/TR/2001/REC-SVG-20010904/DTD/svg10.dtd">
<svg version="1.0" xmlns="http://www.w3.org/2000/svg"
 width="16.000000pt" height="16.000000pt" viewBox="0 0 16.000000 16.000000"
 preserveAspectRatio="xMidYMid meet">
<metadata>
Created by potrace 1.11, written by Peter Selinger 2001-2013
</metadata>
<g transform="translate(0.000000,16.000000) scale(0.100000,-0.100000)"
fill="#000000" stroke="none">
<path d="M15 140 c-3 -5 0 -10 8 -10 16 0 27 -21 27 -48 0 -23 54 -72 79 -72
16 0 21 6 21 24 0 14 -4 28 -10 31 -5 3 -10 17 -10 30 0 36 -10 55 -31 55 -23
0 -23 6 1 -59 11 -30 18 -56 16 -58 -7 -8 -52 44 -48 56 11 32 -36 78 -53 51z"/>
</g>
</svg>
