<?xml version="1.0" standalone="no"?>
<!DOCTYPE svg PUBLIC "-//W3C//DTD SVG 20010904//EN"
 "http://www.w3.org/TR/2001/REC-SVG-20010904/DTD/svg10.dtd">
<svg version="1.0" xmlns="http://www.w3.org/2000/svg"
 width="16.000000pt" height="16.000000pt" viewBox="0 0 16.000000 16.000000"
 preserveAspectRatio="xMidYMid meet">
<metadata>
Created by potrace 1.11, written by Peter Selinger 2001-2013
</metadata>
<g transform="translate(0.000000,16.000000) scale(0.100000,-0.100000)"
fill="#000000" stroke="none">
<path d="M16 134 c-10 -27 -7 -44 9 -44 8 0 15 -4 15 -10 0 -5 -7 -7 -15 -4
-8 4 -15 1 -15 -6 0 -8 8 -10 22 -7 31 9 60 -10 53 -34 -5 -16 -1 -19 24 -19
17 0 31 5 31 10 0 6 -7 10 -15 10 -8 0 -19 9 -25 19 -13 26 8 34 32 13 16 -14
18 -13 18 1 0 10 -4 17 -10 17 -5 0 -10 16 -10 35 0 19 -5 35 -11 35 -6 0 -9
-6 -6 -14 6 -16 -16 -40 -27 -29 -4 4 -4 0 0 -10 3 -10 1 -17 -5 -17 -6 0 -11
7 -11 15 0 8 -9 15 -21 15 -16 0 -19 4 -14 20 7 24 -10 27 -19 4z"/>
</g>
</svg>
