<?xml version="1.0" standalone="no"?>
<!DOCTYPE svg PUBLIC "-//W3C//DTD SVG 20010904//EN"
 "http://www.w3.org/TR/2001/REC-SVG-20010904/DTD/svg10.dtd">
<svg version="1.0" xmlns="http://www.w3.org/2000/svg"
 width="16.000000pt" height="16.000000pt" viewBox="0 0 16.000000 16.000000"
 preserveAspectRatio="xMidYMid meet">
<metadata>
Created by potrace 1.11, written by Peter Selinger 2001-2013
</metadata>
<g transform="translate(0.000000,16.000000) scale(0.100000,-0.100000)"
fill="#000000" stroke="none">
<path d="M23 143 c-14 -5 -18 -33 -5 -33 10 1 42 26 42 34 0 7 -19 7 -37 -1z"/>
<path d="M76 135 c4 -8 17 -15 30 -15 22 0 31 -18 25 -52 0 -5 3 -8 8 -8 5 0
9 20 9 45 1 46 -5 54 -26 33 -9 -9 -15 -9 -24 0 -17 17 -29 15 -22 -3z"/>
<path d="M47 113 c-4 -3 -7 -17 -7 -29 0 -18 -4 -22 -16 -17 -12 4 -15 2 -12
-8 3 -9 19 -14 47 -13 29 1 39 -2 31 -10 -14 -14 -13 -26 4 -26 16 0 30 42 16
50 -5 3 -13 18 -19 33 -10 26 -30 35 -44 20z m31 -25 c-2 -6 -10 -14 -16 -16
-7 -2 -10 2 -6 12 7 18 28 22 22 4z"/>
</g>
</svg>
