<?xml version="1.0" standalone="no"?>
<!DOCTYPE svg PUBLIC "-//W3C//DTD SVG 20010904//EN"
 "http://www.w3.org/TR/2001/REC-SVG-20010904/DTD/svg10.dtd">
<svg version="1.0" xmlns="http://www.w3.org/2000/svg"
 width="16.000000pt" height="16.000000pt" viewBox="0 0 16.000000 16.000000"
 preserveAspectRatio="xMidYMid meet">
<metadata>
Created by potrace 1.11, written by Peter Selinger 2001-2013
</metadata>
<g transform="translate(0.000000,16.000000) scale(0.100000,-0.100000)"
fill="#000000" stroke="none">
<path d="M19 134 c-12 -15 -11 -16 10 -9 17 5 22 4 19 -6 -3 -8 -12 -13 -22
-11 -12 2 -16 -5 -16 -36 0 -37 1 -38 35 -39 43 -1 52 20 29 76 -17 44 -33 51
-55 25z m31 -54 c0 -5 -4 -10 -10 -10 -5 0 -10 5 -10 10 0 6 5 10 10 10 6 0
10 -4 10 -10z"/>
<path d="M102 118 c2 -25 8 -34 26 -36 23 -4 26 6 16 46 -4 13 -14 22 -26 22
-16 0 -19 -6 -16 -32z"/>
</g>
</svg>
