<?xml version="1.0" standalone="no"?>
<!DOCTYPE svg PUBLIC "-//W3C//DTD SVG 20010904//EN"
 "http://www.w3.org/TR/2001/REC-SVG-20010904/DTD/svg10.dtd">
<svg version="1.0" xmlns="http://www.w3.org/2000/svg"
 width="16.000000pt" height="16.000000pt" viewBox="0 0 16.000000 16.000000"
 preserveAspectRatio="xMidYMid meet">
<metadata>
Created by potrace 1.11, written by Peter Selinger 2001-2013
</metadata>
<g transform="translate(0.000000,16.000000) scale(0.100000,-0.100000)"
fill="#000000" stroke="none">
<path d="M21 119 c-14 -41 -14 -56 -1 -43 14 14 31 74 20 74 -4 0 -13 -14 -19
-31z"/>
<path d="M67 143 c-4 -3 -2 -12 3 -19 6 -6 10 -16 9 -20 -4 -26 3 -42 22 -47
12 -3 19 -12 17 -23 -2 -9 3 -19 10 -21 9 -4 11 2 7 20 -4 14 -2 28 4 31 6 4
11 25 11 47 0 39 0 39 -38 39 -21 0 -42 -3 -45 -7z m63 -32 c0 -6 -4 -13 -10
-16 -5 -3 -10 1 -10 9 0 9 5 16 10 16 6 0 10 -4 10 -9z"/>
<path d="M27 35 c24 -32 38 -32 17 0 -9 14 -20 25 -26 25 -5 0 -1 -11 9 -25z"/>
</g>
</svg>
