<?xml version="1.0" standalone="no"?>
<!DOCTYPE svg PUBLIC "-//W3C//DTD SVG 20010904//EN"
 "http://www.w3.org/TR/2001/REC-SVG-20010904/DTD/svg10.dtd">
<svg version="1.0" xmlns="http://www.w3.org/2000/svg"
 width="16.000000pt" height="16.000000pt" viewBox="0 0 16.000000 16.000000"
 preserveAspectRatio="xMidYMid meet">
<metadata>
Created by potrace 1.11, written by Peter Selinger 2001-2013
</metadata>
<g transform="translate(0.000000,16.000000) scale(0.100000,-0.100000)"
fill="#000000" stroke="none">
<path d="M20 138 c0 -5 3 -7 8 -7 34 6 42 -2 42 -41 0 -22 5 -40 10 -40 6 0
15 -10 20 -22 l9 -23 7 22 c3 13 13 23 20 23 8 0 14 5 14 10 0 6 -8 10 -17 8
-11 -2 -18 3 -18 12 0 8 8 14 17 14 23 -2 19 50 -4 54 -12 2 -18 -7 -23 -37
-4 -23 -11 -43 -16 -46 -5 -4 -7 0 -5 7 2 7 7 27 10 44 5 31 4 31 -35 30 -21
0 -39 -4 -39 -8z"/>
<path d="M10 61 c0 -6 5 -11 11 -11 6 0 8 -9 4 -20 -4 -11 -2 -20 4 -20 16 0
13 36 -4 50 -10 9 -15 9 -15 1z"/>
</g>
</svg>
