<?xml version="1.0" standalone="no"?>
<!DOCTYPE svg PUBLIC "-//W3C//DTD SVG 20010904//EN"
 "http://www.w3.org/TR/2001/REC-SVG-20010904/DTD/svg10.dtd">
<svg version="1.0" xmlns="http://www.w3.org/2000/svg"
 width="16.000000pt" height="16.000000pt" viewBox="0 0 16.000000 16.000000"
 preserveAspectRatio="xMidYMid meet">
<metadata>
Created by potrace 1.11, written by Peter Selinger 2001-2013
</metadata>
<g transform="translate(0.000000,16.000000) scale(0.100000,-0.100000)"
fill="#000000" stroke="none">
<path d="M11 103 c1 -27 3 -40 6 -31 2 10 17 21 31 24 15 4 35 13 44 22 10 8
27 12 38 9 14 -3 20 -1 17 6 -6 20 -38 20 -52 0 -13 -17 -14 -17 -15 0 0 13
-8 17 -35 17 l-35 0 1 -47z"/>
<path d="M120 70 c-8 -5 -24 -10 -36 -10 -24 0 -74 -22 -74 -32 0 -14 23 -8
43 10 19 16 19 16 13 -5 -10 -32 25 -32 39 -1 6 14 17 22 28 20 10 -2 17 3 17
13 0 17 -9 19 -30 5z"/>
<path d="M130 20 c0 -5 5 -10 10 -10 6 0 10 5 10 10 0 6 -4 10 -10 10 -5 0
-10 -4 -10 -10z"/>
</g>
</svg>
