<?xml version="1.0" standalone="no"?>
<!DOCTYPE svg PUBLIC "-//W3C//DTD SVG 20010904//EN"
 "http://www.w3.org/TR/2001/REC-SVG-20010904/DTD/svg10.dtd">
<svg version="1.0" xmlns="http://www.w3.org/2000/svg"
 width="16.000000pt" height="16.000000pt" viewBox="0 0 16.000000 16.000000"
 preserveAspectRatio="xMidYMid meet">
<metadata>
Created by potrace 1.11, written by Peter Selinger 2001-2013
</metadata>
<g transform="translate(0.000000,16.000000) scale(0.100000,-0.100000)"
fill="#000000" stroke="none">
<path d="M28 143 c-34 -9 -18 -24 17 -17 27 5 35 3 35 -8 0 -8 11 -20 25 -26
23 -11 31 -31 26 -69 -1 -7 3 -13 8 -13 13 0 11 61 -2 78 -6 8 -6 12 2 12 6 0
11 11 11 25 0 14 -4 25 -10 25 -5 0 -10 -7 -10 -15 0 -8 -4 -15 -10 -15 -5 0
-10 4 -10 10 0 5 -6 7 -14 4 -8 -3 -17 -1 -21 5 -6 11 -17 12 -47 4z"/>
<path d="M10 91 c0 -5 10 -12 23 -14 l22 -4 -22 -2 c-37 -2 -26 -18 12 -19 43
-2 44 8 6 31 -33 19 -41 21 -41 8z"/>
</g>
</svg>
