<?xml version="1.0" standalone="no"?>
<!DOCTYPE svg PUBLIC "-//W3C//DTD SVG 20010904//EN"
 "http://www.w3.org/TR/2001/REC-SVG-20010904/DTD/svg10.dtd">
<svg version="1.0" xmlns="http://www.w3.org/2000/svg"
 width="16.000000pt" height="16.000000pt" viewBox="0 0 16.000000 16.000000"
 preserveAspectRatio="xMidYMid meet">
<metadata>
Created by potrace 1.11, written by Peter Selinger 2001-2013
</metadata>
<g transform="translate(0.000000,16.000000) scale(0.100000,-0.100000)"
fill="#000000" stroke="none">
<path d="M10 130 c0 -11 5 -20 10 -20 6 0 10 -9 10 -19 0 -26 15 -34 46 -27
35 9 30 33 -11 46 -19 6 -35 18 -35 26 0 8 -4 14 -10 14 -5 0 -10 -9 -10 -20z"/>
<path d="M90 129 c6 -11 18 -23 26 -26 16 -6 19 -33 3 -33 -13 0 -59 -41 -59
-52 0 -5 7 -8 15 -8 8 0 15 6 15 13 0 8 11 19 25 25 39 18 41 39 9 73 -32 34
-50 38 -34 8z"/>
<path d="M10 30 c0 -11 7 -20 15 -20 17 0 18 2 9 24 -9 23 -24 20 -24 -4z"/>
<path d="M130 35 c0 -8 5 -15 10 -15 6 0 10 7 10 15 0 8 -4 15 -10 15 -5 0
-10 -7 -10 -15z"/>
</g>
</svg>
