<?xml version="1.0" standalone="no"?>
<!DOCTYPE svg PUBLIC "-//W3C//DTD SVG 20010904//EN"
 "http://www.w3.org/TR/2001/REC-SVG-20010904/DTD/svg10.dtd">
<svg version="1.0" xmlns="http://www.w3.org/2000/svg"
 width="16.000000pt" height="16.000000pt" viewBox="0 0 16.000000 16.000000"
 preserveAspectRatio="xMidYMid meet">
<metadata>
Created by potrace 1.11, written by Peter Selinger 2001-2013
</metadata>
<g transform="translate(0.000000,16.000000) scale(0.100000,-0.100000)"
fill="#000000" stroke="none">
<path d="M104 135 c3 -9 -3 -19 -14 -25 -11 -6 -20 -20 -20 -31 0 -18 4 -20
30 -14 18 4 30 3 30 -4 0 -14 -33 -31 -62 -31 -13 0 -29 -4 -36 -9 -9 -5 1 -8
27 -8 22 0 46 6 52 13 6 8 18 14 25 14 8 0 14 9 14 20 0 11 -4 20 -10 20 -5 0
-10 7 -10 15 0 8 5 15 10 15 6 0 10 9 10 20 0 15 -7 20 -26 20 -19 0 -25 -4
-20 -15z m-4 -49 c0 -3 -4 -8 -10 -11 -5 -3 -10 -1 -10 4 0 6 5 11 10 11 6 0
10 -2 10 -4z"/>
<path d="M10 114 c0 -14 4 -23 10 -19 13 8 13 45 0 45 -5 0 -10 -12 -10 -26z"/>
</g>
</svg>
