<?xml version="1.0" standalone="no"?>
<!DOCTYPE svg PUBLIC "-//W3C//DTD SVG 20010904//EN"
 "http://www.w3.org/TR/2001/REC-SVG-20010904/DTD/svg10.dtd">
<svg version="1.0" xmlns="http://www.w3.org/2000/svg"
 width="16.000000pt" height="16.000000pt" viewBox="0 0 16.000000 16.000000"
 preserveAspectRatio="xMidYMid meet">
<metadata>
Created by potrace 1.11, written by Peter Selinger 2001-2013
</metadata>
<g transform="translate(0.000000,16.000000) scale(0.100000,-0.100000)"
fill="#000000" stroke="none">
<path d="M100 135 c0 -8 -6 -15 -13 -15 -7 0 -21 -6 -32 -13 -17 -13 -17 -15
0 -55 21 -46 37 -51 74 -23 22 17 23 21 12 52 -8 23 -8 35 -1 37 21 7 10 32
-15 32 -16 0 -25 -6 -25 -15z m0 -44 c0 -26 -17 -36 -36 -21 -11 10 -12 16 -3
26 17 20 39 17 39 -5z m30 -35 c0 -15 -37 -32 -48 -22 -6 6 27 35 41 36 4 0 7
-6 7 -14z"/>
<path d="M18 34 c3 -15 11 -24 23 -24 25 0 23 11 -5 32 -22 16 -23 16 -18 -8z"/>
</g>
</svg>
