<?xml version="1.0" standalone="no"?>
<!DOCTYPE svg PUBLIC "-//W3C//DTD SVG 20010904//EN"
 "http://www.w3.org/TR/2001/REC-SVG-20010904/DTD/svg10.dtd">
<svg version="1.0" xmlns="http://www.w3.org/2000/svg"
 width="16.000000pt" height="16.000000pt" viewBox="0 0 16.000000 16.000000"
 preserveAspectRatio="xMidYMid meet">
<metadata>
Created by potrace 1.11, written by Peter Selinger 2001-2013
</metadata>
<g transform="translate(0.000000,16.000000) scale(0.100000,-0.100000)"
fill="#000000" stroke="none">
<path d="M10 140 c0 -12 50 -13 68 -2 8 6 -2 9 -28 10 -22 1 -40 -3 -40 -8z"/>
<path d="M110 145 c0 -3 4 -13 9 -23 5 -9 14 -28 19 -42 9 -22 11 -23 11 -4 1
23 -20 74 -31 74 -5 0 -8 -2 -8 -5z"/>
<path d="M33 83 c-35 -7 -28 -26 7 -21 17 3 30 2 30 -2 0 -12 -24 -30 -42 -30
-10 0 -18 -4 -18 -10 0 -15 77 -12 83 3 4 9 6 9 6 0 1 -7 9 -13 19 -13 14 1
13 4 -8 21 -14 12 -25 29 -25 38 0 17 -16 21 -52 14z"/>
</g>
</svg>
